<?xml version="1.0" standalone="no"?>
<!DOCTYPE svg PUBLIC "-//W3C//DTD SVG 1.1//EN" "http://www.w3.org/Graphics/SVG/1.1/DTD/svg11.dtd" >
<svg xmlns="http://www.w3.org/2000/svg">
<metadata></metadata>
<defs>
<font id="orchideemedium" horiz-adv-x="2281" >
<font-face units-per-em="2048" ascent="1638" descent="-410" />
<missing-glyph horiz-adv-x="753" />
<glyph horiz-adv-x="2048" />
<glyph horiz-adv-x="2048" />
<glyph unicode="&#xd;" horiz-adv-x="753" />
<glyph unicode=" "  horiz-adv-x="753" />
<glyph unicode="&#x09;" horiz-adv-x="753" />
<glyph unicode="&#xa0;" horiz-adv-x="753" />
<glyph unicode="*" horiz-adv-x="2222" d="M1700 915q-10 4 -23 5q-27 0 -79 -20.5t-78 -20.5q-33 0 -62 20q-61 -14 -143 -14q-27 0 -81 2t-81 2q-68 0 -121 -10q18 43 19 92q0 25 -6.5 70.5t-6.5 70.5q0 20 2 37q-16 41 15 65q0 18 -5.5 45t-5.5 39q0 23 13 43q-16 25 -17 78v80q-2 27 -12 43q6 10 16 10 q6 0 17.5 -3t15.5 -3q8 0 15 4q37 37 104 35q94 -4 113 2q281 -6 364 8l19 -16q2 -16 -9.5 -46t-11.5 -44q0 -16 10 -31q-29 -104 -28 -110q0 -29 14 -50q6 -51 6 -55q-2 -25 -22 -49q10 -14 10 -31q0 -10 -3 -25.5t-3 -23.5q0 -20 20 -37q-10 -10 -10 -26q0 -6 3 -20.5 t3 -20.5q0 -14 -8 -21q-6 -18 15.5 -39t21.5 -35zM1675 668v-11q-133 -31 -291 -30q-92 0 -186 10q-8 4 -14 4q-27 0 -62 -39q8 -35 19 -72q12 -43 6 -67q-18 -27 -19 -47q0 -16 11 -27q20 -33 51 -33q12 0 42 8.5t48 8.5q10 0 18 -2q57 -2 115 -2q70 -4 107 -23v-12 q-20 12 -47 12q-12 0 -64 -8q-39 -8 -61 0h-119q-74 -2 -105 -41q8 -20 9 -49q0 -20 -5.5 -61.5t-5.5 -59.5q0 -61 45 -90q14 -4 29 -4q16 0 50 6t50 6q23 0 41 -6q16 2 33 2q25 0 69 -8t64 -8q39 0 72 20q14 -10 44 -7t46 -9q-41 -27 -113 -31q-57 -2 -116 -6 q-10 -2 -23 -2q-14 0 -43 7t-43 7q-27 0 -45 -20q-33 16 -72 16q-20 0 -68 -7t-77 -5q-41 41 -115 41q-31 0 -84 -9q-70 -10 -82 -12q-18 -12 -18 -33q0 -6 3 -21t3 -24q0 -18 -12 -30q8 -12 24 -37q23 -33 -20 -51q-8 -39 59 -97q184 10 375 -6q-76 -43 -188 -43 q-39 0 -119 6t-121 6t-76 -4q-4 23 -4 78q2 49 -8 76q4 12 10 35q4 18 -4 33q-8 4 -8 10t11 18.5t9 22.5q16 66 -38 82q-47 2 -97 2q-55 -2 -73 -49q20 -20 23 -68.5t30 -71.5q-14 -6 -60 -12q-37 -4 -53 -25h-22q-2 29 12 79t14 73q0 43 -43 70q-25 0 -75 -10.5t-76 -10.5 q-18 0 -33 4l-62 -39q2 23 11 609l2 26l-33 23q18 25 76.5 33t79.5 30q27 6 47 -12q59 0 73 2q41 10 50 47q6 20 -11 43q-14 16 -30 35q2 6 21.5 20.5t19.5 24.5q0 8 -13 20q-16 31 -53 29h-61q-23 -6 -93 -2q-59 2 -86 -16l-6 6q31 18 31 76q0 14 -3 43.5t-4 39t-13 21.5 q23 12 22 33q0 8 -7 27.5t-7 29.5q0 8 4 17q-10 29 -10 63q0 20 4 57t4 56q0 25 -6 45q10 10 10 24q0 6 -4 19.5t-4 19.5q0 14 12 25q-31 41 -31 47t4 14q4 2 74 33q47 18 78 18q18 0 35 -6q8 6 55 0q37 -4 45 33q20 88 -12 178q84 25 123 58q2 -4 2 -11q0 -8 -12.5 -21 t-12.5 -22q0 -6 8 -12q-6 -8 -12 -68q16 -18 5 -67t28 -72q47 10 188 2q119 -6 183 21q-37 -61 -140 -131q-127 -88 -160 -123q4 -35 39 -92q43 -68 54 -93l88 -112l-2 -21q29 -33 123 -168q70 -98 137 -151q-57 14 -123 96q-76 92 -117 117q-39 -14 -78 -27 q-49 -18 -82 -18q-39 0 -67 20q-20 2 -62 -10q-27 -16 -26 -51q0 -25 14 -41q20 -6 16 -45q-29 -29 -24 -43q45 -43 94 -47q29 16 45 16q20 0 37 -16q14 0 42 7t42 7q25 0 39 -16q-18 -12 -19 -41q0 -45 0 -43l-2 -197q39 -53 148 -31q10 6 22 6t35 -7t33 -7q25 0 39 27 q-12 82 -35 243q-8 4 -8 17q12 16 35 10t32 0q39 33 109 33q14 0 74 -4q47 -4 73 0q6 -8 15 -8q6 0 18.5 5t20.5 5q6 0 12 -4q37 -2 137 2q84 4 129 -6zM1599 1479l-30 55l-375 6q-20 0 -32.5 -15.5t-24.5 -29.5l2 -160q27 -49 94 -49q14 0 63 6q41 4 64 0q29 4 74 0 q57 -4 69 -4q61 0 94 45q-23 23 -22 56q-1 20 24 90zM1595 1206q-37 70 -75 62q-119 -31 -213 -31q-45 0 -86 8q-76 -6 -97 -69q27 -23 27 -64q0 12 -18 -96q-6 -35 22 -68l375 -12l39 16q27 51 12 84q8 16 8 39q0 14 -6 42t-6 42q0 27 18 47zM694 1509q-20 55 -137 47 q-45 -4 -45 -43v-22q2 -14 2 -23q0 -20 -8 -34q35 -61 69 -56q37 29 74 56q43 36 45 75zM750 989l-9 10q4 8 4 17q0 39 -53 71q-8 20 -35.5 50t-33.5 43q-37 68 -78 67q-14 -4 -21 -20q-10 -27 -12 -29q14 -14 14 -33v-16q-2 -10 -2 -14q0 -23 25 -37l-23 -23q8 -16 -2 -43 q-10 -33 -10 -41q0 -18 14 -30q20 0 63.5 -6.5t63.5 -6.5q62 0 95 41zM451 1513q-35 39 -95 39q-49 0 -98 -24q-12 -53 2 -82q-8 -29 -8 -55q0 -27 10 -73t10 -71q0 -29 -8 -57q4 -29 -10 -98q12 -14 12 -31q0 -10 -7 -32.5t-7 -31.5q0 -20 29 -32q20 2 58 -9.5t52 -11.5 q27 0 45 23q25 43 -10 71q4 6 4 15q0 10 -4 25.5t-4 23.5q0 18 18 31q-16 12 -16 32q0 8 10 41q8 27 0 43q-16 14 -16 33q0 12 13 35.5t13 34.5q0 18 -22 37q16 12 16 36q0 8 -2 24.5t-2 25.5q1 24 17 38zM1042 281q-8 25 -47 34q-72 -27 -174 4q-43 -16 -43 -59 q0 -16 8.5 -53t8.5 -57q0 -35 -21 -58q27 -45 80 -45q18 0 59 7t62 7q25 0 43 -6q20 10 22 37q-2 29 0 78q-25 14 -24 29q0 8 17.5 26.5t17.5 32.5q-1 11 -9 23zM709 98q0 10 -13.5 27.5t-13.5 28.5q0 6 6 14q-2 4 -2 8q0 6 4 19.5t4 19.5q0 14 -16 25q25 152 14 235 q-10 14 -10 29q0 10 11.5 32.5t11.5 32.5q0 12 -5 21q-33 49 -108 49q-49 0 -86 -23q-4 -31 16 -38l2 -5q14 -31 15 -43q0 -16 -19 -24q-2 -31 19 -55q0 -41 -15 -115q12 -27 8 -72q-2 -37 -6 -74q0 8 6 -28q2 -18 -10 -27q-6 -18 -8 -33q-2 -27 10 -39q12 6 27 7 q18 0 53 -12.5t49 -12.5q33 0 54 39q4 8 2 14zM451 586q-4 16 -43 45q-6 0 -36 4t-46 4q-43 0 -58.5 -22.5t-15.5 -38.5q2 -20 33 -56l-17 -12q-12 -8 -12 -16t10 -22.5t13 -20.5q-37 -14 -25 -45q14 -37 -6 -56q12 -14 12 -33q0 -8 -4 -27.5t-4 -29.5q0 -20 10 -37 q-16 -18 -16 -37q0 -10 5 -27.5t5 -27.5q0 -18 -12 -35q16 -47 61 -47q10 0 43 4t49 2q41 10 45 49q2 23 -10 50q2 18 -3 57t-5 53q0 37 18 62q-23 23 -22 57q0 14 4 41t4 41q0 18 -6 31q12 14 11.5 45t17.5 45z" />
<glyph unicode="A" horiz-adv-x="1918" d="M1450 84q-35 4 -93.5 -24.5t-92.5 -26.5q-45 -23 -136 -74q-6 4 -6 8q0 6 9.5 17.5t9.5 17.5q-6 39 -2 111q4 82 2 116q-12 20 -13 64q0 51 -6 69q-6 6 -6 11q0 4 8.5 15t8.5 18q0 6 -8.5 16t-8.5 20t8.5 31t8.5 33q0 14 -15 26q12 18 4 48q-8 41 -8 45q0 18 12 32 q0 6 -6 39q-4 20 6 37q-2 27 -4 56.5t-35 35.5q-25 4 -69 -8q-53 -12 -76 -12q-27 0 -49 10q-25 0 -67 -9t-70 -9q-4 14 -17 14q-4 0 -20 -4q-12 -4 -19 0q-8 -18 -16 -19q-6 0 -19.5 12.5t-21.5 12.5q-10 0 -20 -16q-4 4 -11 4q-4 0 -16 -6.5t-16 -6.5q-12 0 -19 19 q-20 -14 -59 -14q-18 0 -51 3t-50 3q-72 0 -61 -80q12 -31 12 -70q0 -12 -4 -67q-2 -41 0 -68q-10 -53 4 -80q4 -8 4 -16t-7 -25.5t-7 -25.5t6 -17q2 -16 -2 -43q-2 -33 -2 -45q0 -37 18 -61q-4 -8 -4 -17q0 -14 43 -78q29 0 39 -26q-14 4 -26 4q-27 0 -78 -30.5t-86 -24.5 q-10 -6 -66 -27q-43 -14 -61 -43q-2 -4 -12 -4q27 14 24 53v64q-10 10 -10 24q0 10 7 30.5t7 29.5q0 12 -8 20q0 16 4 51t4 52q0 37 -16 63q8 43 4 125q4 102 4 313q-20 84 -74 158v8q35 -10 62 8q20 23 16 62q-6 47 0 63q-8 20 -8 45q0 16 6 51t6 56q0 16 -4 33 q-12 6 -12 20q0 4 2 14.5t2 14.5q0 12 -14 18q0 10 4 39q4 23 2 35q-4 18 -19 33q6 12 -20 51q-8 2 -23 14q59 12 164 51q31 -2 79 19.5t73 21.5q12 0 22 -2q8 4 17 4q10 0 28.5 -7t28.5 -7q8 0 14 4t13 4q6 0 18 -6t18 -6q8 0 17 10q8 -10 20 -10q6 0 24.5 8t29.5 6 q4 -12 23.5 -5t29.5 -11q8 -8 16 -8q10 0 24.5 15t20.5 15q10 0 19 -22q2 -2 22 8q8 -8 19 -8q10 0 30.5 11t28.5 11q10 0 18 -6q14 -4 56 2q35 4 53 -8q14 4 33 -8q16 12 39 12q10 0 27.5 -2t27.5 -2q25 0 43 15q14 -25 43 -19q14 16 39 8q37 -12 41 -12q16 0 29 14 q8 -6 14 -10q10 -6 16 0q12 18 13 19h10q-14 -10 -12 -41t-3 -41q2 -164 -4 -478q8 -27 9.5 -96t13.5 -104q-14 -16 -4 -50t-6 -51q-2 -125 10 -395q-6 -18 0 -45l8 -82q8 -53 27 -84q6 -2 24 -24q12 -16 29 -13v-14zM1094 1235q-27 16 -17 61t-4 64q-29 -4 -47 21.5 t-35 48.5q-33 23 -61 22q-18 0 -31 -8q-20 14 -43 14q-16 0 -50 -12t-52 -12q-14 0 -29 6q-2 0 -10 6t-10 6q-6 0 -9 -8q-10 -6 -18 -6q-14 0 -35.5 15t-32.5 15q-12 0 -22 -16q-133 10 -266 10q-25 -29 -14 -94t-3 -94q12 -27 12 -60q0 -10 -4 -55q-4 -37 -2 -59 q-4 -33 2 -78q4 -37 -6 -53q29 -37 53 -47q16 12 46 12q10 0 30.5 -2t28.5 -2q27 0 43 14q6 4 14 4t22.5 -10t22.5 -10q6 0 11 2q14 16 42.5 12t38.5 2q16 -18 39 -18q12 0 37 7t37 7q14 0 27 -6q35 -4 65 -4q31 0 66 4q8 -8 24 -8q6 0 22.5 2t22.5 2q14 0 21.5 -6t15.5 -6 q18 0 51 26q0 4 5.5 14.5t5.5 16.5t-6 12q-6 53 -5 119q7 123 7 129z" />
<glyph unicode="B" horiz-adv-x="1894" d="M1436 106q-14 6 -29 7q-18 0 -52 -15.5t-50 -17.5q-51 -27 -160 -62q-20 -16 -51 -16h-58q-6 6 -12 6q-2 0 -20 -6q-12 -4 -21 4q-12 -18 -45 6q-16 2 -42 -12t-40 -10q-8 25 -35.5 13.5t-38.5 2.5q-61 -8 -84 12q-20 -33 -62 -12t-65 -10l-92 6q-4 -10 -10 -10 q-4 0 -12 5t-13 5l-82 -6q-8 14 -22 12q-14 -4 -27 -6v10q-4 -2 -125 -6q-8 2 -28.5 -4t-28.5 -6q-18 0 -18 29q2 10 10 34.5t8 36.5t-6 25q12 14 8 33q-6 16 -10 32q4 14 2 56q0 35 10 49q-10 12 -10 31q0 8 3 25.5t3 25.5q0 23 -14 37q-4 25 7 65.5t11 56.5q0 23 -12 43 q4 217 6 197q-14 14 -17 44t-18 44q-8 31 -47 86q31 -20 47 -8q20 6 28.5 34.5t16.5 37.5q-10 14 -10 37q0 8 3 28.5t3 30.5q0 20 -10 35q-4 88 -2 100q0 102 -4 127q-12 78 -60 117q31 8 260 92q6 -4 13 -4q8 0 22.5 9t22.5 9q10 0 20 -14q23 16 71 6t71 8q23 -4 45 -8 q29 -4 45 4q10 -14 22 -14q6 0 22.5 9t26.5 9q6 0 13 -4q8 12 35 12q18 -25 55 -22h63q4 2 10.5 13.5t14.5 8.5q4 -14 31 -22q10 -4 20 7t19 9q12 0 31.5 -9t27.5 -9q12 0 24 12q92 -2 281 4l23 21q4 -14 -15 -35l-4 -184q14 -23 4 -74v-254q-4 -14 -35 -72q-23 -45 -22 -73 q0 -29 18 -56q4 -16 33 -63q23 -37 23 -64q0 -20 -13 -41q12 -14 7 -42.5t4 -43.5q-12 -6 -9 -16q8 -18 9 -19q6 -27 -1.5 -62.5t-13.5 -68.5q14 -20 4 -65t11 -62q-4 -16 -5 -32q0 -57 48 -142q18 -8 45 -37zM1128 1004q-4 12 -4 53q0 35 -18 53l8 240q-6 31 -10 61 q-8 39 -37 45q-14 -6 -53 -6t-58 -12l-8 8q-2 2 -26 -8q-10 2 -33 -2t-31 -4q-27 0 -37 28q-18 -4 -51 -26q-8 25 -25 24q2 0 -51 -20q-12 18 -53 18q-33 -14 -94 -10q-78 2 -96 0q-12 8 -29 8q-14 0 -66 -27q-16 -23 -16 -55q0 -20 8 -58t8 -54q-10 -33 -7 -99.5t-9 -99.5 q14 -12 14 -33q0 -10 -5 -30.5t-5 -30.5q0 -20 18 -37q12 -18 27 -19q8 0 28.5 13.5t31.5 13.5q8 0 14 -4q51 0 65 18l13 -18q14 -6 28 -6t43 9t45 9q10 0 19 -2q10 -14 22 -14q6 0 19.5 5t21.5 5q10 0 17 -6q8 10 16 10q4 0 18.5 -8t22.5 -6q10 10 25 10q8 0 28.5 -6 t30.5 -6t21 6q6 -6 14 -6t23.5 5t21.5 5q14 0 24 -12q16 8 50 5t51 3q20 27 26 70zM1346 428h-5l-8 -27zM1122 428q-10 12 -10 31q0 4 8 47q4 29 -6 47v207q0 6 -9 11t-7 13l-23 9q-12 4 -20 -2q-16 -20 -45 -21h-21q-14 2 -22 2q-18 0 -31 -10q-8 20 -30.5 9t-33.5 7 q-12 2 -23 -4t-24 -12q-16 35 -55 14.5t-53 7.5q-68 -20 -129 -16q-8 10 -25 10q-10 0 -30.5 -5t-30.5 -5q-12 -6 -27 -6q-14 0 -46 13t-50 16q-31 -14 -35 -64q20 -41 16 -121q-6 -94 2 -129q-10 -8 -8 -22q4 -14 8 -27q-12 -25 -12 -53q0 -14 4 -50t2 -57q12 -14 15.5 -59 t25.5 -59l56 6q33 4 49 22q23 0 60.5 -5t53.5 -5q33 0 56 12q8 -18 39 -16q47 0 45 0q39 12 30 12q8 0 17.5 -10t21.5 -10t33 11t31 11q14 0 29 -18q25 12 63 12q12 0 106 -12q35 27 31 88q-6 78 2 98q-10 10 -10 23q0 8 7 27.5t5 31.5z" />
<glyph unicode="C" horiz-adv-x="1503" d="M1161 88q-41 -18 -82 -39q-49 -25 -84 -26q-33 -20 -77 -21q-14 0 -43 3t-44 3q-31 0 -53 -10q-14 6 -46 3t-50 9q-27 -4 -55 -6q-31 -4 -47.5 4t-30.5 8t-38 -13t-34 -13q-18 0 -33 30q-18 -23 -43 -22q-12 0 -37.5 6t-37.5 6q-10 0 -19.5 -3t-21.5 -3t-38 3t-38 3 q-33 0 -49 -16q-2 2 -25 2q-10 0 -14 14q2 68 16 197q-2 39 -20 115q12 41 6 118q-6 86 0 121q6 23 6 49q0 23 -5 71t-5 73q0 29 4 51q-18 16 -2 39q8 18 8 43q0 12 -4 49q-4 31 -2 47q4 6 4 14q0 10 -6 27.5t-6 28.5q0 14 14 26q4 10 -2 27.5t-6 23.5q0 10 8 21 q-10 31 -3 89t-3 87q6 12 6 25q0 14 -11.5 44.5t-11.5 49.5q-20 25 -61 37q16 -4 33 -4q39 0 105.5 33.5t101.5 35.5q12 2 34.5 18.5t34.5 16.5q10 0 19 -6q12 -2 30.5 3t26.5 5q14 0 27 -8q4 -4 12 -4q6 0 22.5 6t24.5 6q10 0 19 -6q10 -6 35.5 2t33.5 8q18 0 31 -12 q25 -4 33 12v4q12 -8 57 -2q39 6 53 -14q51 14 146 8q102 -4 147 4q27 -8 66 0l20 17q-2 -8 5 -30t7 -32q0 -12 -8 -20q-37 -4 -57 -31q-61 -20 -182 -53q-10 -4 -21 -4q-14 0 -38.5 9t-37.5 9q-23 0 -39 -22q-16 23 -38 22q-10 0 -36 -9t-40 -9q-12 0 -21 4q-4 -8 -10 -8 q-4 0 -12 8t-13 8q-14 4 -37.5 -4t-31.5 -8q-14 0 -27 12q-16 -10 -33 -10q-14 0 -40.5 11t-40.5 11q-16 0 -29 -12q-37 -20 -45 -55q16 -18 16 -41q0 -10 -7 -35t-7 -37q0 -16 8 -31q-16 -16 -10 -45q4 -35 -2 -51l-4 -133q-2 -35 12 -66l-8 -211q8 -8 6 -23t2 -24 q6 -31 6 -67q0 -33 -6 -96.5t-6 -94.5q0 -39 6 -69q-8 -10 -4 -31q4 -27 4 -35v-82q4 -47 31 -71q74 0 90 22q16 -25 35 -25q6 0 49 17q33 12 57 0q23 -25 35 -14q16 12 43 12q8 0 26.5 -2t28.5 -2q27 0 45 10q23 -29 62 -14q8 14 25.5 3.5t27.5 6.5q10 4 16 -4t13 -10 q55 10 170 10q20 -8 47 16q29 -59 28 -65q0 -13 -6 -23z" />
<glyph unicode="D" horiz-adv-x="1890" d="M1292 1530q-8 -25 -2 -75t-6 -75q6 -45 12 -88q2 -47 -12 -88q27 -63 -4 -98q8 -16 8 -37q0 -12 -3 -34.5t-3 -35.5q0 -14 2 -24q4 -180 6 -359q4 -205 -2 -366q18 -68 0 -137q-12 -6 -74 -23q-45 -12 -65 -37q-8 4 -16 4q-12 0 -34 -18.5t-34 -18.5t-27 23 q-68 -29 -243 -25q-18 4 -39 5q-29 0 -82 -10.5t-80 -12.5q-10 23 -25 23q-6 0 -22.5 -8.5t-24.5 -8.5t-16 6q-8 2 -19.5 -5t-17.5 -7q-8 0 -14 10q-31 -12 -72 -12h-39q-27 2 -41 2q-39 0 -72 -12q-12 12 -30 12q-4 0 -29 -4q-20 -2 -33 0l-30 -27q16 29 18 80v92 q10 37 -8 78q4 20 3 64.5t5 66.5q10 12 10 27q0 14 -13 39.5t-13 38.5q0 12 8 22q0 158 16 219q-16 55 -14 142q6 150 6 141q8 8 0 29q0 92 4 278q-14 16 -14 41q0 8 3 25.5t3 27.5q0 29 -23 50q0 45 -39 65q16 12 79 23.5t87 35.5q39 10 101 50q10 -8 36.5 -3t41.5 -10 q6 2 28 -2q16 -4 25 8q53 -27 96 -2v2q25 -20 29 -20t8 3t16.5 8t20.5 3q10 -16 24 -14h33q6 -8 12 -8t17.5 9t15.5 9q8 0 14 -10q16 4 47 -5t42 -9q14 0 26 6q16 -20 39 -21q8 0 27.5 4t29.5 4q14 0 25.5 -6t24.5 -6q10 0 30.5 6t28.5 6q18 0 27 -24q126 10 200 -2z M1087 758q2 10 -4 20t-12 19q0 119 4 350l8 16q-16 12 -16 37q0 10 4 32.5t5 34t1 25.5q0 18 -9 54t-9 55q0 12 2 24q-14 18 -49 23h-56q-2 -8 -8 -10q-2 0 -9 6t-11 4q-18 -12 -58 -8q-47 4 -61 0q-29 8 -84 8t-78 4q-8 0 -22.5 -7t-20.5 -7q-4 0 -15 10t-24 10 q-10 0 -28.5 -8t-24.5 -10q-10 16 -25 16q-8 0 -25.5 -6t-25.5 -6q-6 0 -12 4q-14 16 -70 8q-31 -14 -30 -39q0 -10 7 -33.5t7 -35.5t-6 -23q12 -53 8 -129q-8 -129 -8 -133q10 -111 8 -123q2 -23 -12 -66q-6 -6 4 -43q-2 -18 -2 -40q0 -33 7 -99.5t7 -97.5q0 -37 -6 -64 q2 -37 -6 -104q-4 -23 6 -66q12 -49 12 -69t-6 -37q2 -31 2 -61q4 -39 29 -56l6 4q2 -2 29 -8q20 16 55 17q8 0 25.5 -2.5t27.5 -2.5q27 0 45 13q6 -18 29 -17q31 0 37 -4q16 18 43 19q10 0 31.5 -3t31.5 -3q12 0 21 2q18 -25 56 -11.5t52 -7.5q14 -2 29.5 6t28.5 17 q10 -18 26 -19q6 0 21.5 4t21.5 4q18 0 27 -22q18 -2 30.5 12.5t22.5 28.5q6 47 2 121q-8 119 -8 118q14 16 14 39q0 12 -4 35t-4 33t4 20q-8 12 -8 29q0 14 9 44t9 44q0 23 -14 41q10 10 9 35t7 35z" />
<glyph unicode="E" horiz-adv-x="1523" d="M1141 66q-31 2 -74 -19q-61 -29 -71.5 -28t-31 -10t-26.5 -13l-174 2q-84 23 -123 -10q0 2 -25 18q-14 12 -24 12q-12 0 -21 -10l-6 -6t-4 -8q-23 23 -31 22q-6 0 -12 -6q-29 -35 -59 -4q-29 4 -78 -10q-4 0 -23 8q-12 6 -22 0q0 -4 -31 -10q-8 20 -31 18q-20 -2 -38 -6 q-6 -8 -15 -2q-10 8 -15 8h-13t-24.5 -4t-23.5 -4q-18 0 -22 27q-8 8 -8 18t9 27.5t9 25.5q0 6 -4 11q2 14 -3 38.5t-5 34.5q0 18 10 33q-4 111 -10 221q-6 131 0 222q-16 20 -10 49q12 45 12 47q0 18 -14 33q-12 43 -25.5 89t-42.5 72q23 -6 48.5 3.5t29.5 31.5q-2 4 -2 66 q0 25 4 92q2 57 2 90q0 147 -45 238l-27 22q16 -4 51 10.5t54 12.5q23 14 151 63q12 14 35 14h39q41 -20 55 -4q139 -4 123 -4q16 14 27 12q6 -6 28 -8q14 0 19 -18q4 -2 10 -2q8 0 23.5 8t21.5 8q10 0 17 -20q8 -4 17 5t15 17q18 -20 39 -20q10 0 34 8t36 8q10 0 18 -2 q16 4 38 -9t32 -13t22 10q8 18 25 18q8 0 23.5 -5t21.5 -5q10 0 16 6q20 -16 43 -12q4 10 17 10q20 0 18 -4t15 -66q-6 -10 -25.5 -12t-26.5 -6q-20 -2 -59 -23.5t-66 -17.5q-16 -23 -47 -22q-16 0 -40.5 5t-30.5 5q-14 -6 -41 0q-33 8 -41 8q-16 0 -31 -12q-6 -4 -14 -4 t-19.5 6t-17.5 6q-10 0 -19 -10q-39 18 -59 2q-6 2 -113 4q-66 2 -106 24q-14 0 -28.5 -11t-26.5 -21q-16 -31 -6 -101.5t-11 -105.5q10 -152 4 -293q33 -20 66 -21q27 0 47 15q35 -6 31 -6q8 14 22 14q8 0 23.5 -6t21.5 -6q14 0 23 14q12 -20 28 -20q8 0 26.5 6t27.5 6 q6 0 12 -2q35 10 51 -2q25 -2 70 8l10 -125q-6 0 -21.5 8t-23.5 8t-16 -8q-8 8 -17 8q-8 0 -23.5 -8t-25.5 -8q-78 -4 -225 6q-8 -18 -23 -18q-6 0 -18 4t-19 4q-14 0 -22 -12q-20 -47 -19 -185l9 -22q0 -305 -2 -219q2 -117 22 -207q16 -12 37 -13q16 0 45 9.5t41 9.5 q16 -20 35 -21q10 0 16 9q18 16 23 14q25 -20 35 -16q4 8 10 8q2 0 10 -8.5t14 -8.5q8 0 24.5 11.5t22.5 11.5q10 0 19 -12q20 10 57 8q80 -2 64 -2q4 -4 39 -8q6 10 12 10q4 0 11 -8.5t11 -8.5q10 0 33 8.5t33 8.5q16 0 27 -17q6 -4 12 -4t17.5 8.5t15.5 10.5q2 -2 22 -10 q14 -6 25 -7q12 0 20 13q8 -20 35 -4q2 4 12 4q31 -45 17 -90z" />
<glyph unicode="F" horiz-adv-x="1382" d="M1100 1569q0 -8 5 -22.5t5 -20.5q0 -12 -12 -19q-8 4 -17 4q-12 0 -35.5 -13t-35.5 -15q-31 -16 -66 -34.5t-72 -14.5q-33 33 -65 14q-6 -12 -23 -8q-25 4 -24 4q-10 -2 -53 0q-35 2 -52 -17q-10 8 -20 9q-8 0 -24.5 -6.5t-24.5 -6.5q-12 0 -21 9q-10 -6 -22 -7 q-14 0 -40 12.5t-38 12.5q-14 0 -27 -12q-20 16 -45 16t-53.5 -15.5t-28.5 -37.5q0 -8 5.5 -26.5t5.5 -26.5q10 -10 10 -23q0 -2 -8 -31q-6 -20 4 -34q2 -61 0 -199q-12 -16 -10.5 -54t-6.5 -55q2 -35 43 -69q16 -2 31 10q25 20 27 20q4 -4 10 -4q4 0 14 4.5t15 4.5 q8 0 16 -13q14 14 27 -2q29 -4 116 -2q74 4 115 -12l45 22q-33 -35 -14 -112q10 -14 10 -19q-12 23 -27 23q-4 0 -10 -4l-2 -4q-33 12 -119 -9q-8 0 -20 -8q-27 14 -96 13q-12 4 -33 -8.5t-29 -12.5q-10 0 -16 4q-39 14 -74 -8q-27 -23 -12 -61q16 -45 12 -134 q-4 -117 -2 -137q-10 -10 12 -24h4v-9q-8 4 -16 -10q-4 -18 4 -51t6 -47q2 -59 25 -174q35 -41 57 -39q-12 -12 -33 -17q-27 -4 -37 -10q-31 2 -88 -27.5t-94 -27.5q-8 -12 -29.5 -23.5t-27.5 -21.5q20 33 20 72q0 18 -6 54t-6 56q0 29 8 53q-12 6 -8 21l8 24q0 -20 -4 99 q0 51 12 100q0 2 -22 94q8 39 -4 187q12 14 12 30q0 -2 -12 54q-14 39 -29 75q-18 45 -49 66v10q33 -25 49 -18q33 14 37 57q0 35 -2 70q-2 147 2 213q-8 8 -8 20q0 4 2 14.5t2 14.5q0 14 -14 20q-2 55 -11 82q-12 43 -45 64q59 2 201 69q53 -8 88 37q18 -29 45 -12 q10 12 21 10l20 -8q10 4 21 4q12 0 30.5 -5t28.5 -5q18 0 33 18q12 4 24 -2q16 -12 17 -12q10 6 24 6q10 0 33 -7t33 -7q23 0 37 28q4 0 18 -8t21 -8q6 0 12 8q51 -23 59 -16q29 12 70 4q6 0 14 -8t15 -8q4 0 8 2l6 8q131 14 104 14q41 0 64 -18z" />
<glyph unicode="G" horiz-adv-x="1826" d="M1436 109q-39 -10 -76 -23q-45 -14 -72 -39q-104 -8 -162 -59q-20 25 -49 24q-14 0 -26 -8q-14 -23 -44 -7.5t-44 -4.5q-10 10 -25 10q-8 0 -25.5 -7t-25.5 -7q-14 0 -27 16q-12 2 -31.5 -8t-27.5 -10q-10 0 -21 10q-61 6 -188 0q-16 8 -37 8q-16 0 -50 -8t-52 -8 q-8 0 -21.5 7t-17.5 7q-8 0 -17 -10q-23 12 -71 12q-72 0 -68 0q-4 -12 -10 -12q-2 0 -12.5 9t-16.5 7q-10 -4 -44 -3t-44 -17h-6q2 6 -2 39q-4 20 14 34q-14 14 -14 37q0 12 6 36t6 34t-4 18q6 12 6 39q0 25 -6 39q-4 47 10 135q-18 35 -18 80q0 12 4 62q4 39 0 65 q-2 31 4 109q4 66 -6 108q10 29 6 90q-6 72 -4 95q-18 18 -5 48.5t-7 47.5q16 20 13 64t3 61q6 127 -29 209q-12 14 -43 47q8 6 37 9t35 22q35 6 145 45q86 31 144 30q29 0 57 -8q10 4 23 4q12 0 38.5 -6t39.5 -6q29 0 45 22q41 -14 143 -20q4 -2 10 -2t19.5 5t19.5 5 q10 0 19 -12q12 -4 26 -4q16 0 46 8t44 8q18 0 35 -12q20 12 56 6t53 2q23 2 65 -18q23 16 66 20t59 10q29 -18 45 -8q0 -10 11.5 -30.5t11.5 -32.5q0 -8 -6 -19q-12 0 -37 -14t-41 -12q-45 -16 -131 -60q4 0 -47 -2q-33 0 -48 15q-14 -4 -49 -3.5t-51 -5.5q-10 2 -29 4 q-10 -14 -32 -14h-37q-16 31 -47 14q-4 -10 -17 -10q-25 0 -18 2q-6 10 -19 10q-18 2 -20 7q-12 -14 -31 -15q-8 0 -41 11q-25 6 -39 0q-53 27 -120 -11q-10 2 -32 14.5t-34 12.5q-14 0 -27 -14q-16 6 -37 -13q-29 -25 -14 -55q10 -16 10 -47q0 -37 4 -49q8 -55 5 -131 q-10 -121 -11 -138q0 -12 5.5 -34.5t5.5 -34.5q0 -20 -13 -39q-4 -35 13 -66q2 -14 2 -32q0 -29 -8.5 -92.5t-6.5 -90.5q10 -16 7 -50t10 -50q-23 -10 -23 -35q0 -8 5 -31.5t3 -35.5q12 -29 9 -66q-4 -47 -3 -63q-6 -12 -6 -23q0 -12 11.5 -40t7.5 -46q16 -29 55 -23 q37 20 62 13q10 -14 22 -15q8 0 25.5 9.5t27.5 9.5t19 -8q14 -2 42.5 3t41.5 5q27 0 43 -12q23 -4 43 12q14 4 39 -4l39 -13q37 4 104 27q4 -14 14 -14q2 0 21 4q12 4 20 0q31 -31 78 -17q35 12 62 35q10 10 10 25q0 10 -8.5 29.5t-8.5 27.5q0 12 7 21q-8 25 -3 79t-6 82 q2 68 6 138q4 80 -4 131q-4 4 -22 41q-14 27 -37 32q-10 2 -30.5 -6t-28.5 -8q-16 0 -27 19q-96 -20 -186 16q-68 -14 -86 -4q-8 -6 -19 -6q-8 0 -23.5 7t-23.5 7q-10 0 -20 -12q-33 2 -33 41v24q2 14 2 23q0 20 -6 33q8 6 18 6q8 0 24.5 -5t24.5 -5q14 0 25 14 q57 -14 137 -12q68 4 135 8q10 -2 35 -14.5t35 -12.5q16 0 27 17q12 4 30 0q25 -4 31 -5q16 0 29 15q4 -2 24 -15q14 -10 23 -10q10 0 18 6q20 16 49 17q10 0 31 -2t31 -2q25 0 45 10q6 -14 6 -31q0 -8 -6 -43q-4 -29 0 -45q0 -27 -8 -80q-2 -80 12 -235q0 -37 -6 -105.5 t-6 -99.5q0 -106 59 -166q8 0 14 -6z" />
<glyph unicode="H" horiz-adv-x="1812" d="M1331 78q-10 0 -30.5 -11.5t-32.5 -11.5q-6 0 -13 2q-29 -4 -77 -32q-25 6 -59 -21t-54 -24l-21 -17q14 106 13 277q-2 238 0 276q-8 31 -2 98q4 76 2 99q-2 8 3 26.5t5 26.5q0 18 -12 27q-10 18 -25 18q-6 0 -19.5 -4t-19.5 -4t-12 2q-20 -14 -43 -14q-12 0 -34.5 5 t-33.5 5q-23 0 -39 -17q-27 -4 -67.5 4.5t-57.5 8.5q-16 -18 -45 -19q-51 0 -47 2q-16 18 -37 4q-47 -16 -71 -16q-23 0 -41 12q-12 -10 -33 -10q-8 0 -24.5 2t-24.5 2q-37 0 -49 -37q14 -47 14 -131q-2 -100 2 -135l-8 -12q4 -41 0 -97q-4 -74 -4 -88q0 -53 12 -94 q-4 -20 7.5 -37.5t23.5 -33.5q14 -8 33 -31q-41 -8 -84 -20.5t-72 -37.5q-84 -6 -139 -61h-11q14 27 16.5 83t8.5 79q-6 33 -2 110q6 76 0 111q-8 10 -4 33q4 18 6 37q-8 25 -2 67q8 63 8 70q4 18 4 41q0 25 -8 78t-8 80q0 20 4 36q-18 45 -70 129v17q12 -10 43 -12 q23 8 31 34q4 20 8 41q-12 31 -10 95.5t-8 95.5q16 16 16 43q0 10 -10 65q-8 41 2 58q-2 37 -25 108l-18 33q-10 20 -31 14q0 14 22.5 15.5t26.5 9.5q16 12 66 29q41 12 61 32q92 4 125 51q-2 -104 -6 -309q-2 -6 -9 -16t-7 -17q0 -6 4 -12q4 -14 -8 -170q14 -47 8 -188 q25 -33 41 -33q10 0 18 12l4 4q14 -16 50 -4q4 8 10 2q8 -8 10 -6q35 18 104.5 8t102.5 5q4 -12 16 -11q12 2 22.5 8.5t18.5 6.5t27.5 -11.5t30.5 -11.5q14 0 24 14q20 4 55 -16q37 2 48 4q25 4 41 21q23 -29 47 -29q10 0 18 4q43 37 43 70q-16 33 -13 101.5t-9 98.5 q6 25 6 84v2q0 57 4 80q-4 59 -8 84q-10 45 -35 80q-27 20 -25 29q10 -2 21 -2q27 0 72.5 25.5t66.5 31.5q59 8 125 57q-6 -66 0 -196q-8 -82 -8 -420q-20 -78 2 -125q4 -16 -7.5 -45t-11.5 -41t6 -23q-6 -8 -6 -18q0 -8 7.5 -24.5t9.5 -22.5q2 -84 -11 -502q6 -20 19 -63 q-4 -39 37 -70q2 0 20 -10z" />
<glyph unicode="I" horiz-adv-x="925" d="M397 70q-131 -25 -282 -121l16 20q6 39 2 99q-6 47 -10 92q10 14 9 37.5t3 33.5q-12 16 -8 45q6 39 6 52q6 20 0 63q-4 39 6 60q-8 6 -8 18q0 4 2 14.5t2 14.5q0 12 -8 18q0 162 -4 467q23 35 -8 86q-4 10 -4 21q0 12 5 34.5t5 34.5t-6 25q2 27 16 86q-10 20 -22 119 q-10 74 -62 106q18 18 64 35q61 25 73 31q39 16 81 33.5t69 43.5q0 -12 -8 -65q-8 -41 -4 -70q-4 -10 -5 -22q0 -10 4.5 -27.5t4.5 -28.5q0 -10 -4 -20q-6 -33 -7 -72q0 -41 8.5 -123t8.5 -125q0 -49 -8 -90q0 -94 16 -247q-16 -20 -16 -46q0 -12 7 -38.5t7 -40.5 q0 -12 -4 -23q2 -102 -6 -151q10 -41 8 -138q-2 -88 14 -135q6 -37 12 -51q10 -29 35 -43v-12z" />
<glyph unicode="J" horiz-adv-x="948" d="M424 -106q-31 -8 -86 -33q-39 -6 -92 -27q-45 -18 -88 -35l-23 -18q-14 -10 -24 -10q-8 0 -15 6q-10 0 -28 4q-16 -10 -48 -4q-45 8 -47 8q-63 33 -65 33q-6 0 -10 -2q-6 0 -14.5 9t-12.5 9q-37 12 -113 33q14 12 21.5 36.5t13.5 47.5q43 -29 72 -10q14 4 22 -7 q115 20 154 -10q25 8 52.5 16.5t37.5 32.5q-12 199 4 293q-12 16 -3 55t-11 56q16 193 0 293q8 10 2 41.5t12 44.5q-25 102 6 170q-20 256 -10 360q6 14 6 31q0 18 -12 63q-10 39 -6 64q-18 27 -56 80q111 16 207 86q20 2 53 16t46 16q-10 -16 -11 -53v-57q-4 -20 -16 -39 q10 -45 8 -109q-4 -55 -8 -112q8 -20 2 -70.5t6 -77.5q2 -29 -8 -86v-166q12 -31 12 -71q0 -16 -6 -86q-6 -53 -2 -90q-6 -43 -5 -134.5t-7 -138.5q12 -18 8 -53q-2 -43 0 -55q-8 -25 -2 -62q4 -47 2 -65q4 -76 8 -101q8 -55 29 -98q4 -10 21.5 -14t23.5 -10z" />
<glyph unicode="K" horiz-adv-x="1564" d="M1403 -256q-14 4 -43 -4t-43 -8q-12 0 -23 4q-33 39 -110 117q-72 72 -105 118q-20 20 -45 68q-49 70 -162 197q-16 14 -43.5 65t-56.5 70q-25 39 -72 121q-45 53 -211 294q-31 61 -63 72q-8 2 -16 2q-18 0 -66 -53q-14 -12 -14 -31q0 -8 5 -28.5t5 -28.5q4 -61 4 -180 q12 -12 4 -35q-12 -29 -12 -35q0 -12 14 -23q4 -25 -2 -69q-8 -55 -8 -76q0 -45 22 -76q0 -78 19 -108q20 -8 55 -39q-18 -18 -70.5 -17.5t-70.5 -27.5q-6 4 -14 -2q-14 -8 -17 -8q-43 -12 -121 -60q-10 -10 -30 -26q20 25 20 65v27q-2 16 -2 24q0 33 12 56q4 23 -12 38 q-4 6 -4 13q0 10 10 30.5t10 30.5q0 14 -14 29q-14 180 6 647q-25 20 -9.5 60t-4.5 61q-2 98 4 280q-16 12 -6 38t-4 38q2 51 -47 131q6 4 80 33q68 27 116 72q16 -6 40 13t32 19q6 0 12 -4q-8 -10 -9 -34.5t-5 -30.5q-4 -12 -4 -29q0 -14 6 -60t6 -79q0 -31 -4 -57 q-8 -16 -8 -37q0 -6 6 -49q2 -31 -2 -51.5t-6 -219.5q27 -31 57 -18q47 57 111.5 115.5t87.5 87.5q41 45 133 131q43 51 151 155q102 100 146 156q45 -51 127 -86q6 10 22 4q-27 -12 -75 -47q-41 -43 -80 -86q-47 -49 -86 -70.5t-88 -79.5q-55 -66 -82 -84q-12 -6 -38 -33.5 t-46 -31.5l-25 -41q12 -53 86 -207q-6 -20 14.5 -48t18.5 -48q18 -16 36.5 -65.5t41.5 -67.5q6 -31 38.5 -70t43.5 -61q4 -14 37 -58q27 -33 26 -61q16 -18 39 -82q23 -53 51 -78q39 -76 49 -92q31 -51 64 -86q6 -20 25.5 -52t25.5 -48q31 -41 80 -132q29 -16 80 -63z" />
<glyph unicode="L" horiz-adv-x="1236" d="M987 84q0 -16 -22 -21q-33 -4 -39 -8q-20 -12 -66.5 -26.5t-73.5 -40.5q-8 14 -30 14q-37 -2 -39 -2q-29 -18 -39 -6q2 0 -47 0q-25 -2 -41 16q-16 -20 -58 -14q-45 8 -59 0q-14 -2 -22 6q-45 -4 -146 4q-14 -10 -39 -10h-39q-14 31 -53 12l-12 -8t-23 -6l-12 12 q-6 76 4 232q-2 381 4 487q-6 20 -2 61q4 43 0 62q4 8 4 20q0 10 -8 54q-4 35 0 57q-14 176 -8 364q4 10 4 21q0 18 -10 49q-16 43 -17 45q0 16 -22.5 32.5t-22.5 25.5q0 4 4 8q47 2 115 32q82 37 115 46q23 16 73 40q-27 -20 -24 -69q0 -59 -8 -76q-6 -29 -6 -61 q0 -37 13 -111t13 -111t-10 -69l4 -203q-8 -8 -8 -18q0 -6 7 -21.5t7 -21.5q2 -104 -16 -144q16 -31 16 -78v-79q-16 -12 -2 -45q4 -12 0 -56q-2 -37 14 -57q-6 -43 -10 -86q-4 -49 12 -84q-14 -25 -2 -70q12 -27 39 -30q8 0 54 4q20 4 55 22q12 0 35.5 -14t34.5 -14 q16 0 26 18q4 2 8 2q6 0 16.5 -12.5t16.5 -14.5q14 8 60 2q39 -6 53 17q10 4 26 -12q57 14 189 8q10 -12 7 -38t7 -36z" />
<glyph unicode="M" d="M1761 68q-37 -4 -102 -29q-76 -29 -103 -35q-6 -2 -79 -39l-27 -12q-2 18 2 90q6 63 -6 92q10 315 8 352q20 10 4 37q-4 2 -4 11q0 8 5 29.5t5 31.5q0 18 -14 25q6 27 5 79t3 78q-18 31 8 74l2 55q0 31 -18 54v141q10 6 6 18q-6 20 -6 21q2 76 4 153q-2 92 -33 144 q-43 4 -114 -8q-6 -12 -15 -13q-4 0 -15 9.5t-17 9.5q-8 0 -15 -15q-39 8 -106 9q-78 0 -107 4q-23 -10 -24 -39v-45q10 -27 10 -60q0 -14 -3 -41.5t-3 -40.5q0 -41 18 -71q0 -16 -7 -50t-7 -49q0 -16 4 -28q2 -23 -2 -60q-6 -45 -6 -59q0 -33 14 -57q-18 -39 -12 -138 q6 -111 -2 -147q-10 -190 -4 -264q0 -2 5 -10.5t3 -14.5q-10 -8 -10 -18q0 -6 6 -21.5t4 -23.5q-2 -59 35 -99q4 -8 26 -18q16 -6 17 -21q-14 6 -29 7q-20 0 -57 -16.5t-52 -20.5q-25 -20 -90 -38t-92 -42q-4 29 4 83t4 79q-4 33 2.5 86t1.5 84q20 66 -4 106q10 80 -8 100 l12 316q-10 12 -4 37.5t-4 36.5q8 76 4 133q10 10 4 34.5t9 34.5q2 39 -21 113q18 27 8 55l-8 25q6 10 0 35q-4 25 4 36q-2 4 -10 58q-4 33 -37 41l-72 2q-43 0 -65 -23q-37 2 -121 13q-18 8 -37 4q-29 -8 -33 -8q-12 0 -24 8q-29 -10 -31 -37t-4 -51q20 -10 4 -35 q-8 -8 0 -51q-4 -98 8 -291q-18 -45 -8 -109q-2 -121 4 -319q-23 -20 -7.5 -62.5t-4.5 -62.5q6 -33 6 -68q0 -33 -6 -67q-12 -6 -6 -17q6 -14 6 -18q4 -29 8 -58.5t21 -50.5q0 -16 12 -26.5t22 -22.5q16 0 21 -14v-6q-2 -2 -90 -27q-55 -14 -84 -41q-12 -2 -39 -15.5 t-45 -11.5q-23 -14 -70 -36q27 14 27 30q4 70 -8 219q16 12 10 40t2 38q-8 29 0 101q-6 49 0 139q4 121 4 151q0 63 -8 111q14 10 -4 39q-4 8 -4 18q0 12 6 35t6 35q0 18 -8 35q18 16 9 52t5 50q-14 14 -5 49t-5 54q-2 6 -2 12t4 20.5t4 22.5q0 14 -10 25q8 70 0 86 q8 4 8 16q0 29 0 22q-6 39 -43 107q-4 6 -37 20q6 6 28.5 9.5t30.5 15.5l123 39q80 27 131 63q23 -18 67 -8t62 -4q6 -2 15 -2q6 0 19.5 4t19.5 4q12 0 22 -10q63 16 78 8q8 -18 21 -18q8 0 25.5 9t23.5 9h116l13 -8q20 -6 55 0q41 8 51 8q27 0 47 -12q6 -6 35 8q8 6 35 2 t37 -2q45 2 137 -4q2 0 11.5 8t15.5 8q4 0 10 -4q12 -18 55 -8q10 10 41 6q33 -6 43 -2q37 -2 113 4q8 -12 24 -8q20 6 27 4q10 4 41 0q33 -4 43 4q27 2 35 -16q0 -12 -9.5 -44t-9.5 -48q0 -23 13 -41q-12 -10 -13 -27q0 -8 5.5 -26.5t3.5 -26.5q6 -43 0 -113 q-8 -88 -9 -112q0 -51 13 -90q-18 -45 -6 -166q-8 -6 -9 -17q0 -6 6.5 -20.5t4.5 -22.5q0 -49 -9 -145q8 -18 9 -51q0 -14 -2.5 -46t-2.5 -47q0 -33 9 -51q-16 -39 -15 -98q4 -49 9 -98q-16 -51 14 -166q6 -16 30.5 -28.5t30.5 -22.5z" />
<glyph unicode="N" horiz-adv-x="1832" d="M1298 70q-14 0 -34.5 -14.5t-32.5 -14.5q-8 0 -19 6q-27 -18 -100 -45q-66 -25 -94 -49q-6 14 -6 29q0 14 5 42.5t5 45.5q0 12 -2 24q-4 23 2 66q8 55 8 69q0 33 -12 58q14 25 14 61q0 6 -12 90q-6 55 8 90q4 70 -10 205q18 14 18 35q0 4 -12 45q-8 29 4 49q-8 23 -3 70 t-7 76q10 111 12 188q-10 10 -10 23q0 8 6 26.5t6 28.5q0 12 -8 24q2 35 -8 97q-47 55 -86 43q-6 2 -18.5 -9.5t-16.5 -11.5q-8 0 -14 15q-8 4 -21 4q-14 0 -41.5 -9.5t-40.5 -9.5q-25 0 -41 21q-12 6 -32.5 -4.5t-26.5 -10.5q-12 0 -23 21q-16 -23 -46.5 -7.5t-47.5 -4.5 q-33 -12 -76 0q-10 -4 -24 -5q-12 0 -39 6.5t-39 6.5q-33 0 -49 -39q10 -55 9 -172t9 -176q-8 -31 -7 -96.5t-11 -98.5q10 -14 4 -44t1 -45t7 -34q0 -20 -11 -68.5t-9 -74.5q12 -6 16 -25q4 -29 6 -30q-14 -14 -12 -56q2 -55 1 -58t-1 -153q-2 -90 26 -149q35 -43 52 -39 q2 -6 14 -19q-8 4 -16 5q-10 0 -35 -11.5t-39 -11.5q-6 0 -14 2q-33 -12 -35 -14q-18 -8 -29 -25q-18 4 -44 -15.5t-38 -19.5q-8 0 -16 4l-47 -28q0 92 16 264q4 14 -7 42t-11 42q0 12 6 22q-2 133 8 402q-12 45 0 137q0 -12 4 82q2 49 -14 76q10 14 10 31q0 6 -3 20t-3 23 q0 14 8 28q0 8 2 88q2 49 -14 82q12 23 8 55q-8 57 -8 58q0 16 -51 63l-25 -4q18 18 67.5 28.5t67.5 31.5q20 0 54 13t53 11q72 47 123 47q14 0 26 -4q12 -18 25 -18q10 0 27.5 12t27.5 12t20 -12q12 0 37 -4t37 -4q33 0 56 24q31 -20 40 -4q12 -6 27 -6q10 0 29.5 5t29.5 5 q20 0 35 -22q37 14 119 6q6 8 12 8q4 0 15.5 -10t19.5 -6q45 20 84 20q35 0 62 -18q14 10 56 7t58 15q8 -12 6 -30q-6 -33 -6 -35q-12 -33 -12 -76q0 -23 5 -69t5 -68q0 -31 -6 -55q12 -20 12 -47q0 -18 -8 -54.5t-8 -54.5q0 -23 8 -41l-4 -158q-6 -8 -2 -28.5t-2 -32.5 q-6 -63 0 -186q-8 -12 -8 -29q0 -8 3 -26.5t3 -28.5t-2 -19q-4 -16 8 -47q-8 -29 -2 -99.5t-4 -99.5q4 -12 4 -24q0 -16 -9 -45t-9 -43q0 -25 22 -43q6 -49 25 -74q14 -2 30 -14z" />
<glyph unicode="O" horiz-adv-x="1863" d="M1362 104q-43 -12 -59 -12q-47 -27 -74 -22q-18 -20 -65.5 -32.5t-65.5 -27.5q-37 -6 -76 -6t-78 6q-49 -4 -145 -18q-37 16 -56 16q-20 0 -36 -12q-27 0 -55.5 2t-51.5 16q-43 -25 -59 2q-14 4 -31.5 -6t-24.5 -10q-10 0 -20 10q-20 -10 -45 -10q-10 0 -29.5 2t-30.5 2 q-27 0 -49 -12q-6 2 -29.5 16.5t-37.5 14.5t-29 -13h-47q-31 0 -45 -14q-6 16 -2 49q4 27 8 54.5t4 60.5q0 31 -6 87t-6 83q0 20 2 39q-14 14 -4 41.5t-4 42.5q10 270 8 292q-8 8 -8 15q0 6 8 17t10 18q-12 70 -8 186q6 137 2 186q0 16 3 62.5t3 70.5q0 72 -22 109 q4 29 -50 61q31 -6 78 27t74 33q10 0 20 -2q31 35 101 51q23 23 57 16q39 -25 74 0q23 -27 63 -12q4 2 16.5 10.5t20.5 8.5q6 0 15 -7q35 -29 65 0q20 -25 65.5 -13.5t61.5 -2.5q4 -2 8 -2q6 0 17.5 9t19.5 9q6 0 12 -6q18 -10 37 -10q16 0 45 8t45 8t31 -6q25 2 68 -2 q53 -4 69 -4q35 0 62 10q47 -14 65 -14q25 0 39 14q6 0 21 2v-47q-2 -31 -17 -47q-4 -14 4 -31q12 -27 13 -28q-6 -92 -8 -215v-279q0 -82 -5 -145q-12 -10 -4 -27q10 -23 11 -24q0 -10 -15 -19q2 -47 -4 -145q-4 -16 8 -29q4 -76 -4 -88v-201q9 -113 72 -166zM1079 1110 q-8 6 -8 16q0 6 2 15.5t2 13.5q0 10 -8 16q12 129 -10 224q-2 27 -47 30q-18 -12 -43 -12q-10 0 -39 4t-45 4q-37 -23 -58 4q-100 -18 -131 -8q-10 -6 -20 -6q-8 0 -27.5 8t-32.5 6q-20 -12 -51 -6q-27 4 -53 11q-4 -10 -18 -9h-23q-12 18 -27 19q-4 0 -36 -17 q-23 -10 -41 7q-37 -12 -35 -44q12 -74 12 -167q0 -49 -4 -156q-4 -98 -4 -150q-4 -25 -4 -65v0q0 -41 -4 -64q0 -6 8 -23.5t8 -25.5q0 -12 -12 -20q-4 -10 -4 -23q0 -12 7 -36.5t5 -37.5q-8 -43 -2 -131t1 -132t-9 -89q0 -53 15 -79.5t65 -22.5q63 6 79 0q6 -2 17.5 7 t17.5 9q8 0 13 -12q84 -6 256 -4q10 4 30.5 -3t30.5 -7q10 20 27 20q8 0 25.5 -7t27.5 -7q6 0 12 4q10 12 23 12q10 0 31.5 -13t33.5 -9q25 12 35 34q4 55 4 334q0 422 8 588z" />
<glyph unicode="P" horiz-adv-x="1460" d="M1141 1573q0 4 0 -86q0 -53 -19 -80q-37 -248 -204 -449q-10 -16 -39 -39.5t-37 -35.5q-23 -27 -85.5 -57.5t-86.5 -63.5q-8 4 -17 4q-12 0 -39.5 -16.5t-46.5 -10.5q-33 -10 -94 -43q-35 18 -76 -4q-57 4 -59 -30q-4 -82 2 -228q4 -137 -2 -225q12 -8 7 -26.5t1 -26.5 q23 -41 25 -43q16 -25 37 -31q-29 -2 -87.5 -25.5t-89.5 -27.5q-37 -14 -104 -66q-10 12 -10 29q0 6 10 45q4 29 -4 45q8 12 8 27q0 12 -8 26q-2 16 4 49t6 45q0 14 -6 27q10 10 10 27q0 8 -6 29.5t-6 31.5q0 12 6 23q14 31 -18 65q20 322 10 522q12 51 12 119 q0 35 -5 108.5t-5 110.5q0 33 2 62q-10 31 -21 61q-16 35 -40 53q29 6 77 35q16 8 84 23q51 12 76 37q23 12 53.5 16t59.5 6q37 -14 133 6q10 -29 43 -22q16 23 43 22q10 0 32.5 -5t32.5 -5q12 0 23 4q37 14 53 -6l80 2q6 -18 33 -2q29 16 137 6q14 -4 59 0q40 4 56 -12z M852 1300q-4 16 4 45t8 37q0 39 -43 39q-8 0 -21.5 -6t-19.5 -6t-12 6q-45 4 -129 -6q-18 16 -45 16q-14 0 -43 -5t-43 -5q-29 0 -47 12q-10 -12 -25 -12q-6 0 -21.5 5t-23.5 5q-10 0 -18 -6q-16 -25 -17 -57q0 -16 4.5 -48t4.5 -48q0 -20 -5 -39q-2 -47 2 -142 q-18 -90 -8 -139q-18 -45 -8 -100q18 -37 74 -19q27 23 67.5 39.5t79.5 32.5q12 10 101 64q63 39 82 84q27 33 49 90q16 47 35 94q2 24 18 69z" />
<glyph unicode="Q" horiz-adv-x="1826" d="M1362 117q-6 4 -12 4t-22.5 -9.5t-27.5 -9.5q-6 0 -12 4q-12 -14 -44 -23t-42 -20q-53 -20 -162 -71q-16 16 -47 16q-53 0 -49 0q-10 -12 -20 -12q-6 0 -33 24q-23 -2 -45.5 -5t-30.5 -23.5t-8 -42.5q0 -18 9 -61.5t7 -71.5q14 -53 64 -95q-29 4 -79 -24.5t-78 -30.5 t-60 -26q-45 -35 -58 -41q18 12 21 36v43q6 23 6 50q0 18 -4 54t-4 54q0 35 10 66q-4 10 0 55q4 35 -23 49q-8 10 -24 6q-20 -4 -25 -4q-8 -6 -19 -13t-24 -3q-6 2 -13 14t-15 12q-6 0 -13 -2q-37 -23 -53 -22q-10 0 -18 6q-96 6 -129 -12q-14 23 -43 22q2 0 -78 -20 q-8 -6 -14 -6q-14 0 -21 26q0 29 2 96q2 59 2 93q-2 51 -10 94q0 14 4 110q4 66 0 117q-10 14 0 27q8 160 -8 231q0 16 8 42t8 38q0 20 -14 39q-4 33 0 84q4 68 6 82q-14 59 -14 74q0 25 12 41q-2 47 -2 99t-14 89q-12 55 -56 102q37 14 109 43q6 -2 12 -2q12 0 35.5 21.5 t44.5 17.5q12 18 54 21.5t54 29.5q12 4 17.5 -7t13.5 -11q33 6 96 -8q14 16 64 8v-6q8 -4 18 -4q12 0 36 12t34 12q14 0 25 -12q59 -18 77 8q4 0 12.5 -6t10.5 -6q6 0 8 6q43 2 98 -2q76 -4 101 -4q8 -8 18 -8q8 0 25.5 10t25.5 10q14 0 23 -16q49 -12 74 16q8 -10 18 -4 q14 6 17 6q4 0 8 -8q14 20 32 8q27 -16 29 -16q10 0 19 18q10 -18 10 -49q0 -6 -6 -82q-6 -47 4 -73q-8 -8 -8 -19q0 -6 5 -18.5t5 -18.5q0 -8 -4 -14q0 -18 -4 -46t-4 -42q0 -29 14 -53q-16 -35 -17 -72q0 -20 7.5 -62t7.5 -65q0 -27 -6 -51q2 -12 2 -27q0 -12 -2 -36.5 t-2 -37.5q0 -33 14 -57q-14 -14 -5 -47t-3 -49q2 -20 2 -43q0 -27 -5 -78t-5 -76t2 -45q10 -18 10 -39q0 -14 -6 -41.5t-6 -44.5q0 -16 6 -33q2 -94 49 -122q8 -25 22.5 -27t22.5 -10zM1061 223q-12 16 -12 41q0 12 4 36t4 34q-10 10 -10 24q0 8 5 26.5t3 27.5q-4 59 2 137 q2 47 -13 135q18 90 7 131q18 25 -4 45q2 139 -3 395q4 80 -24 140q-12 23 -39 22q-14 0 -41 -7t-35 -7q-10 -8 -26 -4q-12 2 -24.5 8t-29.5 6q-12 0 -35.5 -5t-33.5 -5q-14 0 -24.5 9t-22.5 9q-4 0 -31 -10q-20 -8 -35 0q-25 -4 -98 0q-63 4 -96 -8q-68 29 -82 24 q-35 -14 -35 -47q0 -14 7 -39.5t7 -35.5q8 -203 -8 -385q10 -27 2 -50q-4 -96 2 -295q4 -197 0 -292q-10 -33 3 -80t48 -47q68 0 56 2q16 14 38 14q12 0 36 -5t34 -5q25 0 40 16.5t51 28.5t50 29q14 -10 21 4q25 0 58.5 27.5t49.5 31.5l11 -8q-10 -18 -13 -49q-2 -45 -4 -54 q6 -12 31 -24q12 8 53 9t58 11q8 -20 32 -18q20 2 41 4q13 8 25 53z" />
<glyph unicode="R" horiz-adv-x="1804" d="M1608 -211q-10 -8 -27 -8q-6 0 -21.5 2t-23.5 2q-25 0 -37 -18q-49 57 -162 153q-31 33 -71 94q-49 74 -72 101q-27 8 -48.5 49t-49.5 47q-25 45 -97 135q-68 82 -94 133q-51 51 -112 131q-102 135 -107 142q0 20 -24 34q-14 4 -27 5q-25 0 -65 -32t-64 -36 q-14 -8 -41 -29q-6 4 -14 4q-6 0 -20.5 -6t-22.5 -6q-6 0 -13 2q-43 -12 -37 -59q8 -61 0 -74q-2 -229 9 -369q16 -76 86 -110q-35 -8 -72 -15.5t-59 -29.5q-6 2 -13 2q-18 0 -37.5 -13.5t-38.5 -23.5q-33 4 -110 -45q0 180 4 328q10 63 0 147q0 70 10 209q-18 45 -10 213 q-14 12 -4 42t-8 42q16 14 16 29q0 8 -12 36q-8 20 0 37q2 10 -2 60q-4 39 10 61q6 12 -5 39t-11 37q0 18 16 31q-6 29 -14 55q-8 35 -4 59q-12 27 -26.5 55.5t-43.5 30.5q6 -4 12 -4q8 0 25.5 9.5t25.5 9.5q6 0 13 -2q49 31 155 69q29 14 88 33q12 8 31 6q25 -2 31 0h170 q4 4 24.5 -1t28.5 1q6 2 12 2q10 0 30 -6t30 -6q14 0 26 10q0 -2 41 -6q20 12 52 12q12 0 39.5 -3t41.5 -3q16 0 29 2q16 -14 58 -4t59 -4q27 14 61 14q12 0 36 -3t34 -3q29 0 51 10q23 -14 23 -47q0 -8 -2 -30.5t-2 -32.5q-8 -29 -35 -72q-29 -49 -37 -67q-37 -57 -57 -111 q-29 -18 -53.5 -69.5t-53.5 -67.5q-31 -51 -59 -68q-6 -16 -48 -44t-42 -50q0 -16 20 -35q10 -51 76 -141q6 -39 45 -96q43 -63 53 -97q31 -39 74 -127q35 -25 59 -75q37 -84 39 -86q14 -39 72 -103q2 -20 30.5 -48t30.5 -50q55 -80 99 -133q8 -39 55 -80q66 -60 78 -76z M940 1409l-31 35q-47 -23 -108 -23q-18 0 -80 4q-49 4 -82 2q-74 -18 -250 0q-37 -18 -37 -59q0 -14 8.5 -48t6.5 -48q-8 -82 6 -105q-14 -23 -5 -69.5t-6 -71.5q0 -82 -8 -182q20 -41 43 -45q37 20 104.5 70.5t102.5 72.5q12 27 61.5 51.5t61.5 55.5q98 78 125 168 q27 47 53 92q31 55 35 100z" />
<glyph unicode="S" horiz-adv-x="1617" d="M1210 104v-8q-10 -4 -23 3t-18 7q-6 0 -12 -4q-29 -23 -94.5 -41t-91.5 -41q-20 2 -64 -30q-37 0 -104 8q-96 0 -293 8q-8 -8 -27.5 -7t-29.5 -7q-31 2 -101 18q-18 -14 -59 -13t-60 -11q-23 18 -53 22q-20 4 -57 0q-51 -2 -62 -2q-12 -14 -34 -10q-27 6 -33 2 q-6 27 -6 80q16 -6 36.5 12.5t36.5 11.5q59 33 115 39q4 6 23 17q16 -8 34 -8q14 0 41 8t41 8q20 0 41 -14q94 16 131 -2q45 27 80 8q8 -6 17 -6q8 0 25.5 8t25.5 8q47 -2 141 -21q10 8 25 9q8 0 34.5 -7.5t43.5 -3.5q39 41 39 56q0 8 -7 16q-12 10 -12 19q0 8 10.5 22 t10.5 23q0 8 -7 16q2 4 2 10q0 8 -5 21.5t-5 21.5q0 12 13 23q-6 20 0 71q6 47 -11 70q-4 31 -4 64q0 27 4 75.5t4 75.5q0 33 -4 64q-6 23 -49 10q-8 -12 -22 -12q-4 0 -23 4q-14 4 -22 0l-9 10q-37 -23 -43 -23q-8 0 -16 9l-148 2q-16 -18 -57 -17q-49 4 -61.5 -2t-26.5 -6 q-12 0 -38.5 6t-39.5 6q-27 0 -43 -20q-117 12 -168 -4q-10 -4 -16 -4q-18 0 -28.5 32.5t-20.5 38.5q4 14 -8.5 31.5t-14.5 24.5q-4 150 0 438q-14 106 -61 147h-12q8 23 27.5 26t42 4t34.5 15q18 4 56 24.5t63 20.5q10 0 20 -2q29 27 109 43q18 -8 65 -3t66 -7q16 2 41 0 q31 -4 39 -4q35 0 59 25l221 -19q43 14 135 2q16 8 31 8q12 0 40 -9t46 -7q6 10 17 10q4 0 12 -2t12 -2q10 0 17 8q18 -2 22 -24q2 -33 8 -39q-14 -29 -65 -43t-66 -31q-23 -4 -46 -10t-36 -23l-102 7q-16 -20 -33 -5l-10 11q-20 -4 -49 -4q-23 0 -65 3t-62 3q-51 0 -84 -17 q-12 0 -41 4.5t-43 4.5q-37 0 -55 -23q-8 20 -25 23h-35q-14 2 -20 14q-14 0 -28.5 -10.5t-27.5 -20.5q-16 -41 9 -67q-4 -78 -5 -230q14 -8 15 -18q0 -6 -10 -27q-6 -16 0 -24q-10 -10 -5 -29q6 -14 13 -29q-4 -41 37 -86q18 -4 48.5 7.5t43.5 11.5q14 0 26 -9q31 8 105 0 q66 -6 102 11q23 -18 51 -19q12 0 40 5.5t42 5.5q12 0 25 -3q23 4 75 -4t70 -8q16 0 31 4q8 8 23 8q6 0 17 -2t17 -2q20 0 33 17q14 -25 31.5 -80t36.5 -80q-2 -8 2 -27q4 -16 -6 -24q-2 -57 6 -172q-10 -10 -10 -29q0 -6 2 -16v-19q0 -23 -17 -32q16 -72 12 -240 q23 -49 29 -59q20 -36 51 -46z" />
<glyph unicode="T" horiz-adv-x="1394" d="M1186 1509q-61 0 -137 -67q-8 2 -35 -19q-47 10 -121 -8q-12 12 -33 8q-31 -10 -33 -10q-12 0 -22 10q-12 -6 -29 0q-25 8 -33 9q-45 -10 -59 -48q2 -45 18 -139l-12 -282q8 -51 0 -193q4 -12 4 -29q0 -12 -4 -41.5t-4 -44.5q0 -29 12 -49q2 -31 -4 -90l8 -8 q-10 -123 0 -213q-10 -18 -10 -41q0 -10 6.5 -40t3.5 -50q14 -10 32 -41t36 -39q-41 -18 -131 -43q-14 -20 -43 -27q-35 -8 -49 -18q-16 6 -41 -15.5t-35 -25.5q18 31 18 117q-8 14 -4 41l4 43q4 27 -2 90q-6 57 2 88q-14 14 -6 41q12 39 13 43q0 14 -15 26q-2 23 4.5 54.5 t6.5 44.5q0 18 -9 35q-8 23 2 55q14 43 15 53q0 23 -19 41q4 33 4 102.5t4 104.5q-8 12 -1.5 50t-10.5 54q8 182 -6 260q6 12 6 25q0 12 -12 43q-10 25 -6 45q-72 25 -109 -10q-12 23 -35 22q-10 0 -32.5 -8t-30.5 -8q-12 0 -21 8q-37 -6 -106 4l-53 -12q-6 27 -27 80 q35 20 111 43q35 18 102 49q12 -16 29 -16q10 0 31.5 12t31.5 12q12 0 23 -12q14 8 30 8q10 0 33 -5t33 -5q8 0 17.5 4t23.5 4q10 0 32.5 -5t30.5 -5q18 0 31 14l133 -10q10 8 49 2q33 -6 45 16q6 0 21.5 -9t24.5 -9q10 0 16 12q14 -14 37 -12q10 12 26 12q4 -25 54 -12 q12 18 39.5 8t40.5 4q63 -10 94 6q-6 -14 6 -37.5t12 -29.5q0 -11 -16 -17z" />
<glyph unicode="U" horiz-adv-x="1847" d="M1337 125q-35 4 -84 -23q-59 -33 -82 -36q-6 -14 -27.5 -12.5t-27.5 -4.5q-23 -25 -61.5 -30t-75.5 -9q-8 8 -21 8q-6 0 -19 -3t-21 -3q-6 0 -13 2q-39 -6 -104 0q-37 -14 -80 -14q-20 0 -59 4t-58 4q-49 0 -88 -20q-20 0 -48 15t-40 15q-10 0 -31.5 -10t-31.5 -10 q-6 0 -13 2q-8 -6 -18 -6q-8 0 -27.5 7t-30.5 7q-10 0 -20 -8l-10 -6q-6 10 -26.5 7t-27 3t-14.5 6t-25.5 -10t-23.5 -10q-8 0 -14 10q14 20 14 51q0 12 -3 35t-3 35q0 25 10 41q-12 20 -14 65q-2 41 4 191q4 119 -8 180q12 49 12 104q0 25 -8 123q-6 78 0 131q4 45 1 150.5 t5 159.5q-14 23 -14 75t-15 74q6 51 -43 78q20 6 43 14.5t31 26.5q35 2 89 26.5t83 28.5q10 4 23.5 22.5t23.5 22.5q0 -41 -16 -123q-8 -94 8 -120q0 -66 -7 -174.5t-7 -157.5q0 -86 14 -164q-10 -6 -10 -18q0 -6 3 -16.5t3 -14.5q0 -12 -10 -21q2 -4 0 -47q0 -31 14 -49 l-14 -24q10 -66 10 -150q0 -39 -3 -112.5t-3 -108.5q0 -80 10 -141q10 -29 39 -39q25 4 69 26q16 4 47 -5t44 -9q20 0 36 14q37 -16 121 -8t119 -4q8 10 23 8q4 -8 24 -8q47 6 53 4q6 -8 15 -8q4 0 17 7t22 5q8 -27 30 -26q16 0 35 12q29 39 19 106q-10 20 0 31q4 59 2 182 q8 14 3 54t1 51q-10 104 -6 276q6 201 2 283q-14 14 -4 43t-5 43q-4 23 4.5 57.5t8.5 46.5q0 29 -23 49q8 59 -47 132q41 6 108.5 36.5t110.5 36.5q6 8 37 23q25 10 33 30q-4 -33 -4 -114v0q0 -84 -4 -125q8 -8 8 -19q0 -6 -6 -26q-4 -16 2 -27.5t6 -27.5q0 -12 -7 -38 t-7 -38q0 -18 12 -33q-8 -145 4 -211q4 -61 -8 -178q0 -10 8 -35t8 -37q0 -20 -12 -35q8 -12 8 -28t-8 -31q-12 -14 8 -31q-25 -78 -4 -192q-14 -8 -4 -25.5t-4 -25.5q12 -20 -10 -54q14 -20 19 -66t22 -69q0 -10 19 -23.5t19 -19.5t-4 -8z" />
<glyph unicode="V" horiz-adv-x="1482" d="M1153 1606q-25 -16 -37 -47q-14 -37 -31 -56q-2 -25 -20 -79t-18 -87q-23 -49 -50 -137q-31 -98 -47 -137q-37 -92 -92 -277q-6 -8 -10 -35.5t-10 -37.5q-20 -23 -33.5 -76t-30.5 -74q-6 -12 -14 -57q-6 -37 -25 -53q4 -14 -11 -33t-15 -29q0 -4 4 -10q-14 -43 -51 -125 q-2 -12 -15.5 -34.5t-11.5 -39.5q-16 -23 -53 -49.5t-52 -46.5q-16 -33 -74.5 -90t-70.5 -94h-4q14 14 14 32q0 14 -14 50t-10 59q-23 57 -82 256q-12 25 -30.5 74t-31.5 73q-6 37 -28.5 117t-28.5 119q-18 8 -17 43t-16 43q-51 135 -76 229q-27 82 -26 101q-31 96 -60 194 q-37 117 -90 187q-51 27 -67 26q-12 0 -25 -4q16 10 66.5 20.5t70.5 32.5q33 16 105 43q25 18 80 43q-4 -10 -4 -22q0 -23 21.5 -68t17.5 -71q35 -117 88 -303q0 -10 11 -32t11 -34q0 -6 -2 -12q37 -57 76 -219q37 -78 35 -123q23 -53 53 -166q18 -35 35 -96q18 -84 24 -101 q4 -49 11 -69q10 -37 38 -50q33 0 70 58q4 33 9 68.5t26 58.5q31 92 92 278q18 45 51 131q2 39 24.5 104.5t24.5 102.5q37 92 78 248q47 180 72 252q68 31 110 8q23 7 66 23z" />
<glyph unicode="W" d="M1735 106q-8 8 -17 9q-8 0 -26.5 -9.5t-30.5 -5.5q-68 -49 -148 -55q-16 -18 -57 -25.5t-53 -23.5q-16 8 -50 3t-53 11q-41 -16 -114 -8q-14 8 -53 2t-58 6q-29 -8 -31 -8q-10 12 -42.5 4t-45.5 8q-14 2 -44.5 -8t-43.5 -10q-12 0 -22 6q-31 6 -98.5 2t-102.5 6 q-16 -8 -72.5 -2t-80.5 -12q-63 8 -156 4q-113 -4 -152 -4q-29 0 -88 -23q29 14 29 43q0 4 -2 17v18q0 14 4 27q-4 43 -4 133q-12 4 -12 12q0 4 7 16.5t5 18.5q4 10 0 29q-4 20 -4 24q0 14 8 23q0 16 -16 39q2 139 4 403q0 29 8 84l-8 8q6 51 6 109q0 57 -8 176 q-8 113 -9 172q2 100 -65 141q8 8 32.5 11.5t32.5 11.5q37 14 111 41q25 18 79 35.5t73 29.5q-27 -80 -27 -106q0 -33 18 -57q-10 -41 -10 -93q0 -25 3 -70.5t3 -68.5q0 -68 -18 -113q14 -78 18 -182q2 -70 -2 -192q-4 -135 -4 -185q10 -20 10 -39q0 -20 -10 -40v-154 q-2 -90 29 -143q45 -23 61 -13q35 25 76 13q10 -6 21 -7q14 0 34.5 15.5t30.5 15.5q14 0 27 -18q12 12 26 12q8 0 30 -8t34 -4q10 -14 26 -15h31q14 8 27 52q-12 33 -13 81q0 20 3.5 63.5t3.5 61.5t-2 35q-6 27 -13 53q-4 33 8 54q-6 23 -2 61q4 47 2 66q-8 18 -8 39 q0 14 6.5 43.5t6.5 44.5q0 27 -15 49q23 29 7.5 83t7.5 83q2 31 -8.5 92t-10.5 92q0 25 4 45q-10 109 -8 121q-8 90 -68 115q51 14 146 57q23 -6 53 12q39 25 51 27q23 8 62 39q-20 -119 -17 -336q6 -10 2 -41q-6 -31 -2 -43q6 -10 4 -32.5t3 -33.5q-6 -29 -7 -63 q0 -27 6.5 -83t6.5 -85q0 -41 -11 -74l11 -12q2 -49 -4 -135q-6 -98 -7 -127q-8 -18 2 -45q12 -35 13 -43q0 -18 -17 -33q0 -25 9 -55q10 -43 12 -56q-10 -14 -10 -34q0 -12 7 -39t7 -39q0 -10 -4 -21q23 -47 96 -30q10 18 29 18q6 0 20.5 -3t22.5 -3t14 2q8 -25 43 -8 q4 4 41 8q4 -18 19 -19q6 0 21 5.5t22 5.5q6 8 22 8q20 -37 66 -23q27 23 26 56q0 12 -6 40.5t-6 45.5q0 14 4 26q4 90 0 271q-10 12 -6 36q2 18 6 39q8 20 -2 54q-10 43 -10 53q0 23 16 39q0 20 -16 53q4 16 0 45q-6 39 -6 47q0 27 12 45q-6 37 -2 236q4 141 -45 229 q-20 18 -35 15q14 12 48 23t50 24q27 2 72 25.5t66.5 29.5t45 13t31.5 24q6 -8 6 -15q0 -8 -11 -24.5t-11 -26.5q8 -29 2 -73q-8 -66 -8 -78q0 -29 10 -52q2 -16 -4 -67q-4 -41 8 -66q2 -8 -4 -22t-6 -19q0 -10 10 -16q-18 -133 -8 -199q0 -6 8 -17t8 -17q0 -8 -12 -17 q8 -80 8 -180q0 -59 -6 -203q-4 -131 -2 -205q0 -92 31 -145q2 -14 25.5 -28.5t23.5 -20.5q0 -7 -10 -15z" />
<glyph unicode="X" horiz-adv-x="1488" d="M1206 106q-14 -10 -47 -9t-47 -13q-37 -2 -90 -31q-59 -33 -88 -39q-14 -2 -39 -22.5t-39 -22.5q-14 45 -63 127q-10 39 -54.5 108.5t-50.5 110.5q-33 51 -88 160q-4 10 -41 66q-27 39 -27 71q-31 45 -55 45q-8 0 -14 -4q-39 -18 -64 -80q-29 -70 -53 -88 q-29 -43 -65 -137q-23 -37 -76 -100q-47 -92 -96 -152q-4 -16 -29 -48t-23 -56q-29 4 -57 8q-27 2 -55 -14q-10 6 -19 6q-14 0 -38.5 -15.5t-30.5 -17.5q51 45 96 115q39 61 76 123q18 10 26 32q8 31 13 37q45 51 116.5 165t114.5 163q27 47 82 151q37 10 22 82 q-20 23 -53 86q-31 57 -59 82q-31 43 -78 133q-33 61 -119 179q-14 90 -160 200q-6 0 -59 -10q23 39 82 27q16 12 70 32q45 18 63 41q31 4 37 5q20 6 27 22q8 0 19 11.5t13 13.5q14 -43 76 -131q57 -80 70 -134q43 -68 114 -215q4 -8 58 -77q39 -49 37 -93q27 -41 73 -22 q29 53 86 156q29 25 62 90t72 92q74 170 157 270q10 -10 23 -10q10 0 28.5 8t26.5 8q10 0 18 -6q63 -6 99 23q0 -12 -8.5 -19.5t-18.5 -13.5q-10 -12 -65 -64q-39 -35 -52 -73q-59 -96 -114 -150q-2 -27 -36 -63.5t-36 -65.5q-31 -39 -102 -153q-63 -98 -113 -150 q-2 -16 12.5 -37.5t14.5 -32.5l32 -43q18 -27 19 -47q37 -51 86 -157q23 -35 65 -109q-2 -20 45 -74q35 -57 70 -116q33 -51 98 -105q43 -37 123 -29z" />
<glyph unicode="Y" horiz-adv-x="1363" d="M1155 1612q-43 -27 -82 -96q-43 -78 -72 -103q-23 -45 -81 -131q-25 -43 -91 -113q-14 -37 -18 -45q-12 -23 -31 -37q2 -4 2 -10q0 -12 -16 -28q-18 -23 -23 -29q-8 -18 -59 -84q-39 -51 -45 -90q-10 -6 -23 -39q-70 -55 -69 -145q0 -25 6 -50l-6 -53q-6 -33 6 -51 q-18 -12 -4 -45q12 -6 6 -14q-6 -16 -6 -17q8 -35 8 -80q0 -18 -2 -55t-2 -53q0 -80 33 -129l37 -33q-18 6 -44 -9.5t-44 -13.5q-100 -39 -207 -108q23 14 30 90q-16 35 -14 90q2 68 -4 92q0 2 6 183q0 49 8 79q-10 12 -10 29q0 8 3 22.5t3 20.5q0 23 -18 37q8 102 -64 225 q-68 102 -135 205q-16 35 -76 121q-49 76 -65 125q-23 29 -55 90l-7 -6q-10 10 -59 96q-39 68 -78 74q-2 4 -2 6q0 6 12.5 13t16.5 9q139 12 227 86q25 -31 55.5 -102.5t57.5 -99.5q29 -41 92 -158q55 -102 98 -154q10 -25 35 -73q20 -20 37.5 -79t30.5 -79q27 -35 77 -27 q25 20 45.5 73.5t40.5 74.5q33 61 104 182t210 363q8 14 17 29.5t22 15.5q8 0 18 -11q12 0 29.5 9.5t30.5 9.5q14 -23 34 -23q12 0 20.5 12.5t24.5 12.5q31 0 29 -2z" />
<glyph unicode="Z" horiz-adv-x="1419" d="M1053 92q-59 0 -146 -63q-23 2 -47 -10.5t-45 -24.5q-29 8 -84 8t-84 8q-8 -8 -20 -8q-6 0 -18.5 2t-18.5 2q-14 0 -23 -12q-45 16 -63 12q-33 -20 -109 -12q-12 18 -45 4q-14 6 -45 0q-6 -2 -14 -2q-10 0 -28.5 5t-26.5 5q-18 0 -33 -18q-35 23 -49 18q-8 -18 -21 -18 q-6 0 -20.5 12t-22.5 12q-6 0 -12 -6q-10 -2 -35 2t-33 4q-27 0 -41 -18q-14 -6 -57 -4q-33 0 -55 -19q33 29 98 135q66 88 113 179q35 29 63.5 103.5t58.5 103.5q0 20 21.5 49.5t21.5 48.5q20 14 36 52t32 52q10 27 44 79t42 77q20 20 43 67.5t41 67.5q2 27 29.5 67 t29.5 64q43 66 58 90q29 53 41 97q57 86 57 133q0 12 -2 24q-18 23 -39 23q-8 0 -15 -6.5t-31 -6.5t-32 -10q-6 2 -23.5 11.5t-25.5 9.5q-12 0 -22.5 -12.5t-37 -2t-41 -4t-36.5 -14.5q-10 0 -32.5 5t-33.5 5q-25 0 -39 -14q-10 6 -20 6q-8 0 -23.5 -8t-25.5 -8q-8 0 -17 4 q-6 -10 -14 -11q-6 0 -19.5 8.5t-21.5 8.5t-16 -10q-12 6 -25 6q-16 0 -42.5 -10.5t-37.5 -10.5q-25 0 -30 41q-12 14 -23 70q-10 45 -37 61q98 -16 127 -10q0 2 27 6q8 -12 18 -12q6 0 19.5 5t19.5 5q8 0 12 -6q66 12 263 8q6 6 14 6q6 0 20.5 -6t22.5 -6q10 0 18 6 q16 16 47 10t48 2q16 -23 32 -8l4 4q16 -29 50 -14l14 14q10 -4 22 -4q14 0 41 6.5t39 6.5q10 0 24.5 -5.5t20.5 -5.5q8 0 22.5 5.5t20.5 5.5q10 0 19 -9q10 0 30.5 -4t30.5 -4q25 0 39 23q-4 -14 9.5 -43t13.5 -41q0 -16 -19 -29l-24 -86q-14 -51 -39 -80q-2 -41 -52.5 -97 t-56.5 -95q-12 -20 -65 -131q-39 -80 -82 -125q-6 -31 -41 -83t-39 -81q-25 -29 -27 -68q-39 -29 -65 -88q-37 -84 -47 -98q-18 -14 -39 -55t-37 -58q-6 -29 -51 -88q-41 -49 -35 -90q33 -37 57 -41q6 -4 12 -4q12 0 28 13.5t24 13.5t18 -11q16 14 39 15q10 0 31.5 -4 t32.5 -4q10 0 18 4q82 -12 113 12q53 2 155 -12q14 2 29 6q16 4 27 -4q4 -6 26 -6q6 4 37 3t39 19q8 -8 37 -4q20 4 26 -14q-6 -8 -6 -17q0 -6 8.5 -21.5t8.5 -25.5z" />
<glyph unicode="a" horiz-adv-x="1945" d="M1450 84q-35 4 -93.5 -24.5t-92.5 -26.5q-45 -23 -136 -74q-6 4 -6 8q0 6 9.5 17.5t9.5 17.5q-6 39 -2 111q4 82 2 116q-12 20 -13 64q0 51 -6 69q-6 6 -6 11q0 4 8.5 15t8.5 18q0 6 -8.5 16t-8.5 20t8.5 31t8.5 33q0 14 -15 26q12 18 4 48q-8 41 -8 45q0 18 12 32 q0 6 -6 39q-4 20 6 37q-2 27 -4 56.5t-35 35.5q-25 4 -69 -8q-53 -12 -76 -12q-27 0 -49 10q-25 0 -67 -9t-70 -9q-4 14 -17 14q-4 0 -20 -4q-12 -4 -19 0q-8 -18 -16 -19q-6 0 -19.5 12.5t-21.5 12.5q-10 0 -20 -16q-4 4 -11 4q-4 0 -16 -6.5t-16 -6.5q-12 0 -19 19 q-20 -14 -59 -14q-18 0 -51 3t-50 3q-72 0 -61 -80q12 -31 12 -70q0 -12 -4 -67q-2 -41 0 -68q-10 -53 4 -80q4 -8 4 -16t-7 -25.5t-7 -25.5t6 -17q2 -16 -2 -43q-2 -33 -2 -45q0 -37 18 -61q-4 -8 -4 -17q0 -14 43 -78q29 0 39 -26q-14 4 -26 4q-27 0 -78 -30.5t-86 -24.5 q-10 -6 -66 -27q-43 -14 -61 -43q-2 -4 -12 -4q27 14 24 53v64q-10 10 -10 24q0 10 7 30.5t7 29.5q0 12 -8 20q0 16 4 51t4 52q0 37 -16 63q8 43 4 125q4 102 4 313q-20 84 -74 158v8q35 -10 62 8q20 23 16 62q-6 47 0 63q-8 20 -8 45q0 16 6 51t6 56q0 16 -4 33 q-12 6 -12 20q0 4 2 14.5t2 14.5q0 12 -14 18q0 10 4 39q4 23 2 35q-4 18 -19 33q6 12 -20 51q-8 2 -23 14q59 12 164 51q31 -2 79 19.5t73 21.5q12 0 22 -2q8 4 17 4q10 0 28.5 -7t28.5 -7q8 0 14 4t13 4q6 0 18 -6t18 -6q8 0 17 10q8 -10 20 -10q6 0 24.5 8t29.5 6 q4 -12 23.5 -5t29.5 -11q8 -8 16 -8q10 0 24.5 15t20.5 15q10 0 19 -22q2 -2 22 8q8 -8 19 -8q10 0 30.5 11t28.5 11q10 0 18 -6q14 -4 56 2q35 4 53 -8q14 4 33 -8q16 12 39 12q10 0 27.5 -2t27.5 -2q25 0 43 15q14 -25 43 -19q14 16 39 8q37 -12 41 -12q16 0 29 14 q8 -6 14 -10q10 -6 16 0q12 18 13 19h10q-14 -10 -12 -41t-3 -41q2 -164 -4 -478q8 -27 9.5 -96t13.5 -104q-14 -16 -4 -50t-6 -51q-2 -125 10 -395q-6 -18 0 -45l8 -82q8 -53 27 -84q6 -2 24 -24q12 -16 29 -13v-14zM1094 1235q-27 16 -17 61t-4 64q-29 -4 -47 21.5 t-35 48.5q-33 23 -61 22q-18 0 -31 -8q-20 14 -43 14q-16 0 -50 -12t-52 -12q-14 0 -29 6q-2 0 -10 6t-10 6q-6 0 -9 -8q-10 -6 -18 -6q-14 0 -35.5 15t-32.5 15q-12 0 -22 -16q-133 10 -266 10q-25 -29 -14 -94t-3 -94q12 -27 12 -60q0 -10 -4 -55q-4 -37 -2 -59 q-4 -33 2 -78q4 -37 -6 -53q29 -37 53 -47q16 12 46 12q10 0 30.5 -2t28.5 -2q27 0 43 14q6 4 14 4t22.5 -10t22.5 -10q6 0 11 2q14 16 42.5 12t38.5 2q16 -18 39 -18q12 0 37 7t37 7q14 0 27 -6q35 -4 65 -4q31 0 66 4q8 -8 24 -8q6 0 22.5 2t22.5 2q14 0 21.5 -6t15.5 -6 q18 0 51 26q0 4 5.5 14.5t5.5 16.5t-6 12q-6 53 -5 119q7 123 7 129z" />
<glyph unicode="b" horiz-adv-x="1894" d="M1436 106q-14 6 -29 7q-18 0 -52 -15.5t-50 -17.5q-51 -27 -160 -62q-20 -16 -51 -16h-58q-6 6 -12 6q-2 0 -20 -6q-12 -4 -21 4q-12 -18 -45 6q-16 2 -42 -12t-40 -10q-8 25 -35.5 13.5t-38.5 2.5q-61 -8 -84 12q-20 -33 -62 -12t-65 -10l-92 6q-4 -10 -10 -10 q-4 0 -12 5t-13 5l-82 -6q-8 14 -22 12q-14 -4 -27 -6v10q-4 -2 -125 -6q-8 2 -28.5 -4t-28.5 -6q-18 0 -18 29q2 10 10 34.5t8 36.5t-6 25q12 14 8 33q-6 16 -10 32q4 14 2 56q0 35 10 49q-10 12 -10 31q0 8 3 25.5t3 25.5q0 23 -14 37q-4 25 7 65.5t11 56.5q0 23 -12 43 q4 217 6 197q-14 14 -17 44t-18 44q-8 31 -47 86q31 -20 47 -8q20 6 28.5 34.5t16.5 37.5q-10 14 -10 37q0 8 3 28.5t3 30.5q0 20 -10 35q-4 88 -2 100q0 102 -4 127q-12 78 -60 117q31 8 260 92q6 -4 13 -4q8 0 22.5 9t22.5 9q10 0 20 -14q23 16 71 6t71 8q23 -4 45 -8 q29 -4 45 4q10 -14 22 -14q6 0 22.5 9t26.5 9q6 0 13 -4q8 12 35 12q18 -25 55 -22h63q4 2 10.5 13.5t14.5 8.5q4 -14 31 -22q10 -4 20 7t19 9q12 0 31.5 -9t27.5 -9q12 0 24 12q92 -2 281 4l23 21q4 -14 -15 -35l-4 -184q14 -23 4 -74v-254q-4 -14 -35 -72q-23 -45 -22 -73 q0 -29 18 -56q4 -16 33 -63q23 -37 23 -64q0 -20 -13 -41q12 -14 7 -42.5t4 -43.5q-12 -6 -9 -16q8 -18 9 -19q6 -27 -1.5 -62.5t-13.5 -68.5q14 -20 4 -65t11 -62q-4 -16 -5 -32q0 -57 48 -142q18 -8 45 -37zM1128 1004q-4 12 -4 53q0 35 -18 53l8 240q-6 31 -10 61 q-8 39 -37 45q-14 -6 -53 -6t-58 -12l-8 8q-2 2 -26 -8q-10 2 -33 -2t-31 -4q-27 0 -37 28q-18 -4 -51 -26q-8 25 -25 24q2 0 -51 -20q-12 18 -53 18q-33 -14 -94 -10q-78 2 -96 0q-12 8 -29 8q-14 0 -66 -27q-16 -23 -16 -55q0 -20 8 -58t8 -54q-10 -33 -7 -99.5t-9 -99.5 q14 -12 14 -33q0 -10 -5 -30.5t-5 -30.5q0 -20 18 -37q12 -18 27 -19q8 0 28.5 13.5t31.5 13.5q8 0 14 -4q51 0 65 18l13 -18q14 -6 28 -6t43 9t45 9q10 0 19 -2q10 -14 22 -14q6 0 19.5 5t21.5 5q10 0 17 -6q8 10 16 10q4 0 18.5 -8t22.5 -6q10 10 25 10q8 0 28.5 -6 t30.5 -6t21 6q6 -6 14 -6t23.5 5t21.5 5q14 0 24 -12q16 8 50 5t51 3q20 27 26 70zM1346 428h-5l-8 -27zM1122 428q-10 12 -10 31q0 4 8 47q4 29 -6 47v207q0 6 -9 11t-7 13l-23 9q-12 4 -20 -2q-16 -20 -45 -21h-21q-14 2 -22 2q-18 0 -31 -10q-8 20 -30.5 9t-33.5 7 q-12 2 -23 -4t-24 -12q-16 35 -55 14.5t-53 7.5q-68 -20 -129 -16q-8 10 -25 10q-10 0 -30.5 -5t-30.5 -5q-12 -6 -27 -6q-14 0 -46 13t-50 16q-31 -14 -35 -64q20 -41 16 -121q-6 -94 2 -129q-10 -8 -8 -22q4 -14 8 -27q-12 -25 -12 -53q0 -14 4 -50t2 -57q12 -14 15.5 -59 t25.5 -59l56 6q33 4 49 22q23 0 60.5 -5t53.5 -5q33 0 56 12q8 -18 39 -16q47 0 45 0q39 12 30 12q8 0 17.5 -10t21.5 -10t33 11t31 11q14 0 29 -18q25 12 63 12q12 0 106 -12q35 27 31 88q-6 78 2 98q-10 10 -10 23q0 8 7 27.5t5 31.5z" />
<glyph unicode="c" horiz-adv-x="1503" d="M1161 88q-41 -18 -82 -39q-49 -25 -84 -26q-33 -20 -77 -21q-14 0 -43 3t-44 3q-31 0 -53 -10q-14 6 -46 3t-50 9q-27 -4 -55 -6q-31 -4 -47.5 4t-30.5 8t-38 -13t-34 -13q-18 0 -33 30q-18 -23 -43 -22q-12 0 -37.5 6t-37.5 6q-10 0 -19.5 -3t-21.5 -3t-38 3t-38 3 q-33 0 -49 -16q-2 2 -25 2q-10 0 -14 14q2 68 16 197q-2 39 -20 115q12 41 6 118q-6 86 0 121q6 23 6 49q0 23 -5 71t-5 73q0 29 4 51q-18 16 -2 39q8 18 8 43q0 12 -4 49q-4 31 -2 47q4 6 4 14q0 10 -6 27.5t-6 28.5q0 14 14 26q4 10 -2 27.5t-6 23.5q0 10 8 21 q-10 31 -3 89t-3 87q6 12 6 25q0 14 -11.5 44.5t-11.5 49.5q-20 25 -61 37q16 -4 33 -4q39 0 105.5 33.5t101.5 35.5q12 2 34.5 18.5t34.5 16.5q10 0 19 -6q12 -2 30.5 3t26.5 5q14 0 27 -8q4 -4 12 -4q6 0 22.5 6t24.5 6q10 0 19 -6q10 -6 35.5 2t33.5 8q18 0 31 -12 q25 -4 33 12v4q12 -8 57 -2q39 6 53 -14q51 14 146 8q102 -4 147 4q27 -8 66 0l20 17q-2 -8 5 -30t7 -32q0 -12 -8 -20q-37 -4 -57 -31q-61 -20 -182 -53q-10 -4 -21 -4q-14 0 -38.5 9t-37.5 9q-23 0 -39 -22q-16 23 -38 22q-10 0 -36 -9t-40 -9q-12 0 -21 4q-4 -8 -10 -8 q-4 0 -12 8t-13 8q-14 4 -37.5 -4t-31.5 -8q-14 0 -27 12q-16 -10 -33 -10q-14 0 -40.5 11t-40.5 11q-16 0 -29 -12q-37 -20 -45 -55q16 -18 16 -41q0 -10 -7 -35t-7 -37q0 -16 8 -31q-16 -16 -10 -45q4 -35 -2 -51l-4 -133q-2 -35 12 -66l-8 -211q8 -8 6 -23t2 -24 q6 -31 6 -67q0 -33 -6 -96.5t-6 -94.5q0 -39 6 -69q-8 -10 -4 -31q4 -27 4 -35v-82q4 -47 31 -71q74 0 90 22q16 -25 35 -25q6 0 49 17q33 12 57 0q23 -25 35 -14q16 12 43 12q8 0 26.5 -2t28.5 -2q27 0 45 10q23 -29 62 -14q8 14 25.5 3.5t27.5 6.5q10 4 16 -4t13 -10 q55 10 170 10q20 -8 47 16q29 -59 28 -65q0 -13 -6 -23z" />
<glyph unicode="d" horiz-adv-x="1890" d="M1292 1530q-8 -25 -2 -75t-6 -75q6 -45 12 -88q2 -47 -12 -88q27 -63 -4 -98q8 -16 8 -37q0 -12 -3 -34.5t-3 -35.5q0 -14 2 -24q4 -180 6 -359q4 -205 -2 -366q18 -68 0 -137q-12 -6 -74 -23q-45 -12 -65 -37q-8 4 -16 4q-12 0 -34 -18.5t-34 -18.5t-27 23 q-68 -29 -243 -25q-18 4 -39 5q-29 0 -82 -10.5t-80 -12.5q-10 23 -25 23q-6 0 -22.5 -8.5t-24.5 -8.5t-16 6q-8 2 -19.5 -5t-17.5 -7q-8 0 -14 10q-31 -12 -72 -12h-39q-27 2 -41 2q-39 0 -72 -12q-12 12 -30 12q-4 0 -29 -4q-20 -2 -33 0l-30 -27q16 29 18 80v92 q10 37 -8 78q4 20 3 64.5t5 66.5q10 12 10 27q0 14 -13 39.5t-13 38.5q0 12 8 22q0 158 16 219q-16 55 -14 142q6 150 6 141q8 8 0 29q0 92 4 278q-14 16 -14 41q0 8 3 25.5t3 27.5q0 29 -23 50q0 45 -39 65q16 12 79 23.5t87 35.5q39 10 101 50q10 -8 36.5 -3t41.5 -10 q6 2 28 -2q16 -4 25 8q53 -27 96 -2v2q25 -20 29 -20t8 3t16.5 8t20.5 3q10 -16 24 -14h33q6 -8 12 -8t17.5 9t15.5 9q8 0 14 -10q16 4 47 -5t42 -9q14 0 26 6q16 -20 39 -21q8 0 27.5 4t29.5 4q14 0 25.5 -6t24.5 -6q10 0 30.5 6t28.5 6q18 0 27 -24q126 10 200 -2z M1087 758q2 10 -4 20t-12 19q0 119 4 350l8 16q-16 12 -16 37q0 10 4 32.5t5 34t1 25.5q0 18 -9 54t-9 55q0 12 2 24q-14 18 -49 23h-56q-2 -8 -8 -10q-2 0 -9 6t-11 4q-18 -12 -58 -8q-47 4 -61 0q-29 8 -84 8t-78 4q-8 0 -22.5 -7t-20.5 -7q-4 0 -15 10t-24 10 q-10 0 -28.5 -8t-24.5 -10q-10 16 -25 16q-8 0 -25.5 -6t-25.5 -6q-6 0 -12 4q-14 16 -70 8q-31 -14 -30 -39q0 -10 7 -33.5t7 -35.5t-6 -23q12 -53 8 -129q-8 -129 -8 -133q10 -111 8 -123q2 -23 -12 -66q-6 -6 4 -43q-2 -18 -2 -40q0 -33 7 -99.5t7 -97.5q0 -37 -6 -64 q2 -37 -6 -104q-4 -23 6 -66q12 -49 12 -69t-6 -37q2 -31 2 -61q4 -39 29 -56l6 4q2 -2 29 -8q20 16 55 17q8 0 25.5 -2.5t27.5 -2.5q27 0 45 13q6 -18 29 -17q31 0 37 -4q16 18 43 19q10 0 31.5 -3t31.5 -3q12 0 21 2q18 -25 56 -11.5t52 -7.5q14 -2 29.5 6t28.5 17 q10 -18 26 -19q6 0 21.5 4t21.5 4q18 0 27 -22q18 -2 30.5 12.5t22.5 28.5q6 47 2 121q-8 119 -8 118q14 16 14 39q0 12 -4 35t-4 33t4 20q-8 12 -8 29q0 14 9 44t9 44q0 23 -14 41q10 10 9 35t7 35z" />
<glyph unicode="e" horiz-adv-x="1523" d="M1141 66q-31 2 -74 -19q-61 -29 -71.5 -28t-31 -10t-26.5 -13l-174 2q-84 23 -123 -10q0 2 -25 18q-14 12 -24 12q-12 0 -21 -10l-6 -6t-4 -8q-23 23 -31 22q-6 0 -12 -6q-29 -35 -59 -4q-29 4 -78 -10q-4 0 -23 8q-12 6 -22 0q0 -4 -31 -10q-8 20 -31 18q-20 -2 -38 -6 q-6 -8 -15 -2q-10 8 -15 8h-13t-24.5 -4t-23.5 -4q-18 0 -22 27q-8 8 -8 18t9 27.5t9 25.5q0 6 -4 11q2 14 -3 38.5t-5 34.5q0 18 10 33q-4 111 -10 221q-6 131 0 222q-16 20 -10 49q12 45 12 47q0 18 -14 33q-12 43 -25.5 89t-42.5 72q23 -6 48.5 3.5t29.5 31.5q-2 4 -2 66 q0 25 4 92q2 57 2 90q0 147 -45 238l-27 22q16 -4 51 10.5t54 12.5q23 14 151 63q12 14 35 14h39q41 -20 55 -4q139 -4 123 -4q16 14 27 12q6 -6 28 -8q14 0 19 -18q4 -2 10 -2q8 0 23.5 8t21.5 8q10 0 17 -20q8 -4 17 5t15 17q18 -20 39 -20q10 0 34 8t36 8q10 0 18 -2 q16 4 38 -9t32 -13t22 10q8 18 25 18q8 0 23.5 -5t21.5 -5q10 0 16 6q20 -16 43 -12q4 10 17 10q20 0 18 -4t15 -66q-6 -10 -25.5 -12t-26.5 -6q-20 -2 -59 -23.5t-66 -17.5q-16 -23 -47 -22q-16 0 -40.5 5t-30.5 5q-14 -6 -41 0q-33 8 -41 8q-16 0 -31 -12q-6 -4 -14 -4 t-19.5 6t-17.5 6q-10 0 -19 -10q-39 18 -59 2q-6 2 -113 4q-66 2 -106 24q-14 0 -28.5 -11t-26.5 -21q-16 -31 -6 -101.5t-11 -105.5q10 -152 4 -293q33 -20 66 -21q27 0 47 15q35 -6 31 -6q8 14 22 14q8 0 23.5 -6t21.5 -6q14 0 23 14q12 -20 28 -20q8 0 26.5 6t27.5 6 q6 0 12 -2q35 10 51 -2q25 -2 70 8l10 -125q-6 0 -21.5 8t-23.5 8t-16 -8q-8 8 -17 8q-8 0 -23.5 -8t-25.5 -8q-78 -4 -225 6q-8 -18 -23 -18q-6 0 -18 4t-19 4q-14 0 -22 -12q-20 -47 -19 -185l9 -22q0 -305 -2 -219q2 -117 22 -207q16 -12 37 -13q16 0 45 9.5t41 9.5 q16 -20 35 -21q10 0 16 9q18 16 23 14q25 -20 35 -16q4 8 10 8q2 0 10 -8.5t14 -8.5q8 0 24.5 11.5t22.5 11.5q10 0 19 -12q20 10 57 8q80 -2 64 -2q4 -4 39 -8q6 10 12 10q4 0 11 -8.5t11 -8.5q10 0 33 8.5t33 8.5q16 0 27 -17q6 -4 12 -4t17.5 8.5t15.5 10.5q2 -2 22 -10 q14 -6 25 -7q12 0 20 13q8 -20 35 -4q2 4 12 4q31 -45 17 -90z" />
<glyph unicode="f" horiz-adv-x="1382" d="M1100 1569q0 -8 5 -22.5t5 -20.5q0 -12 -12 -19q-8 4 -17 4q-12 0 -35.5 -13t-35.5 -15q-31 -16 -66 -34.5t-72 -14.5q-33 33 -65 14q-6 -12 -23 -8q-25 4 -24 4q-10 -2 -53 0q-35 2 -52 -17q-10 8 -20 9q-8 0 -24.5 -6.5t-24.5 -6.5q-12 0 -21 9q-10 -6 -22 -7 q-14 0 -40 12.5t-38 12.5q-14 0 -27 -12q-20 16 -45 16t-53.5 -15.5t-28.5 -37.5q0 -8 5.5 -26.5t5.5 -26.5q10 -10 10 -23q0 -2 -8 -31q-6 -20 4 -34q2 -61 0 -199q-12 -16 -10.5 -54t-6.5 -55q2 -35 43 -69q16 -2 31 10q25 20 27 20q4 -4 10 -4q4 0 14 4.5t15 4.5 q8 0 16 -13q14 14 27 -2q29 -4 116 -2q74 4 115 -12l45 22q-33 -35 -14 -112q10 -14 10 -19q-12 23 -27 23q-4 0 -10 -4l-2 -4q-33 12 -119 -9q-8 0 -20 -8q-27 14 -96 13q-12 4 -33 -8.5t-29 -12.5q-10 0 -16 4q-39 14 -74 -8q-27 -23 -12 -61q16 -45 12 -134 q-4 -117 -2 -137q-10 -10 12 -24h4v-9q-8 4 -16 -10q-4 -18 4 -51t6 -47q2 -59 25 -174q35 -41 57 -39q-12 -12 -33 -17q-27 -4 -37 -10q-31 2 -88 -27.5t-94 -27.5q-8 -12 -29.5 -23.5t-27.5 -21.5q20 33 20 72q0 18 -6 54t-6 56q0 29 8 53q-12 6 -8 21l8 24q0 -20 -4 99 q0 51 12 100q0 2 -22 94q8 39 -4 187q12 14 12 30q0 -2 -12 54q-14 39 -29 75q-18 45 -49 66v10q33 -25 49 -18q33 14 37 57q0 35 -2 70q-2 147 2 213q-8 8 -8 20q0 4 2 14.5t2 14.5q0 14 -14 20q-2 55 -11 82q-12 43 -45 64q59 2 201 69q53 -8 88 37q18 -29 45 -12 q10 12 21 10l20 -8q10 4 21 4q12 0 30.5 -5t28.5 -5q18 0 33 18q12 4 24 -2q16 -12 17 -12q10 6 24 6q10 0 33 -7t33 -7q23 0 37 28q4 0 18 -8t21 -8q6 0 12 8q51 -23 59 -16q29 12 70 4q6 0 14 -8t15 -8q4 0 8 2l6 8q131 14 104 14q41 0 64 -18z" />
<glyph unicode="g" horiz-adv-x="1826" d="M1436 109q-39 -10 -76 -23q-45 -14 -72 -39q-104 -8 -162 -59q-20 25 -49 24q-14 0 -26 -8q-14 -23 -44 -7.5t-44 -4.5q-10 10 -25 10q-8 0 -25.5 -7t-25.5 -7q-14 0 -27 16q-12 2 -31.5 -8t-27.5 -10q-10 0 -21 10q-61 6 -188 0q-16 8 -37 8q-16 0 -50 -8t-52 -8 q-8 0 -21.5 7t-17.5 7q-8 0 -17 -10q-23 12 -71 12q-72 0 -68 0q-4 -12 -10 -12q-2 0 -12.5 9t-16.5 7q-10 -4 -44 -3t-44 -17h-6q2 6 -2 39q-4 20 14 34q-14 14 -14 37q0 12 6 36t6 34t-4 18q6 12 6 39q0 25 -6 39q-4 47 10 135q-18 35 -18 80q0 12 4 62q4 39 0 65 q-2 31 4 109q4 66 -6 108q10 29 6 90q-6 72 -4 95q-18 18 -5 48.5t-7 47.5q16 20 13 64t3 61q6 127 -29 209q-12 14 -43 47q8 6 37 9t35 22q35 6 145 45q86 31 144 30q29 0 57 -8q10 4 23 4q12 0 38.5 -6t39.5 -6q29 0 45 22q41 -14 143 -20q4 -2 10 -2t19.5 5t19.5 5 q10 0 19 -12q12 -4 26 -4q16 0 46 8t44 8q18 0 35 -12q20 12 56 6t53 2q23 2 65 -18q23 16 66 20t59 10q29 -18 45 -8q0 -10 11.5 -30.5t11.5 -32.5q0 -8 -6 -19q-12 0 -37 -14t-41 -12q-45 -16 -131 -60q4 0 -47 -2q-33 0 -48 15q-14 -4 -49 -3.5t-51 -5.5q-10 2 -29 4 q-10 -14 -32 -14h-37q-16 31 -47 14q-4 -10 -17 -10q-25 0 -18 2q-6 10 -19 10q-18 2 -20 7q-12 -14 -31 -15q-8 0 -41 11q-25 6 -39 0q-53 27 -120 -11q-10 2 -32 14.5t-34 12.5q-14 0 -27 -14q-16 6 -37 -13q-29 -25 -14 -55q10 -16 10 -47q0 -37 4 -49q8 -55 5 -131 q-10 -121 -11 -138q0 -12 5.5 -34.5t5.5 -34.5q0 -20 -13 -39q-4 -35 13 -66q2 -14 2 -32q0 -29 -8.5 -92.5t-6.5 -90.5q10 -16 7 -50t10 -50q-23 -10 -23 -35q0 -8 5 -31.5t3 -35.5q12 -29 9 -66q-4 -47 -3 -63q-6 -12 -6 -23q0 -12 11.5 -40t7.5 -46q16 -29 55 -23 q37 20 62 13q10 -14 22 -15q8 0 25.5 9.5t27.5 9.5t19 -8q14 -2 42.5 3t41.5 5q27 0 43 -12q23 -4 43 12q14 4 39 -4l39 -13q37 4 104 27q4 -14 14 -14q2 0 21 4q12 4 20 0q31 -31 78 -17q35 12 62 35q10 10 10 25q0 10 -8.5 29.5t-8.5 27.5q0 12 7 21q-8 25 -3 79t-6 82 q2 68 6 138q4 80 -4 131q-4 4 -22 41q-14 27 -37 32q-10 2 -30.5 -6t-28.5 -8q-16 0 -27 19q-96 -20 -186 16q-68 -14 -86 -4q-8 -6 -19 -6q-8 0 -23.5 7t-23.5 7q-10 0 -20 -12q-33 2 -33 41v24q2 14 2 23q0 20 -6 33q8 6 18 6q8 0 24.5 -5t24.5 -5q14 0 25 14 q57 -14 137 -12q68 4 135 8q10 -2 35 -14.5t35 -12.5q16 0 27 17q12 4 30 0q25 -4 31 -5q16 0 29 15q4 -2 24 -15q14 -10 23 -10q10 0 18 6q20 16 49 17q10 0 31 -2t31 -2q25 0 45 10q6 -14 6 -31q0 -8 -6 -43q-4 -29 0 -45q0 -27 -8 -80q-2 -80 12 -235q0 -37 -6 -105.5 t-6 -99.5q0 -106 59 -166q8 0 14 -6z" />
<glyph unicode="h" horiz-adv-x="1812" d="M1331 78q-10 0 -30.5 -11.5t-32.5 -11.5q-6 0 -13 2q-29 -4 -77 -32q-25 6 -59 -21t-54 -24l-21 -17q14 106 13 277q-2 238 0 276q-8 31 -2 98q4 76 2 99q-2 8 3 26.5t5 26.5q0 18 -12 27q-10 18 -25 18q-6 0 -19.5 -4t-19.5 -4t-12 2q-20 -14 -43 -14q-12 0 -34.5 5 t-33.5 5q-23 0 -39 -17q-27 -4 -67.5 4.5t-57.5 8.5q-16 -18 -45 -19q-51 0 -47 2q-16 18 -37 4q-47 -16 -71 -16q-23 0 -41 12q-12 -10 -33 -10q-8 0 -24.5 2t-24.5 2q-37 0 -49 -37q14 -47 14 -131q-2 -100 2 -135l-8 -12q4 -41 0 -97q-4 -74 -4 -88q0 -53 12 -94 q-4 -20 7.5 -37.5t23.5 -33.5q14 -8 33 -31q-41 -8 -84 -20.5t-72 -37.5q-84 -6 -139 -61h-11q14 27 16.5 83t8.5 79q-6 33 -2 110q6 76 0 111q-8 10 -4 33q4 18 6 37q-8 25 -2 67q8 63 8 70q4 18 4 41q0 25 -8 78t-8 80q0 20 4 36q-18 45 -70 129v17q12 -10 43 -12 q23 8 31 34q4 20 8 41q-12 31 -10 95.5t-8 95.5q16 16 16 43q0 10 -10 65q-8 41 2 58q-2 37 -25 108l-18 33q-10 20 -31 14q0 14 22.5 15.5t26.5 9.5q16 12 66 29q41 12 61 32q92 4 125 51q-2 -104 -6 -309q-2 -6 -9 -16t-7 -17q0 -6 4 -12q4 -14 -8 -170q14 -47 8 -188 q25 -33 41 -33q10 0 18 12l4 4q14 -16 50 -4q4 8 10 2q8 -8 10 -6q35 18 104.5 8t102.5 5q4 -12 16 -11q12 2 22.5 8.5t18.5 6.5t27.5 -11.5t30.5 -11.5q14 0 24 14q20 4 55 -16q37 2 48 4q25 4 41 21q23 -29 47 -29q10 0 18 4q43 37 43 70q-16 33 -13 101.5t-9 98.5 q6 25 6 84v2q0 57 4 80q-4 59 -8 84q-10 45 -35 80q-27 20 -25 29q10 -2 21 -2q27 0 72.5 25.5t66.5 31.5q59 8 125 57q-6 -66 0 -196q-8 -82 -8 -420q-20 -78 2 -125q4 -16 -7.5 -45t-11.5 -41t6 -23q-6 -8 -6 -18q0 -8 7.5 -24.5t9.5 -22.5q2 -84 -11 -502q6 -20 19 -63 q-4 -39 37 -70q2 0 20 -10z" />
<glyph unicode="i" horiz-adv-x="944" d="M397 70q-131 -25 -282 -121l16 20q6 39 2 99q-6 47 -10 92q10 14 9 37.5t3 33.5q-12 16 -8 45q6 39 6 52q6 20 0 63q-4 39 6 60q-8 6 -8 18q0 4 2 14.5t2 14.5q0 12 -8 18q0 162 -4 467q23 35 -8 86q-4 10 -4 21q0 12 5 34.5t5 34.5t-6 25q2 27 16 86q-10 20 -22 119 q-10 74 -62 106q18 18 64 35q61 25 73 31q39 16 81 33.5t69 43.5q0 -12 -8 -65q-8 -41 -4 -70q-4 -10 -5 -22q0 -10 4.5 -27.5t4.5 -28.5q0 -10 -4 -20q-6 -33 -7 -72q0 -41 8.5 -123t8.5 -125q0 -49 -8 -90q0 -94 16 -247q-16 -20 -16 -46q0 -12 7 -38.5t7 -40.5 q0 -12 -4 -23q2 -102 -6 -151q10 -41 8 -138q-2 -88 14 -135q6 -37 12 -51q10 -29 35 -43v-12z" />
<glyph unicode="j" horiz-adv-x="948" d="M424 -106q-31 -8 -86 -33q-39 -6 -92 -27q-45 -18 -88 -35l-23 -18q-14 -10 -24 -10q-8 0 -15 6q-10 0 -28 4q-16 -10 -48 -4q-45 8 -47 8q-63 33 -65 33q-6 0 -10 -2q-6 0 -14.5 9t-12.5 9q-37 12 -113 33q14 12 21.5 36.5t13.5 47.5q43 -29 72 -10q14 4 22 -7 q115 20 154 -10q25 8 52.5 16.5t37.5 32.5q-12 199 4 293q-12 16 -3 55t-11 56q16 193 0 293q8 10 2 41.5t12 44.5q-25 102 6 170q-20 256 -10 360q6 14 6 31q0 18 -12 63q-10 39 -6 64q-18 27 -56 80q111 16 207 86q20 2 53 16t46 16q-10 -16 -11 -53v-57q-4 -20 -16 -39 q10 -45 8 -109q-4 -55 -8 -112q8 -20 2 -70.5t6 -77.5q2 -29 -8 -86v-166q12 -31 12 -71q0 -16 -6 -86q-6 -53 -2 -90q-6 -43 -5 -134.5t-7 -138.5q12 -18 8 -53q-2 -43 0 -55q-8 -25 -2 -62q4 -47 2 -65q4 -76 8 -101q8 -55 29 -98q4 -10 21.5 -14t23.5 -10z" />
<glyph unicode="k" horiz-adv-x="1564" d="M1403 -256q-14 4 -43 -4t-43 -8q-12 0 -23 4q-33 39 -110 117q-72 72 -105 118q-20 20 -45 68q-49 70 -162 197q-16 14 -43.5 65t-56.5 70q-25 39 -72 121q-45 53 -211 294q-31 61 -63 72q-8 2 -16 2q-18 0 -66 -53q-14 -12 -14 -31q0 -8 5 -28.5t5 -28.5q4 -61 4 -180 q12 -12 4 -35q-12 -29 -12 -35q0 -12 14 -23q4 -25 -2 -69q-8 -55 -8 -76q0 -45 22 -76q0 -78 19 -108q20 -8 55 -39q-18 -18 -70.5 -17.5t-70.5 -27.5q-6 4 -14 -2q-14 -8 -17 -8q-43 -12 -121 -60q-10 -10 -30 -26q20 25 20 65v27q-2 16 -2 24q0 33 12 56q4 23 -12 38 q-4 6 -4 13q0 10 10 30.5t10 30.5q0 14 -14 29q-14 180 6 647q-25 20 -9.5 60t-4.5 61q-2 98 4 280q-16 12 -6 38t-4 38q2 51 -47 131q6 4 80 33q68 27 116 72q16 -6 40 13t32 19q6 0 12 -4q-8 -10 -9 -34.5t-5 -30.5q-4 -12 -4 -29q0 -14 6 -60t6 -79q0 -31 -4 -57 q-8 -16 -8 -37q0 -6 6 -49q2 -31 -2 -51.5t-6 -219.5q27 -31 57 -18q47 57 111.5 115.5t87.5 87.5q41 45 133 131q43 51 151 155q102 100 146 156q45 -51 127 -86q6 10 22 4q-27 -12 -75 -47q-41 -43 -80 -86q-47 -49 -86 -70.5t-88 -79.5q-55 -66 -82 -84q-12 -6 -38 -33.5 t-46 -31.5l-25 -41q12 -53 86 -207q-6 -20 14.5 -48t18.5 -48q18 -16 36.5 -65.5t41.5 -67.5q6 -31 38.5 -70t43.5 -61q4 -14 37 -58q27 -33 26 -61q16 -18 39 -82q23 -53 51 -78q39 -76 49 -92q31 -51 64 -86q6 -20 25.5 -52t25.5 -48q31 -41 80 -132q29 -16 80 -63z" />
<glyph unicode="l" horiz-adv-x="1236" d="M987 84q0 -16 -22 -21q-33 -4 -39 -8q-20 -12 -66.5 -26.5t-73.5 -40.5q-8 14 -30 14q-37 -2 -39 -2q-29 -18 -39 -6q2 0 -47 0q-25 -2 -41 16q-16 -20 -58 -14q-45 8 -59 0q-14 -2 -22 6q-45 -4 -146 4q-14 -10 -39 -10h-39q-14 31 -53 12l-12 -8t-23 -6l-12 12 q-6 76 4 232q-2 381 4 487q-6 20 -2 61q4 43 0 62q4 8 4 20q0 10 -8 54q-4 35 0 57q-14 176 -8 364q4 10 4 21q0 18 -10 49q-16 43 -17 45q0 16 -22.5 32.5t-22.5 25.5q0 4 4 8q47 2 115 32q82 37 115 46q23 16 73 40q-27 -20 -24 -69q0 -59 -8 -76q-6 -29 -6 -61 q0 -37 13 -111t13 -111t-10 -69l4 -203q-8 -8 -8 -18q0 -6 7 -21.5t7 -21.5q2 -104 -16 -144q16 -31 16 -78v-79q-16 -12 -2 -45q4 -12 0 -56q-2 -37 14 -57q-6 -43 -10 -86q-4 -49 12 -84q-14 -25 -2 -70q12 -27 39 -30q8 0 54 4q20 4 55 22q12 0 35.5 -14t34.5 -14 q16 0 26 18q4 2 8 2q6 0 16.5 -12.5t16.5 -14.5q14 8 60 2q39 -6 53 17q10 4 26 -12q57 14 189 8q10 -12 7 -38t7 -36z" />
<glyph unicode="m" d="M1761 68q-37 -4 -102 -29q-76 -29 -103 -35q-6 -2 -79 -39l-27 -12q-2 18 2 90q6 63 -6 92q10 315 8 352q20 10 4 37q-4 2 -4 11q0 8 5 29.5t5 31.5q0 18 -14 25q6 27 5 79t3 78q-18 31 8 74l2 55q0 31 -18 54v141q10 6 6 18q-6 20 -6 21q2 76 4 153q-2 92 -33 144 q-43 4 -114 -8q-6 -12 -15 -13q-4 0 -15 9.5t-17 9.5q-8 0 -15 -15q-39 8 -106 9q-78 0 -107 4q-23 -10 -24 -39v-45q10 -27 10 -60q0 -14 -3 -41.5t-3 -40.5q0 -41 18 -71q0 -16 -7 -50t-7 -49q0 -16 4 -28q2 -23 -2 -60q-6 -45 -6 -59q0 -33 14 -57q-18 -39 -12 -138 q6 -111 -2 -147q-10 -190 -4 -264q0 -2 5 -10.5t3 -14.5q-10 -8 -10 -18q0 -6 6 -21.5t4 -23.5q-2 -59 35 -99q4 -8 26 -18q16 -6 17 -21q-14 6 -29 7q-20 0 -57 -16.5t-52 -20.5q-25 -20 -90 -38t-92 -42q-4 29 4 83t4 79q-4 33 2.5 86t1.5 84q20 66 -4 106q10 80 -8 100 l12 316q-10 12 -4 37.5t-4 36.5q8 76 4 133q10 10 4 34.5t9 34.5q2 39 -21 113q18 27 8 55l-8 25q6 10 0 35q-4 25 4 36q-2 4 -10 58q-4 33 -37 41l-72 2q-43 0 -65 -23q-37 2 -121 13q-18 8 -37 4q-29 -8 -33 -8q-12 0 -24 8q-29 -10 -31 -37t-4 -51q20 -10 4 -35 q-8 -8 0 -51q-4 -98 8 -291q-18 -45 -8 -109q-2 -121 4 -319q-23 -20 -7.5 -62.5t-4.5 -62.5q6 -33 6 -68q0 -33 -6 -67q-12 -6 -6 -17q6 -14 6 -18q4 -29 8 -58.5t21 -50.5q0 -16 12 -26.5t22 -22.5q16 0 21 -14v-6q-2 -2 -90 -27q-55 -14 -84 -41q-12 -2 -39 -15.5 t-45 -11.5q-23 -14 -70 -36q27 14 27 30q4 70 -8 219q16 12 10 40t2 38q-8 29 0 101q-6 49 0 139q4 121 4 151q0 63 -8 111q14 10 -4 39q-4 8 -4 18q0 12 6 35t6 35q0 18 -8 35q18 16 9 52t5 50q-14 14 -5 49t-5 54q-2 6 -2 12t4 20.5t4 22.5q0 14 -10 25q8 70 0 86 q8 4 8 16q0 29 0 22q-6 39 -43 107q-4 6 -37 20q6 6 28.5 9.5t30.5 15.5l123 39q80 27 131 63q23 -18 67 -8t62 -4q6 -2 15 -2q6 0 19.5 4t19.5 4q12 0 22 -10q63 16 78 8q8 -18 21 -18q8 0 25.5 9t23.5 9h116l13 -8q20 -6 55 0q41 8 51 8q27 0 47 -12q6 -6 35 8q8 6 35 2 t37 -2q45 2 137 -4q2 0 11.5 8t15.5 8q4 0 10 -4q12 -18 55 -8q10 10 41 6q33 -6 43 -2q37 -2 113 4q8 -12 24 -8q20 6 27 4q10 4 41 0q33 -4 43 4q27 2 35 -16q0 -12 -9.5 -44t-9.5 -48q0 -23 13 -41q-12 -10 -13 -27q0 -8 5.5 -26.5t3.5 -26.5q6 -43 0 -113 q-8 -88 -9 -112q0 -51 13 -90q-18 -45 -6 -166q-8 -6 -9 -17q0 -6 6.5 -20.5t4.5 -22.5q0 -49 -9 -145q8 -18 9 -51q0 -14 -2.5 -46t-2.5 -47q0 -33 9 -51q-16 -39 -15 -98q4 -49 9 -98q-16 -51 14 -166q6 -16 30.5 -28.5t30.5 -22.5z" />
<glyph unicode="n" horiz-adv-x="1832" d="M1298 70q-14 0 -34.5 -14.5t-32.5 -14.5q-8 0 -19 6q-27 -18 -100 -45q-66 -25 -94 -49q-6 14 -6 29q0 14 5 42.5t5 45.5q0 12 -2 24q-4 23 2 66q8 55 8 69q0 33 -12 58q14 25 14 61q0 6 -12 90q-6 55 8 90q4 70 -10 205q18 14 18 35q0 4 -12 45q-8 29 4 49q-8 23 -3 70 t-7 76q10 111 12 188q-10 10 -10 23q0 8 6 26.5t6 28.5q0 12 -8 24q2 35 -8 97q-47 55 -86 43q-6 2 -18.5 -9.5t-16.5 -11.5q-8 0 -14 15q-8 4 -21 4q-14 0 -41.5 -9.5t-40.5 -9.5q-25 0 -41 21q-12 6 -32.5 -4.5t-26.5 -10.5q-12 0 -23 21q-16 -23 -46.5 -7.5t-47.5 -4.5 q-33 -12 -76 0q-10 -4 -24 -5q-12 0 -39 6.5t-39 6.5q-33 0 -49 -39q10 -55 9 -172t9 -176q-8 -31 -7 -96.5t-11 -98.5q10 -14 4 -44t1 -45t7 -34q0 -20 -11 -68.5t-9 -74.5q12 -6 16 -25q4 -29 6 -30q-14 -14 -12 -56q2 -55 1 -58t-1 -153q-2 -90 26 -149q35 -43 52 -39 q2 -6 14 -19q-8 4 -16 5q-10 0 -35 -11.5t-39 -11.5q-6 0 -14 2q-33 -12 -35 -14q-18 -8 -29 -25q-18 4 -44 -15.5t-38 -19.5q-8 0 -16 4l-47 -28q0 92 16 264q4 14 -7 42t-11 42q0 12 6 22q-2 133 8 402q-12 45 0 137q0 -12 4 82q2 49 -14 76q10 14 10 31q0 6 -3 20t-3 23 q0 14 8 28q0 8 2 88q2 49 -14 82q12 23 8 55q-8 57 -8 58q0 16 -51 63l-25 -4q18 18 67.5 28.5t67.5 31.5q20 0 54 13t53 11q72 47 123 47q14 0 26 -4q12 -18 25 -18q10 0 27.5 12t27.5 12t20 -12q12 0 37 -4t37 -4q33 0 56 24q31 -20 40 -4q12 -6 27 -6q10 0 29.5 5t29.5 5 q20 0 35 -22q37 14 119 6q6 8 12 8q4 0 15.5 -10t19.5 -6q45 20 84 20q35 0 62 -18q14 10 56 7t58 15q8 -12 6 -30q-6 -33 -6 -35q-12 -33 -12 -76q0 -23 5 -69t5 -68q0 -31 -6 -55q12 -20 12 -47q0 -18 -8 -54.5t-8 -54.5q0 -23 8 -41l-4 -158q-6 -8 -2 -28.5t-2 -32.5 q-6 -63 0 -186q-8 -12 -8 -29q0 -8 3 -26.5t3 -28.5t-2 -19q-4 -16 8 -47q-8 -29 -2 -99.5t-4 -99.5q4 -12 4 -24q0 -16 -9 -45t-9 -43q0 -25 22 -43q6 -49 25 -74q14 -2 30 -14z" />
<glyph unicode="o" horiz-adv-x="1863" d="M1362 104q-43 -12 -59 -12q-47 -27 -74 -22q-18 -20 -65.5 -32.5t-65.5 -27.5q-37 -6 -76 -6t-78 6q-49 -4 -145 -18q-37 16 -56 16q-20 0 -36 -12q-27 0 -55.5 2t-51.5 16q-43 -25 -59 2q-14 4 -31.5 -6t-24.5 -10q-10 0 -20 10q-20 -10 -45 -10q-10 0 -29.5 2t-30.5 2 q-27 0 -49 -12q-6 2 -29.5 16.5t-37.5 14.5t-29 -13h-47q-31 0 -45 -14q-6 16 -2 49q4 27 8 54.5t4 60.5q0 31 -6 87t-6 83q0 20 2 39q-14 14 -4 41.5t-4 42.5q10 270 8 292q-8 8 -8 15q0 6 8 17t10 18q-12 70 -8 186q6 137 2 186q0 16 3 62.5t3 70.5q0 72 -22 109 q4 29 -50 61q31 -6 78 27t74 33q10 0 20 -2q31 35 101 51q23 23 57 16q39 -25 74 0q23 -27 63 -12q4 2 16.5 10.5t20.5 8.5q6 0 15 -7q35 -29 65 0q20 -25 65.5 -13.5t61.5 -2.5q4 -2 8 -2q6 0 17.5 9t19.5 9q6 0 12 -6q18 -10 37 -10q16 0 45 8t45 8t31 -6q25 2 68 -2 q53 -4 69 -4q35 0 62 10q47 -14 65 -14q25 0 39 14q6 0 21 2v-47q-2 -31 -17 -47q-4 -14 4 -31q12 -27 13 -28q-6 -92 -8 -215v-279q0 -82 -5 -145q-12 -10 -4 -27q10 -23 11 -24q0 -10 -15 -19q2 -47 -4 -145q-4 -16 8 -29q4 -76 -4 -88v-201q9 -113 72 -166zM1079 1110 q-8 6 -8 16q0 6 2 15.5t2 13.5q0 10 -8 16q12 129 -10 224q-2 27 -47 30q-18 -12 -43 -12q-10 0 -39 4t-45 4q-37 -23 -58 4q-100 -18 -131 -8q-10 -6 -20 -6q-8 0 -27.5 8t-32.5 6q-20 -12 -51 -6q-27 4 -53 11q-4 -10 -18 -9h-23q-12 18 -27 19q-4 0 -36 -17 q-23 -10 -41 7q-37 -12 -35 -44q12 -74 12 -167q0 -49 -4 -156q-4 -98 -4 -150q-4 -25 -4 -65v0q0 -41 -4 -64q0 -6 8 -23.5t8 -25.5q0 -12 -12 -20q-4 -10 -4 -23q0 -12 7 -36.5t5 -37.5q-8 -43 -2 -131t1 -132t-9 -89q0 -53 15 -79.5t65 -22.5q63 6 79 0q6 -2 17.5 7 t17.5 9q8 0 13 -12q84 -6 256 -4q10 4 30.5 -3t30.5 -7q10 20 27 20q8 0 25.5 -7t27.5 -7q6 0 12 4q10 12 23 12q10 0 31.5 -13t33.5 -9q25 12 35 34q4 55 4 334q0 422 8 588z" />
<glyph unicode="p" horiz-adv-x="1460" d="M1141 1573q0 4 0 -86q0 -53 -19 -80q-37 -248 -204 -449q-10 -16 -39 -39.5t-37 -35.5q-23 -27 -85.5 -57.5t-86.5 -63.5q-8 4 -17 4q-12 0 -39.5 -16.5t-46.5 -10.5q-33 -10 -94 -43q-35 18 -76 -4q-57 4 -59 -30q-4 -82 2 -228q4 -137 -2 -225q12 -8 7 -26.5t1 -26.5 q23 -41 25 -43q16 -25 37 -31q-29 -2 -87.5 -25.5t-89.5 -27.5q-37 -14 -104 -66q-10 12 -10 29q0 6 10 45q4 29 -4 45q8 12 8 27q0 12 -8 26q-2 16 4 49t6 45q0 14 -6 27q10 10 10 27q0 8 -6 29.5t-6 31.5q0 12 6 23q14 31 -18 65q20 322 10 522q12 51 12 119 q0 35 -5 108.5t-5 110.5q0 33 2 62q-10 31 -21 61q-16 35 -40 53q29 6 77 35q16 8 84 23q51 12 76 37q23 12 53.5 16t59.5 6q37 -14 133 6q10 -29 43 -22q16 23 43 22q10 0 32.5 -5t32.5 -5q12 0 23 4q37 14 53 -6l80 2q6 -18 33 -2q29 16 137 6q14 -4 59 0q40 4 56 -12z M852 1300q-4 16 4 45t8 37q0 39 -43 39q-8 0 -21.5 -6t-19.5 -6t-12 6q-45 4 -129 -6q-18 16 -45 16q-14 0 -43 -5t-43 -5q-29 0 -47 12q-10 -12 -25 -12q-6 0 -21.5 5t-23.5 5q-10 0 -18 -6q-16 -25 -17 -57q0 -16 4.5 -48t4.5 -48q0 -20 -5 -39q-2 -47 2 -142 q-18 -90 -8 -139q-18 -45 -8 -100q18 -37 74 -19q27 23 67.5 39.5t79.5 32.5q12 10 101 64q63 39 82 84q27 33 49 90q16 47 35 94q2 24 18 69z" />
<glyph unicode="q" horiz-adv-x="1814" d="M1358 96q-25 2 -66 -14t-65 -16q-37 -10 -103 -50q-20 4 -55 -11t-49 -15q-23 0 -39 18q-10 4 -29 -14q-8 14 -22 14q-8 0 -22.5 -5t-20.5 -5q-14 0 -25 14q-70 -20 -84 -55q-4 -27 14.5 -65.5t14.5 -61.5q12 -29 45 -29l53 2q14 18 49 8t52 5q68 -16 135 -9 q12 -4 50 0.5t54 -0.5q25 -8 23 -34l12 -23q-6 6 -28.5 -9t-34.5 -15q-8 0 -15 4q-20 2 -51 -20.5t-49 -22.5q-6 0 -19 2q-8 -20 -24 -21q-4 0 -14.5 2t-16.5 2q-12 0 -22 -8q-16 16 -35 17q-8 0 -41 -11q-25 -10 -41 -2q-10 -4 -23 -4q-12 0 -36.5 5t-34.5 5q-29 0 -47 -22 q-14 -4 -37 5t-31 9q-12 0 -23 -6q-4 0 -14 11.5t-20 4.5q-12 -23 -31 -22q-10 0 -37 14.5t-41 14.5q-10 0 -22 -7q-10 2 -21.5 -8t-17.5 -10t-13 6l-110 4q-16 -14 -52 -5t-53 -11q-10 4 -53 2q-35 0 -49 18q12 16 12 39q0 8 -8 47q-8 31 -2 49q6 6 14 7q8 0 22.5 -6.5 t20.5 -6.5q8 0 15 6q25 -6 67 -4q57 2 76 0q63 4 78 0q16 10 54 7t54 6q6 0 22.5 -8.5t24.5 -8.5q14 0 23 15q2 4 16 26q10 16 11 27q0 10 -5 18q-20 14 -8.5 51t-5.5 54q-41 33 -74 18q-23 -18 -82 -5t-86 -15q-113 16 -141 2q-33 0 -98 -8l8 262q-14 10 -5 32.5t-9 32.5 q4 35 14 99q-12 51 -12 137q0 27 2 82v82q0 84 -12 135q2 12 10 39.5t8 42.5q0 20 -14 37q8 18 2 65q-6 41 10 59l-8 13v223q-12 8 -10 24.5t-3 22.5q0 41 -53 96q31 -6 71 24t68 26q31 14 89 47q18 14 43 14q10 0 28.5 -3t28.5 -3q31 0 51 22q41 -29 72 -20q10 14 30 12h35 q41 -14 60 4q8 2 26 -12q12 -4 33 0q25 6 31 6q14 0 24 -10q33 8 60 -6q20 -2 57 6t51 8q20 0 35 -8q10 0 27.5 5t23.5 5q14 0 29 -16l35 22q133 -10 198 0q8 -76 3 -264q-4 -168 12 -262q-10 -35 -10 -82q0 -23 3 -65t3 -62q0 -45 -11 -74q23 -47 23 -125q0 -33 -4 -96 t-4 -92q0 -63 14 -102q-16 -45 2 -187q9 -62 70 -82zM1075 197q-31 162 -12 352q-12 23 4 39q2 12 -6 34.5t-8 30.5q0 10 6 17q-2 70 4 209q-10 12 -10 26q0 8 3 21.5t3 19.5q0 16 -12 29q18 16 2 39q6 14 6 33q0 16 -5.5 47.5t-5.5 48.5q0 18 5 33q4 74 -9 223q-6 4 -22 28 q-12 18 -25 19q-6 0 -12 -4q-8 -29 -33 -21q-31 10 -43 -2q-10 12 -26 8q-27 -10 -29 -10q-10 0 -19 10q-14 -6 -48.5 -3t-51.5 -1q-6 6 -14 7q-6 0 -21.5 -10.5t-25.5 -4.5q-18 6 -63.5 4t-69.5 15q-35 14 -45 -11q-6 2 -66 0q-41 0 -64 13q-18 -4 -45 -37q18 -49 25 -109 q4 -41 0 -108q-2 -96 -2 -111q0 -88 4 -100q8 -371 0 -514q4 -41 10 -82q2 -45 -10 -76q0 -12 9 -32.5t9 -30.5t-5 -19.5t-5 -21.5q0 -27 31 -70q10 -4 20 -4q14 0 40 12t38 12q10 0 22.5 -6t20.5 -6q12 0 33 18.5t39 14.5q25 16 86 40.5t88 49.5q10 -2 23.5 9t17.5 11 q6 0 12 -6q-43 -55 -16 -137q59 -6 98 19l15 -13q-2 0 28 0q18 -2 23 13q14 -18 76 -19q20 11 28 64z" />
<glyph unicode="r" horiz-adv-x="1804" d="M1608 -211q-10 -8 -27 -8q-6 0 -21.5 2t-23.5 2q-25 0 -37 -18q-49 57 -162 153q-31 33 -71 94q-49 74 -72 101q-27 8 -48.5 49t-49.5 47q-25 45 -97 135q-68 82 -94 133q-51 51 -112 131q-102 135 -107 142q0 20 -24 34q-14 4 -27 5q-25 0 -65 -32t-64 -36 q-14 -8 -41 -29q-6 4 -14 4q-6 0 -20.5 -6t-22.5 -6q-6 0 -13 2q-43 -12 -37 -59q8 -61 0 -74q-2 -229 9 -369q16 -76 86 -110q-35 -8 -72 -15.5t-59 -29.5q-6 2 -13 2q-18 0 -37.5 -13.5t-38.5 -23.5q-33 4 -110 -45q0 180 4 328q10 63 0 147q0 70 10 209q-18 45 -10 213 q-14 12 -4 42t-8 42q16 14 16 29q0 8 -12 36q-8 20 0 37q2 10 -2 60q-4 39 10 61q6 12 -5 39t-11 37q0 18 16 31q-6 29 -14 55q-8 35 -4 59q-12 27 -26.5 55.5t-43.5 30.5q6 -4 12 -4q8 0 25.5 9.5t25.5 9.5q6 0 13 -2q49 31 155 69q29 14 88 33q12 8 31 6q25 -2 31 0h170 q4 4 24.5 -1t28.5 1q6 2 12 2q10 0 30 -6t30 -6q14 0 26 10q0 -2 41 -6q20 12 52 12q12 0 39.5 -3t41.5 -3q16 0 29 2q16 -14 58 -4t59 -4q27 14 61 14q12 0 36 -3t34 -3q29 0 51 10q23 -14 23 -47q0 -8 -2 -30.5t-2 -32.5q-8 -29 -35 -72q-29 -49 -37 -67q-37 -57 -57 -111 q-29 -18 -53.5 -69.5t-53.5 -67.5q-31 -51 -59 -68q-6 -16 -48 -44t-42 -50q0 -16 20 -35q10 -51 76 -141q6 -39 45 -96q43 -63 53 -97q31 -39 74 -127q35 -25 59 -75q37 -84 39 -86q14 -39 72 -103q2 -20 30.5 -48t30.5 -50q55 -80 99 -133q8 -39 55 -80q66 -60 78 -76z M940 1409l-31 35q-47 -23 -108 -23q-18 0 -80 4q-49 4 -82 2q-74 -18 -250 0q-37 -18 -37 -59q0 -14 8.5 -48t6.5 -48q-8 -82 6 -105q-14 -23 -5 -69.5t-6 -71.5q0 -82 -8 -182q20 -41 43 -45q37 20 104.5 70.5t102.5 72.5q12 27 61.5 51.5t61.5 55.5q98 78 125 168 q27 47 53 92q31 55 35 100z" />
<glyph unicode="s" horiz-adv-x="1617" d="M1210 104v-8q-10 -4 -23 3t-18 7q-6 0 -12 -4q-29 -23 -94.5 -41t-91.5 -41q-20 2 -64 -30q-37 0 -104 8q-96 0 -293 8q-8 -8 -27.5 -7t-29.5 -7q-31 2 -101 18q-18 -14 -59 -13t-60 -11q-23 18 -53 22q-20 4 -57 0q-51 -2 -62 -2q-12 -14 -34 -10q-27 6 -33 2 q-6 27 -6 80q16 -6 36.5 12.5t36.5 11.5q59 33 115 39q4 6 23 17q16 -8 34 -8q14 0 41 8t41 8q20 0 41 -14q94 16 131 -2q45 27 80 8q8 -6 17 -6q8 0 25.5 8t25.5 8q47 -2 141 -21q10 8 25 9q8 0 34.5 -7.5t43.5 -3.5q39 41 39 56q0 8 -7 16q-12 10 -12 19q0 8 10.5 22 t10.5 23q0 8 -7 16q2 4 2 10q0 8 -5 21.5t-5 21.5q0 12 13 23q-6 20 0 71q6 47 -11 70q-4 31 -4 64q0 27 4 75.5t4 75.5q0 33 -4 64q-6 23 -49 10q-8 -12 -22 -12q-4 0 -23 4q-14 4 -22 0l-9 10q-37 -23 -43 -23q-8 0 -16 9l-148 2q-16 -18 -57 -17q-49 4 -61.5 -2t-26.5 -6 q-12 0 -38.5 6t-39.5 6q-27 0 -43 -20q-117 12 -168 -4q-10 -4 -16 -4q-18 0 -28.5 32.5t-20.5 38.5q4 14 -8.5 31.5t-14.5 24.5q-4 150 0 438q-14 106 -61 147h-12q8 23 27.5 26t42 4t34.5 15q18 4 56 24.5t63 20.5q10 0 20 -2q29 27 109 43q18 -8 65 -3t66 -7q16 2 41 0 q31 -4 39 -4q35 0 59 25l221 -19q43 14 135 2q16 8 31 8q12 0 40 -9t46 -7q6 10 17 10q4 0 12 -2t12 -2q10 0 17 8q18 -2 22 -24q2 -33 8 -39q-14 -29 -65 -43t-66 -31q-23 -4 -46 -10t-36 -23l-102 7q-16 -20 -33 -5l-10 11q-20 -4 -49 -4q-23 0 -65 3t-62 3q-51 0 -84 -17 q-12 0 -41 4.5t-43 4.5q-37 0 -55 -23q-8 20 -25 23h-35q-14 2 -20 14q-14 0 -28.5 -10.5t-27.5 -20.5q-16 -41 9 -67q-4 -78 -5 -230q14 -8 15 -18q0 -6 -10 -27q-6 -16 0 -24q-10 -10 -5 -29q6 -14 13 -29q-4 -41 37 -86q18 -4 48.5 7.5t43.5 11.5q14 0 26 -9q31 8 105 0 q66 -6 102 11q23 -18 51 -19q12 0 40 5.5t42 5.5q12 0 25 -3q23 4 75 -4t70 -8q16 0 31 4q8 8 23 8q6 0 17 -2t17 -2q20 0 33 17q14 -25 31.5 -80t36.5 -80q-2 -8 2 -27q4 -16 -6 -24q-2 -57 6 -172q-10 -10 -10 -29q0 -6 2 -16v-19q0 -23 -17 -32q16 -72 12 -240 q23 -49 29 -59q20 -36 51 -46z" />
<glyph unicode="t" horiz-adv-x="1394" d="M1186 1509q-61 0 -137 -67q-8 2 -35 -19q-47 10 -121 -8q-12 12 -33 8q-31 -10 -33 -10q-12 0 -22 10q-12 -6 -29 0q-25 8 -33 9q-45 -10 -59 -48q2 -45 18 -139l-12 -282q8 -51 0 -193q4 -12 4 -29q0 -12 -4 -41.5t-4 -44.5q0 -29 12 -49q2 -31 -4 -90l8 -8 q-10 -123 0 -213q-10 -18 -10 -41q0 -10 6.5 -40t3.5 -50q14 -10 32 -41t36 -39q-41 -18 -131 -43q-14 -20 -43 -27q-35 -8 -49 -18q-16 6 -41 -15.5t-35 -25.5q18 31 18 117q-8 14 -4 41l4 43q4 27 -2 90q-6 57 2 88q-14 14 -6 41q12 39 13 43q0 14 -15 26q-2 23 4.5 54.5 t6.5 44.5q0 18 -9 35q-8 23 2 55q14 43 15 53q0 23 -19 41q4 33 4 102.5t4 104.5q-8 12 -1.5 50t-10.5 54q8 182 -6 260q6 12 6 25q0 12 -12 43q-10 25 -6 45q-72 25 -109 -10q-12 23 -35 22q-10 0 -32.5 -8t-30.5 -8q-12 0 -21 8q-37 -6 -106 4l-53 -12q-6 27 -27 80 q35 20 111 43q35 18 102 49q12 -16 29 -16q10 0 31.5 12t31.5 12q12 0 23 -12q14 8 30 8q10 0 33 -5t33 -5q8 0 17.5 4t23.5 4q10 0 32.5 -5t30.5 -5q18 0 31 14l133 -10q10 8 49 2q33 -6 45 16q6 0 21.5 -9t24.5 -9q10 0 16 12q14 -14 37 -12q10 12 26 12q4 -25 54 -12 q12 18 39.5 8t40.5 4q63 -10 94 6q-6 -14 6 -37.5t12 -29.5q0 -11 -16 -17z" />
<glyph unicode="u" horiz-adv-x="1847" d="M1337 125q-35 4 -84 -23q-59 -33 -82 -36q-6 -14 -27.5 -12.5t-27.5 -4.5q-23 -25 -61.5 -30t-75.5 -9q-8 8 -21 8q-6 0 -19 -3t-21 -3q-6 0 -13 2q-39 -6 -104 0q-37 -14 -80 -14q-20 0 -59 4t-58 4q-49 0 -88 -20q-20 0 -48 15t-40 15q-10 0 -31.5 -10t-31.5 -10 q-6 0 -13 2q-8 -6 -18 -6q-8 0 -27.5 7t-30.5 7q-10 0 -20 -8l-10 -6q-6 10 -26.5 7t-27 3t-14.5 6t-25.5 -10t-23.5 -10q-8 0 -14 10q14 20 14 51q0 12 -3 35t-3 35q0 25 10 41q-12 20 -14 65q-2 41 4 191q4 119 -8 180q12 49 12 104q0 25 -8 123q-6 78 0 131q4 45 1 150.5 t5 159.5q-14 23 -14 75t-15 74q6 51 -43 78q20 6 43 14.5t31 26.5q35 2 89 26.5t83 28.5q10 4 23.5 22.5t23.5 22.5q0 -41 -16 -123q-8 -94 8 -120q0 -66 -7 -174.5t-7 -157.5q0 -86 14 -164q-10 -6 -10 -18q0 -6 3 -16.5t3 -14.5q0 -12 -10 -21q2 -4 0 -47q0 -31 14 -49 l-14 -24q10 -66 10 -150q0 -39 -3 -112.5t-3 -108.5q0 -80 10 -141q10 -29 39 -39q25 4 69 26q16 4 47 -5t44 -9q20 0 36 14q37 -16 121 -8t119 -4q8 10 23 8q4 -8 24 -8q47 6 53 4q6 -8 15 -8q4 0 17 7t22 5q8 -27 30 -26q16 0 35 12q29 39 19 106q-10 20 0 31q4 59 2 182 q8 14 3 54t1 51q-10 104 -6 276q6 201 2 283q-14 14 -4 43t-5 43q-4 23 4.5 57.5t8.5 46.5q0 29 -23 49q8 59 -47 132q41 6 108.5 36.5t110.5 36.5q6 8 37 23q25 10 33 30q-4 -33 -4 -114v0q0 -84 -4 -125q8 -8 8 -19q0 -6 -6 -26q-4 -16 2 -27.5t6 -27.5q0 -12 -7 -38 t-7 -38q0 -18 12 -33q-8 -145 4 -211q4 -61 -8 -178q0 -10 8 -35t8 -37q0 -20 -12 -35q8 -12 8 -28t-8 -31q-12 -14 8 -31q-25 -78 -4 -192q-14 -8 -4 -25.5t-4 -25.5q12 -20 -10 -54q14 -20 19 -66t22 -69q0 -10 19 -23.5t19 -19.5t-4 -8z" />
<glyph unicode="v" horiz-adv-x="1482" d="M1153 1606q-25 -16 -37 -47q-14 -37 -31 -56q-2 -25 -20 -79t-18 -87q-23 -49 -50 -137q-31 -98 -47 -137q-37 -92 -92 -277q-6 -8 -10 -35.5t-10 -37.5q-20 -23 -33.5 -76t-30.5 -74q-6 -12 -14 -57q-6 -37 -25 -53q4 -14 -11 -33t-15 -29q0 -4 4 -10q-14 -43 -51 -125 q-2 -12 -15.5 -34.5t-11.5 -39.5q-16 -23 -53 -49.5t-52 -46.5q-16 -33 -74.5 -90t-70.5 -94h-4q14 14 14 32q0 14 -14 50t-10 59q-23 57 -82 256q-12 25 -30.5 74t-31.5 73q-6 37 -28.5 117t-28.5 119q-18 8 -17 43t-16 43q-51 135 -76 229q-27 82 -26 101q-31 96 -60 194 q-37 117 -90 187q-51 27 -67 26q-12 0 -25 -4q16 10 66.5 20.5t70.5 32.5q33 16 105 43q25 18 80 43q-4 -10 -4 -22q0 -23 21.5 -68t17.5 -71q35 -117 88 -303q0 -10 11 -32t11 -34q0 -6 -2 -12q37 -57 76 -219q37 -78 35 -123q23 -53 53 -166q18 -35 35 -96q18 -84 24 -101 q4 -49 11 -69q10 -37 38 -50q33 0 70 58q4 33 9 68.5t26 58.5q31 92 92 278q18 45 51 131q2 39 24.5 104.5t24.5 102.5q37 92 78 248q47 180 72 252q68 31 110 8q23 7 66 23z" />
<glyph unicode="w" d="M1735 106q-8 8 -17 9q-8 0 -26.5 -9.5t-30.5 -5.5q-68 -49 -148 -55q-16 -18 -57 -25.5t-53 -23.5q-16 8 -50 3t-53 11q-41 -16 -114 -8q-14 8 -53 2t-58 6q-29 -8 -31 -8q-10 12 -42.5 4t-45.5 8q-14 2 -44.5 -8t-43.5 -10q-12 0 -22 6q-31 6 -98.5 2t-102.5 6 q-16 -8 -72.5 -2t-80.5 -12q-63 8 -156 4q-113 -4 -152 -4q-29 0 -88 -23q29 14 29 43q0 4 -2 17v18q0 14 4 27q-4 43 -4 133q-12 4 -12 12q0 4 7 16.5t5 18.5q4 10 0 29q-4 20 -4 24q0 14 8 23q0 16 -16 39q2 139 4 403q0 29 8 84l-8 8q6 51 6 109q0 57 -8 176 q-8 113 -9 172q2 100 -65 141q8 8 32.5 11.5t32.5 11.5q37 14 111 41q25 18 79 35.5t73 29.5q-27 -80 -27 -106q0 -33 18 -57q-10 -41 -10 -93q0 -25 3 -70.5t3 -68.5q0 -68 -18 -113q14 -78 18 -182q2 -70 -2 -192q-4 -135 -4 -185q10 -20 10 -39q0 -20 -10 -40v-154 q-2 -90 29 -143q45 -23 61 -13q35 25 76 13q10 -6 21 -7q14 0 34.5 15.5t30.5 15.5q14 0 27 -18q12 12 26 12q8 0 30 -8t34 -4q10 -14 26 -15h31q14 8 27 52q-12 33 -13 81q0 20 3.5 63.5t3.5 61.5t-2 35q-6 27 -13 53q-4 33 8 54q-6 23 -2 61q4 47 2 66q-8 18 -8 39 q0 14 6.5 43.5t6.5 44.5q0 27 -15 49q23 29 7.5 83t7.5 83q2 31 -8.5 92t-10.5 92q0 25 4 45q-10 109 -8 121q-8 90 -68 115q51 14 146 57q23 -6 53 12q39 25 51 27q23 8 62 39q-20 -119 -17 -336q6 -10 2 -41q-6 -31 -2 -43q6 -10 4 -32.5t3 -33.5q-6 -29 -7 -63 q0 -27 6.5 -83t6.5 -85q0 -41 -11 -74l11 -12q2 -49 -4 -135q-6 -98 -7 -127q-8 -18 2 -45q12 -35 13 -43q0 -18 -17 -33q0 -25 9 -55q10 -43 12 -56q-10 -14 -10 -34q0 -12 7 -39t7 -39q0 -10 -4 -21q23 -47 96 -30q10 18 29 18q6 0 20.5 -3t22.5 -3t14 2q8 -25 43 -8 q4 4 41 8q4 -18 19 -19q6 0 21 5.5t22 5.5q6 8 22 8q20 -37 66 -23q27 23 26 56q0 12 -6 40.5t-6 45.5q0 14 4 26q4 90 0 271q-10 12 -6 36q2 18 6 39q8 20 -2 54q-10 43 -10 53q0 23 16 39q0 20 -16 53q4 16 0 45q-6 39 -6 47q0 27 12 45q-6 37 -2 236q4 141 -45 229 q-20 18 -35 15q14 12 48 23t50 24q27 2 72 25.5t66.5 29.5t45 13t31.5 24q6 -8 6 -15q0 -8 -11 -24.5t-11 -26.5q8 -29 2 -73q-8 -66 -8 -78q0 -29 10 -52q2 -16 -4 -67q-4 -41 8 -66q2 -8 -4 -22t-6 -19q0 -10 10 -16q-18 -133 -8 -199q0 -6 8 -17t8 -17q0 -8 -12 -17 q8 -80 8 -180q0 -59 -6 -203q-4 -131 -2 -205q0 -92 31 -145q2 -14 25.5 -28.5t23.5 -20.5q0 -7 -10 -15z" />
<glyph unicode="x" horiz-adv-x="1488" d="M1206 106q-14 -10 -47 -9t-47 -13q-37 -2 -90 -31q-59 -33 -88 -39q-14 -2 -39 -22.5t-39 -22.5q-14 45 -63 127q-10 39 -54.5 108.5t-50.5 110.5q-33 51 -88 160q-4 10 -41 66q-27 39 -27 71q-31 45 -55 45q-8 0 -14 -4q-39 -18 -64 -80q-29 -70 -53 -88 q-29 -43 -65 -137q-23 -37 -76 -100q-47 -92 -96 -152q-4 -16 -29 -48t-23 -56q-29 4 -57 8q-27 2 -55 -14q-10 6 -19 6q-14 0 -38.5 -15.5t-30.5 -17.5q51 45 96 115q39 61 76 123q18 10 26 32q8 31 13 37q45 51 116.5 165t114.5 163q27 47 82 151q37 10 22 82 q-20 23 -53 86q-31 57 -59 82q-31 43 -78 133q-33 61 -119 179q-14 90 -160 200q-6 0 -59 -10q23 39 82 27q16 12 70 32q45 18 63 41q31 4 37 5q20 6 27 22q8 0 19 11.5t13 13.5q14 -43 76 -131q57 -80 70 -134q43 -68 114 -215q4 -8 58 -77q39 -49 37 -93q27 -41 73 -22 q29 53 86 156q29 25 62 90t72 92q74 170 157 270q10 -10 23 -10q10 0 28.5 8t26.5 8q10 0 18 -6q63 -6 99 23q0 -12 -8.5 -19.5t-18.5 -13.5q-10 -12 -65 -64q-39 -35 -52 -73q-59 -96 -114 -150q-2 -27 -36 -63.5t-36 -65.5q-31 -39 -102 -153q-63 -98 -113 -150 q-2 -16 12.5 -37.5t14.5 -32.5l32 -43q18 -27 19 -47q37 -51 86 -157q23 -35 65 -109q-2 -20 45 -74q35 -57 70 -116q33 -51 98 -105q43 -37 123 -29z" />
<glyph unicode="y" horiz-adv-x="1527" d="M1182 889q-6 12 -39 12q-4 -12 -23.5 -14t-23.5 -17q-14 4 -35 -8q-43 0 -105 -26q-49 -20 -100 -43q-20 23 -72 10q-14 -16 -41 -17q-10 0 -33.5 3.5t-35.5 3.5q-20 0 -35 -9q-20 -18 -10 -82l10 -14l-2 -409q10 -23 8 -82q-4 -51 19 -76q0 -20 20.5 -35.5t38.5 -30.5 q-14 6 -29 6q-27 0 -77 -26.5t-74 -30.5l-62 -27q-37 -16 -53 -38q27 72 12 190v184q-10 14 -8 68q0 61 -2 74q-8 61 -4 143q4 72 8 143q-16 31 -35 39h-53q-33 2 -47 -18q-14 -2 -40 6t-36 8q-14 0 -24 -8q-23 -10 -79.5 -9t-80.5 -18q-25 6 -29 31t-8 47q-31 66 -33 172 q-2 94 -6 191q0 18 3 65t3 74q0 147 -82 192q25 4 78 31q8 -4 15 -4q12 0 34.5 17.5t40.5 11.5q16 20 68 33q45 12 59 36l-12 -24q2 -104 -2 -289q-8 -236 -8 -285q8 -8 8 -31.5t4 -31.5q10 -27 21.5 -54.5t35.5 -39.5q12 2 38 12t38 10t23.5 -6t21.5 -6q16 0 47 17.5 t49 13.5q66 37 105 34q4 4 82 56q4 -10 4 -29v-22q-2 -14 -2 -23q0 -61 51 -61q14 0 34.5 12t31.5 12q12 0 26 -14q10 18 27 18q10 0 26.5 -6t24.5 -6q18 0 25.5 27.5t7.5 56.5q0 27 -9.5 81t-9.5 81q0 31 7 57q0 2 -7 53q-4 29 7 52q-6 141 -64 210q18 -4 52 18.5t57 16.5 q10 14 35.5 18.5t33.5 16.5q45 10 121 55q-16 -12 -16 -32q0 -6 2 -19.5t2 -19.5q0 -18 -17 -31q18 -147 7 -225q12 -164 8 -303q31 -90 84 -109v-10z" />
<glyph unicode="z" horiz-adv-x="1353" d="M1026 92q-59 0 -145 -63q-23 2 -47.5 -10.5t-45.5 -24.5q-29 8 -84 8t-83 8q-8 -8 -21 -8q-6 0 -18.5 2t-18.5 2q-14 0 -22 -12q-45 16 -64 12q-33 -20 -108 -12q-12 18 -45 4q-14 6 -45 0q-6 -2 -15 -2q-10 0 -28.5 5t-26.5 5q-18 0 -33 -18q-35 23 -49 18 q-8 -18 -21 -18q-6 0 -20 12t-23 12q-6 0 -12 -6q-10 -2 -34.5 2t-32.5 4q-27 0 -41 -18q-14 -6 -58 -4q-33 0 -55 -19q33 29 98 135q66 88 113 179q35 29 63.5 103.5t59.5 103.5q0 20 21.5 49.5t21.5 48.5q20 14 35.5 52t31.5 52q10 27 44 79t42 77q20 20 43 67.5t41 67.5 q2 27 30 67t30 64q43 66 57 90q29 53 41 97q57 86 57 133q0 12 -2 24q-18 23 -39 23q-8 0 -15 -6.5t-30.5 -6.5t-31.5 -10q-6 2 -23.5 11.5t-25.5 9.5q-12 0 -22.5 -12.5t-37 -2t-41 -4t-37.5 -14.5q-10 0 -32.5 5t-32.5 5q-25 0 -39 -14q-10 6 -21 6q-8 0 -23.5 -8 t-25.5 -8q-8 0 -16 4q-6 -10 -14 -11q-6 0 -19.5 8.5t-21.5 8.5t-17 -10q-12 6 -24 6q-16 0 -43 -10.5t-37 -10.5q-25 0 -31 41q-12 14 -23 70q-10 45 -36 61q98 -16 127 -10q0 2 26 6q8 -12 19 -12q6 0 19 5t20 5q8 0 12 -6q66 12 262 8q6 6 14 6q6 0 20.5 -6t22.5 -6 q10 0 19 6q16 16 47 10t47 2q16 -23 33 -8l4 4q16 -29 49 -14l14 14q10 -4 23 -4q14 0 40.5 6.5t39.5 6.5q10 0 24.5 -5.5t20.5 -5.5q8 0 22.5 5.5t20.5 5.5q10 0 18 -9q10 0 30.5 -4t31.5 -4q25 0 39 23q-4 -14 9 -43t13 -41q0 -16 -18 -29q-12 -43 -25 -86 q-14 -51 -39 -80q-2 -41 -52 -97t-56 -95q-12 -20 -66 -131q-39 -80 -82 -125q-6 -31 -41 -83t-39 -81q-25 -29 -26 -68q-39 -29 -66 -88q-37 -84 -47 -98q-18 -14 -38.5 -55t-37.5 -58q-6 -29 -51 -88q-41 -49 -35 -90q33 -37 58 -41q6 -4 12 -4q12 0 27.5 13.5t23.5 13.5 t19 -11q16 14 38 15q10 0 32 -4t32 -4t18 4q82 -12 113 12q53 2 156 -12q14 2 28 6q16 4 27 -4q4 -6 27 -6q6 4 36.5 3t38.5 19q8 -8 37 -4q20 4 27 -14q-6 -8 -6 -17q0 -6 8 -21.5t8 -25.5z" />
<glyph unicode="&#xc4;" horiz-adv-x="1945" d="M1366 1817q-12 -16 -65.5 -36t-67.5 -38q-8 25 -12 24q-29 -33 -82 -24q-61 8 -88 -4q-10 0 -74 13t-90 13q-14 0 -23 -2q2 8 4 15q10 16 6 20q6 0 53.5 18.5t53.5 24.5q25 2 39 22.5t39 20.5q170 0 190 -6q12 16 27 16q10 0 27.5 -10t27.5 -10q14 0 29 14q2 -30 6 -71z M557 1775.5q-55 -34.5 -65 -28.5q-6 4 -17 4q-10 0 -29.5 -13.5t-27.5 -13.5q-14 0 -25 25q-10 4 -20 4q-14 0 -37 -12t-33 -12q-14 0 -27 18q-39 -10 -71 -10q-43 0 -84 12q4 8 0 14q-4 8 2 15q4 -2 10 -2q23 0 80 48t74 46q35 12 100 8q96 -2 225 -23q8 -4 6 -22 q-4 -37 -5 -30t-56 -27.5zM1450 84q-35 4 -93.5 -24.5t-92.5 -26.5q-45 -23 -136 -74q-6 4 -6 8q0 6 9.5 17.5t9.5 17.5q-6 39 -2 111q4 82 2 116q-12 20 -13 64q0 51 -6 69q-6 6 -6 11q0 4 8.5 15t8.5 18q0 6 -8.5 16t-8.5 20t8.5 31t8.5 33q0 14 -15 26q12 18 4 48 q-8 41 -8 45q0 18 12 32q0 6 -6 39q-4 20 6 37q-2 27 -4 56.5t-35 35.5q-25 4 -69 -8q-53 -12 -76 -12q-27 0 -49 10q-25 0 -67 -9t-70 -9q-4 14 -17 14q-4 0 -20 -4q-12 -4 -19 0q-8 -18 -16 -19q-6 0 -19.5 12.5t-21.5 12.5q-10 0 -20 -16q-4 4 -11 4q-4 0 -16 -6.5 t-16 -6.5q-12 0 -19 19q-20 -14 -59 -14q-18 0 -51 3t-50 3q-72 0 -61 -80q12 -31 12 -70q0 -12 -4 -67q-2 -41 0 -68q-10 -53 4 -80q4 -8 4 -16t-7 -25.5t-7 -25.5t6 -17q2 -16 -2 -43q-2 -33 -2 -45q0 -37 18 -61q-4 -8 -4 -17q0 -14 43 -78q29 0 39 -26q-14 4 -26 4 q-27 0 -78 -30.5t-86 -24.5q-10 -6 -66 -27q-43 -14 -61 -43q-2 -4 -12 -4q27 14 24 53v64q-10 10 -10 24q0 10 7 30.5t7 29.5q0 12 -8 20q0 16 4 51t4 52q0 37 -16 63q8 43 4 125q4 102 4 313q-20 84 -74 158v8q35 -10 62 8q20 23 16 62q-6 47 0 63q-8 20 -8 45q0 16 6 51 t6 56q0 16 -4 33q-12 6 -12 20q0 4 2 14.5t2 14.5q0 12 -14 18q0 10 4 39q4 23 2 35q-4 18 -19 33q6 12 -20 51q-8 2 -23 14q59 12 164 51q31 -2 79 19.5t73 21.5q12 0 22 -2q8 4 17 4q10 0 28.5 -7t28.5 -7q8 0 14 4t13 4q6 0 18 -6t18 -6q8 0 17 10q8 -10 20 -10 q6 0 24.5 8t29.5 6q4 -12 23.5 -5t29.5 -11q8 -8 16 -8q10 0 24.5 15t20.5 15q10 0 19 -22q2 -2 22 8q8 -8 19 -8q10 0 30.5 11t28.5 11q10 0 18 -6q14 -4 56 2q35 4 53 -8q14 4 33 -8q16 12 39 12q10 0 27.5 -2t27.5 -2q25 0 43 15q14 -25 43 -19q14 16 39 8q37 -12 41 -12 q16 0 29 14q8 -6 14 -10q10 -6 16 0q12 18 13 19h10q-14 -10 -12 -41t-3 -41q2 -164 -4 -478q8 -27 9.5 -96t13.5 -104q-14 -16 -4 -50t-6 -51q-2 -125 10 -395q-6 -18 0 -45l8 -82q8 -53 27 -84q6 -2 24 -24q12 -16 29 -13v-14zM1094 1235q-27 16 -17 61t-4 64 q-29 -4 -47 21.5t-35 48.5q-33 23 -61 22q-18 0 -31 -8q-20 14 -43 14q-16 0 -50 -12t-52 -12q-14 0 -29 6q-2 0 -10 6t-10 6q-6 0 -9 -8q-10 -6 -18 -6q-14 0 -35.5 15t-32.5 15q-12 0 -22 -16q-133 10 -266 10q-25 -29 -14 -94t-3 -94q12 -27 12 -60q0 -10 -4 -55 q-4 -37 -2 -59q-4 -33 2 -78q4 -37 -6 -53q29 -37 53 -47q16 12 46 12q10 0 30.5 -2t28.5 -2q27 0 43 14q6 4 14 4t22.5 -10t22.5 -10q6 0 11 2q14 16 42.5 12t38.5 2q16 -18 39 -18q12 0 37 7t37 7q14 0 27 -6q35 -4 65 -4q31 0 66 4q8 -8 24 -8q6 0 22.5 2t22.5 2 q14 0 21.5 -6t15.5 -6q18 0 51 26q0 4 5.5 14.5t5.5 16.5t-6 12q-6 53 -5 119q7 123 7 129z" />
<glyph unicode="&#xd6;" horiz-adv-x="1863" d="M1294 1812q-12 -16 -66 -35.5t-67 -37.5q-8 25 -12 24q-31 -33 -82 -24q-61 8 -88 -4q-10 0 -73.5 13t-90.5 13q-14 0 -22 -2q2 6 4 15q10 16 6 20q6 0 53 18.5t53 24.5q25 2 39.5 22.5t38.5 20.5q27 0 94.5 -3t96.5 -3q12 16 26 16q8 0 26.5 -10t29.5 -10q14 0 28 14 q2 -31 6 -72zM567.5 1771.5q-55.5 -34.5 -65.5 -30.5q-8 6 -17 6q-10 0 -29.5 -13.5t-27.5 -13.5q-14 0 -27 23q-8 6 -18 6q-14 0 -36.5 -12.5t-33.5 -12.5q-14 0 -26 19q-39 -10 -72 -10q-43 0 -84 12q4 8 0 14q-4 8 2 15q4 -2 10 -2q23 0 80.5 48t73.5 46q35 12 100 8 q96 -2 226 -23q8 -4 6 -22q-4 -37 -5 -30t-56.5 -27.5zM1362 104q-43 -12 -59 -12q-47 -27 -74 -22q-18 -20 -65.5 -32.5t-65.5 -27.5q-37 -6 -76 -6t-78 6q-49 -4 -145 -18q-37 16 -56 16q-20 0 -36 -12q-27 0 -55.5 2t-51.5 16q-43 -25 -59 2q-14 4 -31.5 -6t-24.5 -10 q-10 0 -20 10q-20 -10 -45 -10q-10 0 -29.5 2t-30.5 2q-27 0 -49 -12q-6 2 -29.5 16.5t-37.5 14.5t-29 -13h-47q-31 0 -45 -14q-6 16 -2 49q4 27 8 54.5t4 60.5q0 31 -6 87t-6 83q0 20 2 39q-14 14 -4 41.5t-4 42.5q10 270 8 292q-8 8 -8 15q0 6 8 17t10 18q-12 70 -8 186 q6 137 2 186q0 16 3 62.5t3 70.5q0 72 -22 109q4 29 -50 61q31 -6 78 27t74 33q10 0 20 -2q31 35 101 51q23 23 57 16q39 -25 74 0q23 -27 63 -12q4 2 16.5 10.5t20.5 8.5q6 0 15 -7q35 -29 65 0q20 -25 65.5 -13.5t61.5 -2.5q4 -2 8 -2q6 0 17.5 9t19.5 9q6 0 12 -6 q18 -10 37 -10q16 0 45 8t45 8t31 -6q25 2 68 -2q53 -4 69 -4q35 0 62 10q47 -14 65 -14q25 0 39 14q6 0 21 2v-47q-2 -31 -17 -47q-4 -14 4 -31q12 -27 13 -28q-6 -92 -8 -215v-279q0 -82 -5 -145q-12 -10 -4 -27q10 -23 11 -24q0 -10 -15 -19q2 -47 -4 -145q-4 -16 8 -29 q4 -76 -4 -88v-201q9 -113 72 -166zM1079 1110q-8 6 -8 16q0 6 2 15.5t2 13.5q0 10 -8 16q12 129 -10 224q-2 27 -47 30q-18 -12 -43 -12q-10 0 -39 4t-45 4q-37 -23 -58 4q-100 -18 -131 -8q-10 -6 -20 -6q-8 0 -27.5 8t-32.5 6q-20 -12 -51 -6q-27 4 -53 11q-4 -10 -18 -9 h-23q-12 18 -27 19q-4 0 -36 -17q-23 -10 -41 7q-37 -12 -35 -44q12 -74 12 -167q0 -49 -4 -156q-4 -98 -4 -150q-4 -25 -4 -65v0q0 -41 -4 -64q0 -6 8 -23.5t8 -25.5q0 -12 -12 -20q-4 -10 -4 -23q0 -12 7 -36.5t5 -37.5q-8 -43 -2 -131t1 -132t-9 -89q0 -53 15 -79.5 t65 -22.5q63 6 79 0q6 -2 17.5 7t17.5 9q8 0 13 -12q84 -6 256 -4q10 4 30.5 -3t30.5 -7q10 20 27 20q8 0 25.5 -7t27.5 -7q6 0 12 4q10 12 23 12q10 0 31.5 -13t33.5 -9q25 12 35 34q4 55 4 334q0 422 8 588z" />
<glyph unicode="&#xdc;" horiz-adv-x="1847" d="M1303 1817q-12 -16 -66.5 -36t-67.5 -38q-8 25 -12 24q-31 -33 -82 -24q-61 8 -88 -4q-10 0 -73.5 13t-90.5 13q-14 0 -22 -2q2 8 4 15q10 16 6 20q6 0 53 18.5t54 24.5q25 2 39 22.5t38 20.5q27 0 94.5 -3t96.5 -3q12 16 26 16q8 0 26.5 -10t29.5 -10q14 0 28 14 q3 -30 7 -71zM557 1775.5q-55 -34.5 -65 -28.5q-6 4 -17 4q-10 0 -29.5 -13.5t-27.5 -13.5q-14 0 -25 25q-10 4 -20 4q-14 0 -37 -12t-33 -12q-14 0 -27 18q-39 -10 -71 -10q-43 0 -84 12q4 8 0 14q-4 8 2 15q4 -2 10 -2q23 0 80 48t74 46q35 12 100 8q96 -2 225 -23 q8 -4 6 -22q-4 -37 -5 -30t-56 -27.5zM1337 125q-35 4 -84 -23q-59 -33 -82 -36q-6 -14 -27.5 -12.5t-27.5 -4.5q-23 -25 -61.5 -30t-75.5 -9q-8 8 -21 8q-6 0 -19 -3t-21 -3q-6 0 -13 2q-39 -6 -104 0q-37 -14 -80 -14q-20 0 -59 4t-58 4q-49 0 -88 -20q-20 0 -48 15 t-40 15q-10 0 -31.5 -10t-31.5 -10q-6 0 -13 2q-8 -6 -18 -6q-8 0 -27.5 7t-30.5 7q-10 0 -20 -8l-10 -6q-6 10 -26.5 7t-27 3t-14.5 6t-25.5 -10t-23.5 -10q-8 0 -14 10q14 20 14 51q0 12 -3 35t-3 35q0 25 10 41q-12 20 -14 65q-2 41 4 191q4 119 -8 180q12 49 12 104 q0 25 -8 123q-6 78 0 131q4 45 1 150.5t5 159.5q-14 23 -14 75t-15 74q6 51 -43 78q20 6 43 14.5t31 26.5q35 2 89 26.5t83 28.5q10 4 23.5 22.5t23.5 22.5q0 -41 -16 -123q-8 -94 8 -120q0 -66 -7 -174.5t-7 -157.5q0 -86 14 -164q-10 -6 -10 -18q0 -6 3 -16.5t3 -14.5 q0 -12 -10 -21q2 -4 0 -47q0 -31 14 -49l-14 -24q10 -66 10 -150q0 -39 -3 -112.5t-3 -108.5q0 -80 10 -141q10 -29 39 -39q25 4 69 26q16 4 47 -5t44 -9q20 0 36 14q37 -16 121 -8t119 -4q8 10 23 8q4 -8 24 -8q47 6 53 4q6 -8 15 -8q4 0 17 7t22 5q8 -27 30 -26 q16 0 35 12q29 39 19 106q-10 20 0 31q4 59 2 182q8 14 3 54t1 51q-10 104 -6 276q6 201 2 283q-14 14 -4 43t-5 43q-4 23 4.5 57.5t8.5 46.5q0 29 -23 49q8 59 -47 132q41 6 108.5 36.5t110.5 36.5q6 8 37 23q25 10 33 30q-4 -33 -4 -114v0q0 -84 -4 -125q8 -8 8 -19 q0 -6 -6 -26q-4 -16 2 -27.5t6 -27.5q0 -12 -7 -38t-7 -38q0 -18 12 -33q-8 -145 4 -211q4 -61 -8 -178q0 -10 8 -35t8 -37q0 -20 -12 -35q8 -12 8 -28t-8 -31q-12 -14 8 -31q-25 -78 -4 -192q-14 -8 -4 -25.5t-4 -25.5q12 -20 -10 -54q14 -20 19 -66t22 -69q0 -10 19 -23.5 t19 -19.5t-4 -8z" />
<glyph unicode="&#xe4;" horiz-adv-x="1945" d="M1366 1817q-12 -16 -65.5 -36t-67.5 -38q-8 25 -12 24q-29 -33 -82 -24q-61 8 -88 -4q-10 0 -74 13t-90 13q-14 0 -23 -2q2 8 4 15q10 16 6 20q6 0 53.5 18.5t53.5 24.5q25 2 39 22.5t39 20.5q170 0 190 -6q12 16 27 16q10 0 27.5 -10t27.5 -10q14 0 29 14q2 -30 6 -71z M557 1775.5q-55 -34.5 -65 -28.5q-6 4 -17 4q-10 0 -29.5 -13.5t-27.5 -13.5q-14 0 -25 25q-10 4 -20 4q-14 0 -37 -12t-33 -12q-14 0 -27 18q-39 -10 -71 -10q-43 0 -84 12q4 8 0 14q-4 8 2 15q4 -2 10 -2q23 0 80 48t74 46q35 12 100 8q96 -2 225 -23q8 -4 6 -22 q-4 -37 -5 -30t-56 -27.5zM1450 84q-35 4 -93.5 -24.5t-92.5 -26.5q-45 -23 -136 -74q-6 4 -6 8q0 6 9.5 17.5t9.5 17.5q-6 39 -2 111q4 82 2 116q-12 20 -13 64q0 51 -6 69q-6 6 -6 11q0 4 8.5 15t8.5 18q0 6 -8.5 16t-8.5 20t8.5 31t8.5 33q0 14 -15 26q12 18 4 48 q-8 41 -8 45q0 18 12 32q0 6 -6 39q-4 20 6 37q-2 27 -4 56.5t-35 35.5q-25 4 -69 -8q-53 -12 -76 -12q-27 0 -49 10q-25 0 -67 -9t-70 -9q-4 14 -17 14q-4 0 -20 -4q-12 -4 -19 0q-8 -18 -16 -19q-6 0 -19.5 12.5t-21.5 12.5q-10 0 -20 -16q-4 4 -11 4q-4 0 -16 -6.5 t-16 -6.5q-12 0 -19 19q-20 -14 -59 -14q-18 0 -51 3t-50 3q-72 0 -61 -80q12 -31 12 -70q0 -12 -4 -67q-2 -41 0 -68q-10 -53 4 -80q4 -8 4 -16t-7 -25.5t-7 -25.5t6 -17q2 -16 -2 -43q-2 -33 -2 -45q0 -37 18 -61q-4 -8 -4 -17q0 -14 43 -78q29 0 39 -26q-14 4 -26 4 q-27 0 -78 -30.5t-86 -24.5q-10 -6 -66 -27q-43 -14 -61 -43q-2 -4 -12 -4q27 14 24 53v64q-10 10 -10 24q0 10 7 30.5t7 29.5q0 12 -8 20q0 16 4 51t4 52q0 37 -16 63q8 43 4 125q4 102 4 313q-20 84 -74 158v8q35 -10 62 8q20 23 16 62q-6 47 0 63q-8 20 -8 45q0 16 6 51 t6 56q0 16 -4 33q-12 6 -12 20q0 4 2 14.5t2 14.5q0 12 -14 18q0 10 4 39q4 23 2 35q-4 18 -19 33q6 12 -20 51q-8 2 -23 14q59 12 164 51q31 -2 79 19.5t73 21.5q12 0 22 -2q8 4 17 4q10 0 28.5 -7t28.5 -7q8 0 14 4t13 4q6 0 18 -6t18 -6q8 0 17 10q8 -10 20 -10 q6 0 24.5 8t29.5 6q4 -12 23.5 -5t29.5 -11q8 -8 16 -8q10 0 24.5 15t20.5 15q10 0 19 -22q2 -2 22 8q8 -8 19 -8q10 0 30.5 11t28.5 11q10 0 18 -6q14 -4 56 2q35 4 53 -8q14 4 33 -8q16 12 39 12q10 0 27.5 -2t27.5 -2q25 0 43 15q14 -25 43 -19q14 16 39 8q37 -12 41 -12 q16 0 29 14q8 -6 14 -10q10 -6 16 0q12 18 13 19h10q-14 -10 -12 -41t-3 -41q2 -164 -4 -478q8 -27 9.5 -96t13.5 -104q-14 -16 -4 -50t-6 -51q-2 -125 10 -395q-6 -18 0 -45l8 -82q8 -53 27 -84q6 -2 24 -24q12 -16 29 -13v-14zM1094 1235q-27 16 -17 61t-4 64 q-29 -4 -47 21.5t-35 48.5q-33 23 -61 22q-18 0 -31 -8q-20 14 -43 14q-16 0 -50 -12t-52 -12q-14 0 -29 6q-2 0 -10 6t-10 6q-6 0 -9 -8q-10 -6 -18 -6q-14 0 -35.5 15t-32.5 15q-12 0 -22 -16q-133 10 -266 10q-25 -29 -14 -94t-3 -94q12 -27 12 -60q0 -10 -4 -55 q-4 -37 -2 -59q-4 -33 2 -78q4 -37 -6 -53q29 -37 53 -47q16 12 46 12q10 0 30.5 -2t28.5 -2q27 0 43 14q6 4 14 4t22.5 -10t22.5 -10q6 0 11 2q14 16 42.5 12t38.5 2q16 -18 39 -18q12 0 37 7t37 7q14 0 27 -6q35 -4 65 -4q31 0 66 4q8 -8 24 -8q6 0 22.5 2t22.5 2 q14 0 21.5 -6t15.5 -6q18 0 51 26q0 4 5.5 14.5t5.5 16.5t-6 12q-6 53 -5 119q7 123 7 129z" />
<glyph unicode="&#xf6;" horiz-adv-x="1863" d="M1294 1812q-12 -16 -66 -35.5t-67 -37.5q-8 25 -12 24q-31 -33 -82 -24q-61 8 -88 -4q-10 0 -73.5 13t-90.5 13q-14 0 -22 -2q2 6 4 15q10 16 6 20q6 0 53 18.5t53 24.5q25 2 39.5 22.5t38.5 20.5q27 0 94.5 -3t96.5 -3q12 16 26 16q8 0 26.5 -10t29.5 -10q14 0 28 14 q2 -31 6 -72zM567.5 1771.5q-55.5 -34.5 -65.5 -30.5q-8 6 -17 6q-10 0 -29.5 -13.5t-27.5 -13.5q-14 0 -27 23q-8 6 -18 6q-14 0 -36.5 -12.5t-33.5 -12.5q-14 0 -26 19q-39 -10 -72 -10q-43 0 -84 12q4 8 0 14q-4 8 2 15q4 -2 10 -2q23 0 80.5 48t73.5 46q35 12 100 8 q96 -2 226 -23q8 -4 6 -22q-4 -37 -5 -30t-56.5 -27.5zM1362 104q-43 -12 -59 -12q-47 -27 -74 -22q-18 -20 -65.5 -32.5t-65.5 -27.5q-37 -6 -76 -6t-78 6q-49 -4 -145 -18q-37 16 -56 16q-20 0 -36 -12q-27 0 -55.5 2t-51.5 16q-43 -25 -59 2q-14 4 -31.5 -6t-24.5 -10 q-10 0 -20 10q-20 -10 -45 -10q-10 0 -29.5 2t-30.5 2q-27 0 -49 -12q-6 2 -29.5 16.5t-37.5 14.5t-29 -13h-47q-31 0 -45 -14q-6 16 -2 49q4 27 8 54.5t4 60.5q0 31 -6 87t-6 83q0 20 2 39q-14 14 -4 41.5t-4 42.5q10 270 8 292q-8 8 -8 15q0 6 8 17t10 18q-12 70 -8 186 q6 137 2 186q0 16 3 62.5t3 70.5q0 72 -22 109q4 29 -50 61q31 -6 78 27t74 33q10 0 20 -2q31 35 101 51q23 23 57 16q39 -25 74 0q23 -27 63 -12q4 2 16.5 10.5t20.5 8.5q6 0 15 -7q35 -29 65 0q20 -25 65.5 -13.5t61.5 -2.5q4 -2 8 -2q6 0 17.5 9t19.5 9q6 0 12 -6 q18 -10 37 -10q16 0 45 8t45 8t31 -6q25 2 68 -2q53 -4 69 -4q35 0 62 10q47 -14 65 -14q25 0 39 14q6 0 21 2v-47q-2 -31 -17 -47q-4 -14 4 -31q12 -27 13 -28q-6 -92 -8 -215v-279q0 -82 -5 -145q-12 -10 -4 -27q10 -23 11 -24q0 -10 -15 -19q2 -47 -4 -145q-4 -16 8 -29 q4 -76 -4 -88v-201q9 -113 72 -166zM1079 1110q-8 6 -8 16q0 6 2 15.5t2 13.5q0 10 -8 16q12 129 -10 224q-2 27 -47 30q-18 -12 -43 -12q-10 0 -39 4t-45 4q-37 -23 -58 4q-100 -18 -131 -8q-10 -6 -20 -6q-8 0 -27.5 8t-32.5 6q-20 -12 -51 -6q-27 4 -53 11q-4 -10 -18 -9 h-23q-12 18 -27 19q-4 0 -36 -17q-23 -10 -41 7q-37 -12 -35 -44q12 -74 12 -167q0 -49 -4 -156q-4 -98 -4 -150q-4 -25 -4 -65v0q0 -41 -4 -64q0 -6 8 -23.5t8 -25.5q0 -12 -12 -20q-4 -10 -4 -23q0 -12 7 -36.5t5 -37.5q-8 -43 -2 -131t1 -132t-9 -89q0 -53 15 -79.5 t65 -22.5q63 6 79 0q6 -2 17.5 7t17.5 9q8 0 13 -12q84 -6 256 -4q10 4 30.5 -3t30.5 -7q10 20 27 20q8 0 25.5 -7t27.5 -7q6 0 12 4q10 12 23 12q10 0 31.5 -13t33.5 -9q25 12 35 34q4 55 4 334q0 422 8 588z" />
<glyph unicode="&#xfc;" horiz-adv-x="1847" d="M1303 1817q-12 -16 -66.5 -36t-67.5 -38q-8 25 -12 24q-31 -33 -82 -24q-61 8 -88 -4q-10 0 -73.5 13t-90.5 13q-14 0 -22 -2q2 8 4 15q10 16 6 20q6 0 53 18.5t54 24.5q25 2 39 22.5t38 20.5q27 0 94.5 -3t96.5 -3q12 16 26 16q8 0 26.5 -10t29.5 -10q14 0 28 14 q3 -30 7 -71zM557 1775.5q-55 -34.5 -65 -28.5q-6 4 -17 4q-10 0 -29.5 -13.5t-27.5 -13.5q-14 0 -25 25q-10 4 -20 4q-14 0 -37 -12t-33 -12q-14 0 -27 18q-39 -10 -71 -10q-43 0 -84 12q4 8 0 14q-4 8 2 15q4 -2 10 -2q23 0 80 48t74 46q35 12 100 8q96 -2 225 -23 q8 -4 6 -22q-4 -37 -5 -30t-56 -27.5zM1337 125q-35 4 -84 -23q-59 -33 -82 -36q-6 -14 -27.5 -12.5t-27.5 -4.5q-23 -25 -61.5 -30t-75.5 -9q-8 8 -21 8q-6 0 -19 -3t-21 -3q-6 0 -13 2q-39 -6 -104 0q-37 -14 -80 -14q-20 0 -59 4t-58 4q-49 0 -88 -20q-20 0 -48 15 t-40 15q-10 0 -31.5 -10t-31.5 -10q-6 0 -13 2q-8 -6 -18 -6q-8 0 -27.5 7t-30.5 7q-10 0 -20 -8l-10 -6q-6 10 -26.5 7t-27 3t-14.5 6t-25.5 -10t-23.5 -10q-8 0 -14 10q14 20 14 51q0 12 -3 35t-3 35q0 25 10 41q-12 20 -14 65q-2 41 4 191q4 119 -8 180q12 49 12 104 q0 25 -8 123q-6 78 0 131q4 45 1 150.5t5 159.5q-14 23 -14 75t-15 74q6 51 -43 78q20 6 43 14.5t31 26.5q35 2 89 26.5t83 28.5q10 4 23.5 22.5t23.5 22.5q0 -41 -16 -123q-8 -94 8 -120q0 -66 -7 -174.5t-7 -157.5q0 -86 14 -164q-10 -6 -10 -18q0 -6 3 -16.5t3 -14.5 q0 -12 -10 -21q2 -4 0 -47q0 -31 14 -49l-14 -24q10 -66 10 -150q0 -39 -3 -112.5t-3 -108.5q0 -80 10 -141q10 -29 39 -39q25 4 69 26q16 4 47 -5t44 -9q20 0 36 14q37 -16 121 -8t119 -4q8 10 23 8q4 -8 24 -8q47 6 53 4q6 -8 15 -8q4 0 17 7t22 5q8 -27 30 -26 q16 0 35 12q29 39 19 106q-10 20 0 31q4 59 2 182q8 14 3 54t1 51q-10 104 -6 276q6 201 2 283q-14 14 -4 43t-5 43q-4 23 4.5 57.5t8.5 46.5q0 29 -23 49q8 59 -47 132q41 6 108.5 36.5t110.5 36.5q6 8 37 23q25 10 33 30q-4 -33 -4 -114v0q0 -84 -4 -125q8 -8 8 -19 q0 -6 -6 -26q-4 -16 2 -27.5t6 -27.5q0 -12 -7 -38t-7 -38q0 -18 12 -33q-8 -145 4 -211q4 -61 -8 -178q0 -10 8 -35t8 -37q0 -20 -12 -35q8 -12 8 -28t-8 -31q-12 -14 8 -31q-25 -78 -4 -192q-14 -8 -4 -25.5t-4 -25.5q12 -20 -10 -54q14 -20 19 -66t22 -69q0 -10 19 -23.5 t19 -19.5t-4 -8z" />
<glyph unicode="&#x2000;" horiz-adv-x="947" />
<glyph unicode="&#x2001;" horiz-adv-x="1894" />
<glyph unicode="&#x2002;" horiz-adv-x="947" />
<glyph unicode="&#x2003;" horiz-adv-x="1894" />
<glyph unicode="&#x2004;" horiz-adv-x="631" />
<glyph unicode="&#x2005;" horiz-adv-x="473" />
<glyph unicode="&#x2006;" horiz-adv-x="315" />
<glyph unicode="&#x2007;" horiz-adv-x="315" />
<glyph unicode="&#x2008;" horiz-adv-x="236" />
<glyph unicode="&#x2009;" horiz-adv-x="378" />
<glyph unicode="&#x200a;" horiz-adv-x="105" />
<glyph unicode="&#x202f;" horiz-adv-x="378" />
<glyph unicode="&#x205f;" horiz-adv-x="473" />
<glyph unicode="&#xe000;" horiz-adv-x="1648" d="M0 1649h1649v-1649h-1649v1649z" />
</font>
</defs>
</svg>
