<?xml version="1.0" standalone="no"?>
<!DOCTYPE svg PUBLIC "-//W3C//DTD SVG 1.1//EN" "http://www.w3.org/Graphics/SVG/1.1/DTD/svg11.dtd" >
<svg xmlns="http://www.w3.org/2000/svg">
<metadata></metadata>
<defs>
<font id="orchideelight" horiz-adv-x="1849" >
<font-face units-per-em="2048" ascent="1638" descent="-410" />
<missing-glyph horiz-adv-x="696" />
<glyph horiz-adv-x="2048" />
<glyph horiz-adv-x="2048" />
<glyph unicode="&#xd;" horiz-adv-x="696" />
<glyph unicode=" "  horiz-adv-x="696" />
<glyph unicode="&#x09;" horiz-adv-x="696" />
<glyph unicode="&#xa0;" horiz-adv-x="696" />
<glyph unicode="A" d="M1354 100q-27 -31 -82 -22q-70 -20 -109 -53q-29 -31 -57 -62q-4 2 -4 8q0 8 12 36t12 40q0 8 -4 12q16 20 8 58.5t5 56.5q-4 18 -5 43q0 25 5 45q0 2 -5 115q0 10 3 22q0 12 -7 70q-4 43 9 68q-14 33 -9 98q8 68 0 98q0 8 3.5 30.5t3.5 35.5q0 47 -37 65q-16 2 -46 -13 t-44 -15t-27 10l-18 -8q-12 -2 -25 -2q-16 0 -45 3t-43 3q-35 0 -53 -19q-10 2 -21.5 2t-13.5 13q-33 2 -92 -9v5q-16 -8 -49 -2t-52 -9l-22 8q-14 4 -23 -8q-2 0 -94 -6q-53 -4 -88 6q-18 -2 -28.5 -20.5t-18.5 -34.5q-6 -35 2 -80q10 -55 10 -72q0 -29 -10 -55 q8 -12 8 -26t-8 -29q16 -18 12 -51q-4 -47 -2 -56q2 -20 2 -41q0 -23 -5 -63.5t-5 -61.5q0 -53 29 -96q-2 -14 14 -29.5t18 -25.5q-4 6 -10 6t-30.5 -11t-38.5 -7q-27 -23 -62 -27q-29 -18 -59 -37q-35 -25 -52 -51q27 47 27 127q0 25 -3 76t-3 73q4 4 1 19.5t7 23.5 q2 55 -8 170q29 23 2 31l-2 86q6 18 2 62q-4 49 0 69q4 23 4 43q0 76 -72 176q16 2 31 2q23 4 29 21q8 35 3 110.5t5 112.5q-10 14 -7 49t-1 45q18 100 -25 211l-18 31q53 10 141 49q96 41 139 51l9 -8q90 2 270 -6q12 -2 29.5 6t23.5 8q12 0 21 -14l145 6l8 8 q18 -18 64.5 -9t62.5 -5q10 -4 34 1t30 5q23 0 37 -22q14 -2 34.5 12t32.5 14q8 0 17 -4l8 8q16 -14 69 -4l9 8q6 0 16 -4l10 9q-8 -18 -2 -70q6 -43 -10 -70q-4 -12 -4 -26q0 -18 8 -66.5t4 -77.5q12 -20 12 -49q0 -16 -5 -49t-3 -45q10 -29 3 -82t5 -80q-8 -281 11 -373 q-18 -25 -11 -112q2 -6 -2 -45q-2 -27 13 -43l-11 -15l2 -10v-117q0 -66 21 -112q-4 -4 -4 -8q0 -6 8 -18.5t8 -15t23 -18.5zM1126 1380q-16 16 -19 59.5t-26 61.5q-16 4 -34 8q-18 2 -31 -16q-8 16 -21 16q-18 0 -39 -24q-4 2 -8 16q-8 8 -16 8q-10 0 -29 -20q-10 10 -8 12 h-35q-18 6 -53 -8q-10 -6 -19 -6q-12 0 -35.5 13t-39.5 13q-6 0 -15 -2q-55 -20 -110 0q-12 -20 -31 -20q-10 0 -32.5 10t-35.5 10q-10 -10 -26 -10q-6 0 -18.5 2t-20.5 2q-18 0 -33 -12q-4 12 -20.5 16t-22.5 11q-29 -8 -55 -41v-17q-8 -10 -4 -18q4 -14 4 -21 q12 -74 8 -331q6 -16 6 -39q0 -16 -5 -51t-5 -52q0 -35 16 -61q10 -6 23 -6q12 0 36.5 15t41.5 13q14 -18 32 -18q10 0 32 7t32 7t18 -4q14 6 52 1t57 7q14 -14 39 -12q6 4 14 4q6 0 31 -6q18 -6 31 -2q41 14 143 4q8 12 16 12q4 0 16.5 -8t20.5 -8q6 0 13 4q10 12 22 12 q6 0 24.5 -8t30.5 -4q10 14 25 14q6 0 17.5 -3t17.5 -3q16 0 24 23v78q-4 16 2 57q6 35 -6 55q-2 88 8 260z" />
<glyph unicode="B" horiz-adv-x="1853" d="M1339 96q-10 -8 -24 -8q-8 0 -20.5 2t-18.5 2q-27 0 -33 -29q-37 0 -94 -30.5t-84 -30.5q-14 0 -39 5t-35 5q-25 0 -43 -18q-29 10 -82 10t-75 4q-6 -2 -15 -2q-8 0 -25.5 3t-25.5 3q-20 0 -33 -18q-10 2 -27.5 17.5t-29.5 15.5q-8 0 -17 -7q-12 -14 -32 -14 q-8 0 -24.5 3t-24.5 3q-23 0 -35 -18q-14 -2 -33.5 4t-26.5 6q-12 0 -22 -10q-10 10 -43 9t-45 13q-29 -14 -82 -14q-63 0 -84 -4q-37 -12 -39 14q-4 72 8 207q-8 35 -8 74q0 16 6 96q4 57 -2 98q8 10 8 25q0 4 -8 37q-4 23 4 35q0 35 -14 104q-2 10 4 25.5t6 19.5 q0 10 -10 19q6 10 6 22q0 20 -21 53q-25 41 -28 56q-14 12 -35 39q33 -18 45 -19q12 0 25 10q20 12 18 33q0 39 0 37q-4 10 -8 18q-4 10 4 17q-8 49 0 229q6 141 -41 223q-4 6 -16 11l57 22q10 12 33.5 12.5t32.5 4.5q25 6 71 41q41 31 72 30q20 0 41 -10q12 -12 53 6 q4 0 51 -4q31 -2 45 12q25 -10 79 -9t79 -9q6 2 19.5 10t19.5 8q8 0 14 -8q27 4 105 2q66 -2 102 10q2 -2 17 -10q8 -8 16 -8q6 0 10 6q23 10 64 -6q10 -4 22 -4q14 0 41 8t43 8q10 0 21 -4q4 4 10 4t19.5 -6t19.5 -6q12 0 20 14l23 4q-8 -39 -6 -108q0 -78 -2 -109 q-2 -20 8 -65q-6 -31 -4 -84v-92q6 -18 6 -39q0 -35 -29 -93.5t-31 -90.5q16 -39 39 -123q18 -31 21 -88q4 -66 10 -89q-4 -59 -4 -165q-8 -4 0 -43v-162q10 -97 61 -152zM1116 930q-4 66 -2 176q4 125 2 168l-8 20q2 8 2 17q0 12 -9 38.5t-9 39.5q0 16 10 30q-6 90 -82 90 q-20 0 -64.5 -7t-64.5 -7q-25 0 -43 8q-14 0 -37 -4t-31 -4q-23 0 -37 16q-82 -27 -217 -12q-12 -12 -20 -12t-22.5 11t-26.5 9q-16 -18 -39 -18q-10 0 -40 8t-46 6q-37 -20 -41 -88q-2 -55 -2 -110q-2 -16 8 -41t10 -37q0 -10 -4 -19q-27 -94 8 -139l-16 -29q2 -8 2 -18 q0 -12 -4 -38t-4 -40q0 -33 22 -51q106 4 113.5 5t13.5 1q8 0 23.5 -4t21.5 -4q10 0 19 4q6 14 14 14q6 0 17.5 -9t19.5 -9t14 4q8 14 17 14q2 0 26 -10q16 -8 27 6q168 -23 250 -6q8 10 16 10t22.5 -8t22.5 -8q6 0 15 2q12 18 30 18q10 0 37 -11t43 -9t43 37zM1120 764 q-8 12 -35 41q-41 6 -63 -29q-10 18 -27 19q-8 0 -25.5 -5.5t-25.5 -7.5q-10 23 -22 23q-8 0 -26.5 -14.5t-29.5 -14.5q-10 0 -18 15q-14 -2 -35.5 3t-30.5 5q-20 0 -32 -17q-6 -2 -48 17q-27 -4 -55 -4q-29 0 -57 4q-8 2 -17.5 -5.5t-13.5 -7.5q-6 0 -10 9q-8 2 -41 -13 q-8 18 -21 19q-6 0 -20 -6.5t-23 -6.5q-10 0 -18 7q-14 -12 -29 -13q-10 0 -30.5 10.5t-28.5 12.5q-23 -2 -30 -23.5t-11 -42.5q18 -66 18 -229l-6 -18q-6 -12 6 -17q-10 -168 4 -317q23 -43 50 -43q6 0 12 2q12 -12 25 -13q6 0 28 9q16 6 31 2q8 8 24 2q25 -8 29 -8 q10 0 19 8q61 8 165 -13q12 12 41 7t43 4q8 -4 41 2q29 4 39 -8q2 0 41 8q23 4 37 -8q8 -2 19 6q41 12 57 -6q-2 0 18 8q10 4 17 -8q27 -8 61 30q0 211 4 625z" />
<glyph unicode="C" horiz-adv-x="1368" d="M186 1520q41 39 138 69q2 -2 12 -14t18 -12q6 0 13 6l16 20q16 -4 57 -4q35 2 58 -12q16 6 43 -8q14 0 33.5 6t27.5 6q16 0 31 -12q63 8 61 8q8 -8 19 -8q6 0 21.5 7t25.5 5q14 4 36.5 -6t30.5 -10q12 0 25 16q8 -2 30.5 -10t32.5 -8q12 0 21 6q16 -23 43 -6q37 20 41 20 q16 0 29 -27q20 8 61 25q0 -2 6 -9t4 -14q-14 -25 -47 -22.5t-47 -11.5q-18 4 -39 -11q-29 -20 -35 -22q-100 0 -301 2q-4 10 -16 10h-19q-25 -14 -102 4q-2 -2 -51 -22q-8 23 -23 22q-6 0 -23.5 -9t-27.5 -9q-6 0 -12 4q-10 -4 -15 -4q-6 0 -14 4q-6 12 -20 8 q-20 -6 -27 -4q-18 -10 -21.5 -26.5t-5.5 -32.5q-6 -53 -4 -136q4 -98 4 -133q12 -12 13 -28q0 -10 -8.5 -33t-8.5 -35q0 -8 4 -16q16 -27 15 -62q-2 -31 -6 -61q-8 -10 -9 -23q0 -4 9 -33q6 -23 -4 -36q-16 -43 14 -74q-6 -23 -2 -90q4 -57 -12 -90q16 -23 16 -56 q0 -18 -7 -55t-7 -55q0 -23 8 -39q-12 -14 -13 -27q0 -12 9.5 -33.5t9.5 -33.5t-6 -23q4 -35 20 -106q-8 -37 27 -54q8 -6 16 -6q10 0 26.5 10.5t22.5 10.5q12 0 23 -15q25 14 77 5t74 6q10 -12 29 -9q29 8 29 9q8 -14 22 -15q4 0 14.5 2t16.5 2q14 0 21 -12q10 8 32 25 q45 -35 60 -35q14 0 24.5 15.5t24.5 15.5q10 0 43 -21q-8 0 119 -2q76 0 116 14q10 -27 11 -30q-49 -25 -158 -52q-12 -14 -66 -26q-18 18 -53 18q-14 0 -44 -5t-44 -5q-6 -4 -14 -4q-10 0 -31.5 9t-34.5 9q-14 0 -28 -10q-6 -4 -13 -4q-10 0 -30.5 10.5t-30.5 10.5 q-12 0 -23 -9q-12 -16 -35.5 -10t-33.5 -2q-18 8 -60.5 2t-60.5 10q-16 -12 -47 -12q-37 0 -47 -4q-10 23 -27 22q-8 0 -27.5 -8t-31.5 -8q-6 0 -15 2q6 2 -41 2q-23 0 -32 -24q4 66 20 184q-14 16 -11 49t-5 47q10 82 8 213q0 236 0 207q-8 20 -4 49q4 47 4 53 q2 201 -4 598q-6 10 -17 58q-6 33 -30 47q20 -2 51 16.5t49 18.5q8 0 16 -4z" />
<glyph unicode="D" horiz-adv-x="1832" d="M1260 1542q4 -23 -11 -63q-14 -47 -14 -66q0 -25 12 -43q-16 -25 6 -61v-277l4 -936q-10 -10 -39.5 -14t-37.5 -21q-49 -6 -158 -55q-18 8 -41 8q-20 0 -61 -9t-64 -9q-27 0 -47.5 13.5t-44.5 0.5q-31 -18 -35 -18q-14 0 -27 24q-8 -12 -22 -12q-6 0 -14 2h-15 q-16 0 -24 -12q-12 12 -33 8q-16 -4 -35 -8q-35 6 -76 6q-35 0 -104.5 -7t-104.5 -7q-31 0 -57 4q-4 -14 -12 -15q-6 0 -16.5 7.5t-16.5 7.5q-16 0 -49 -15q-10 29 -4 68q8 53 8 61q0 23 -8 43q12 8 12 23q0 6 -4 27q-2 14 0 22q-12 4 -12 12q0 4 8 14.5t8 14.5 q-16 31 -16 70q0 37 16 82q-12 14 -7 44.5t-1 45.5q8 18 8 41q0 8 -8 61q-6 37 4 62q-8 121 -4 297l8 286q-10 10 -9 35t-3 33q0 2 -13 98q-8 57 -38 86q20 16 71 31.5t74 36.5q18 0 54 22.5t52 22.5q18 0 37 -23q20 8 47 4q39 -8 43 -8q6 10 13 10q4 0 12 -6t12 -6 q6 0 13 6q10 -23 41.5 -17.5t40.5 -0.5q6 14 21 5t24 3q20 -18 34 -16l5 4q10 -8 22 -8q6 0 16.5 2t16.5 2q12 0 22 -9q18 8 41 9q14 0 47 -6.5t50 -6.5q12 0 24 4q23 -14 66 -14q10 0 34 2h37q45 0 70 -16q6 0 17.5 4t17.5 4q10 0 14 -12q6 -4 12 -4q8 0 19.5 10t15.5 10 q6 0 10 -6zM1081 176q-10 16 -10 39q0 8 8 61q6 35 -2 56q4 45 -10 131q-2 12 -2 26q0 18 6 56.5t6 56.5q0 27 -10 47q14 16 14 39q0 6 -12 55q-8 33 8 52q2 82 -14 135q16 12 15 44t3 42q-14 35 -12 80q4 72 4 82q-8 10 -8 24q0 10 8 31.5t8 32.5q0 12 -8 24q6 10 6 23 q0 14 -10 39.5t-12 38t-2 45.5q2 25 -15 39q-53 20 -71 4q-8 10 -19 10q-4 0 -11 -2t-11 -2q-10 0 -19 8q-12 -16 -39.5 -6t-40.5 -4q-8 20 -28.5 10t-30.5 4q-12 -18 -45 -6t-49 -8q-10 18 -31 18q-6 0 -31 -4q-18 -2 -28 0q-14 -4 -43 -1t-47 -3q-14 18 -33 18 q-10 0 -37 -8t-43 -6l-8 14q-12 4 -27 5q-25 0 -41 -11q-47 -39 -37 -94q-12 -33 15 -80q-14 -14 -15 -33q0 -6 15 -49q0 -63 -9 -194q10 -16 7.5 -57.5t1.5 -59.5q-2 -14 -2 -31q0 -18 5 -53t5 -51q0 -37 -17 -68q16 -35 17 -90q0 -20 -3 -63t-3 -62q0 -20 2 -35 q-8 -53 0 -67q-2 -14 -2 -29q0 -14 3 -43t3 -43q0 -37 -17 -65q10 -18 17.5 -72.5t28.5 -77.5l36 -8q20 -4 33 8q10 -10 21 -10q8 0 27.5 10t29.5 10t18 -6q10 -25 33 -24q10 0 32.5 8t33.5 8q12 -8 38.5 -5t37 -5t20.5 -8q23 0 43 26q0 -6 9 -11t9 -11q57 -4 195 -4 q12 12 45 0q23 2 76 18q26 39 22 92z" />
<glyph unicode="E" horiz-adv-x="1406" d="M57 920q29 -23 45 0q20 31 19 86q0 72 4 88q-2 27 -2 57q0 29 2 85t2 85q0 117 -41 188q6 12 19.5 7t19.5 4q14 0 36.5 17t33.5 17q8 0 16 -6q18 -2 44 21.5t44 21.5q12 8 33 23q25 -29 47 -29l27 23q6 -12 16 -13q6 0 17.5 5.5t15.5 5.5q10 0 16 -13q39 2 109 -12 q10 16 32.5 16t42.5 2q29 -35 58 0q0 -14 16 -14q23 2 25 2q8 25 39 0q43 6 147 2q96 -2 150 8q16 -29 -11 -36q-12 -2 -42.5 -19.5t-49.5 -17.5q-10 0 -18 2q-27 -23 -58 -27q-6 8 -22 8q-4 -12 -17 -8l-18 8q-23 2 -61 -2q-45 -6 -60 -6q-33 0 -57 12q-55 -18 -88 -18 q-14 23 -43 6.5t-43 9.5q-12 2 -31 -10q-12 6 -61 0q-39 -8 -54 25q-61 -18 -80 -54q-10 -55 -8 -61q16 -35 11 -98q-4 -74 2 -101q14 -63 4 -110q10 -14 10 -33q0 -14 -9.5 -44t-9.5 -46q0 -10 3 -21q-4 -10 -5 -18q0 -14 13.5 -25.5t27.5 -21.5q4 -10 15 -8l16 4 q10 14 8 14q10 2 21.5 -5t15.5 -7q6 0 12 8l19 21q12 -10 45 -11.5t47 -15.5q29 0 76 18q37 -4 108 -20q10 6 35 18q-10 -6 -10 -20q0 -8 3 -22.5t3 -18.5q0 -8 -6 -8t-23 12q-25 -2 -53.5 -2t-46.5 -14q-14 8 -33 8q-4 0 -43 -6q-29 -4 -45 4q-8 -16 -22 -19q-23 -4 -27 -6 q-10 6 -40 2t-44 8q-8 4 -14 4q-12 0 -43 -24q-25 -29 4 -76q0 23 0 -151q2 -92 -25 -154q16 -29 15 -78q0 -55 7 -74.5t7 -44.5q0 -8 -2 -24v-23q0 -41 27 -61q10 -18 31.5 -8t31.5 -7q47 16 76 2l4 -6q31 33 47 15l18 -13q156 16 228 2q16 4 43 19q8 -6 41 -6l4 4 q10 -8 32.5 -10t32.5 -15q12 0 32 12.5t28 12.5q12 0 22 -15q18 -8 48 5.5t36 13.5q25 0 25 -37q0 -14 -29 -20.5t-35 -16.5q-31 -4 -73 -26q-49 -27 -70 -31q-20 14 -57 2q-10 12 -35 12t-37 12q-74 -23 -78 -22q-10 0 -20 4q0 12 -17 12q-25 -2 -28 -2q-10 -10 -41 0 q-29 8 -41 -14q-4 0 -20.5 13.5t-26.5 13.5q-4 0 -11 -5l-10 -12q-8 12 -18 12q-6 0 -21.5 -8t-25.5 -6l-19 -14q-4 12 -16 18q-18 10 -19 10q-10 0 -29.5 -10t-29.5 -10t-19 6q-18 -8 -57 -2q-10 27 -39 8q-41 -14 -39 -14q-10 0 -18 12q4 82 4 178q0 74 -4 218.5t-4 220.5 q0 96 4 178q-12 14 -27 61q-12 40 -39 54z" />
<glyph unicode="F" horiz-adv-x="1363" d="M109 893l26 37l-4 375q-14 23 -14 59q-2 47 -6 63l-27 58q16 20 69.5 30.5t69.5 34.5q18 0 46 18.5t42 22.5q6 -12 23 -12q6 0 25.5 4t27.5 2q4 -8 14 -8q23 0 17 0q6 10 14 10q2 0 21 -8q10 -4 20 4q20 -12 68 0q72 -10 123 8q10 -16 30 -16q4 0 15 2h14q18 0 31 -10 q16 27 41 6q20 -2 53 7t45 9q18 0 37 -10q57 0 162 -2q8 -6 16 -13.5t4 -19.5l-10 -8q0 4 4 8t0 10q-4 4 -27 17q-10 -37 -65 -51q-63 -14 -80 -35q-111 -8 -221 2q-14 -16 -35 -14q-29 6 -36 4t-17.5 9t-18.5 11q-4 0 -10 -6q-12 -10 -35 -12h-37q-20 14 -28 12 q-10 -8 -23 -29q-18 25 -57 25q-8 0 -27.5 -2t-30.5 -2q-27 0 -43 12q-59 -14 -59 -70q0 -14 8 -55q4 -33 2 -49q6 -6 2 -14q-4 -6 -8 -13q-4 -41 8 -137q12 -104 11 -153q2 0 0 -78q-2 -51 26 -70q43 14 129 13t127 12q31 -14 62 0q35 -4 100 -19l12 15q2 -6 -3 -23.5 t-5 -26.5q0 -16 14 -24q-47 31 -96 14q-45 -16 -106 -8q-8 4 -17 4q-10 0 -27.5 -11t-25.5 -11q-12 0 -23 14q-18 -14 -40 -14q-10 0 -30 3t-30 3q-14 0 -27 -2q-51 -31 -43 -107q8 -98 0 -121q-8 -47 -8 -106q0 -43 8 -162q8 -102 5 -160q27 -49 63 -88q-2 -2 -45 -2 q-33 0 -41 -31q-18 6 -46 -16t-48 -20l-45 -41l22 47l-6 755q-12 16 -21.5 55.5t-23.5 57.5q2 12 -10 21q-18 12 -23 16q2 4 9 4q4 0 14 -5t16 -5q7 0 13 6z" />
<glyph unicode="G" horiz-adv-x="1789" d="M129 1503q41 12 115 60q8 -4 16 -4q14 0 38 16t36 16q16 0 31 -28q8 2 32.5 15t36.5 13q14 0 27 -10q2 0 57 8q31 4 53 -4q8 16 35 0q92 0 182 6q29 -20 86.5 -10t79.5 -4q35 14 104.5 4t108.5 10q27 -10 33 0l76 -6v-45q-49 6 -162 -43q-12 -25 -72 -16q-10 18 -22 18 q-10 0 -27.5 -11t-25.5 -11q-6 0 -13 4q-10 2 -28 -8q-23 35 -58 18q-31 -29 -93 -11.5t-95 -6.5q-6 16 -35 24q-12 -23 -27 -22q-10 0 -29.5 14t-31.5 14q-10 0 -20 -10q-12 4 -19 -4l-12 -16q-12 23 -41 22l-51 -2q-12 -14 -31 -18q-18 37 -70 18q-35 -16 -30 -86 q18 -23 10 -88q6 -131 -6 -178l12 -19q2 -20 -4 -57t-6 -53q0 -27 10 -47q-8 -14 -8 -46t-8 -47q10 -16 12 -32q2 -10 0 -31q-2 -25 -2 -37q-2 0 -6 -24q12 -10 4 -32t4 -32q-8 -27 -8 -78q0 -57 -4 -78q2 -2 9 -14t3 -20q-20 -35 -12 -50q6 -10 6 -22q0 -8 -6.5 -29.5 t-6.5 -32.5q0 -16 11 -28q-6 -10 -6 -23q0 -12 7 -35.5t7 -35.5q0 -8 -2 -17q2 -33 6 -65q6 -43 37 -56q12 0 32.5 -5t30.5 -5q16 0 31 14q25 -10 29 -10q6 10 18 9t19 3q16 -4 32 -4q14 0 43 5.5t45 5.5q20 0 39 -7q16 -16 60 -2l26 21q72 -29 86 -29q27 0 50 21l53 6 q18 -27 49 -27q8 0 39 4q25 2 39 0q2 4 37 9q16 2 20 16q16 47 16 70q0 29 -16 49q-4 8 2 26q4 14 -8 27q10 31 9 102.5t13 106.5q-12 82 -16 135q2 6 2 14t-7 29t-7 31t6 18q-18 41 -23 47q-16 25 -43 27q-20 -8 -43 -8q-27 0 -72.5 12t-70.5 12t-45 -8q-4 10 -12 10 q-6 0 -11 -4l-2 -6q-12 14 -30 14q-6 0 -18.5 -3t-18.5 -3q-18 0 -29 15q-14 4 -39 0q-35 -2 -41 -2q-33 0 -49 20q10 4 10 14q0 27 0 21q104 8 136 -10q14 -2 38 14h154q33 -25 88 -4q35 -20 55 -10q4 6 15 6v-6q63 -12 100 18q10 -14 31 -18l16 18l88 -4q0 -16 3 -47 t3 -43q0 -41 -22 -72q12 -37 12 -180q8 -16 4 -39q-10 -33 -10 -39q0 -14 10 -24q-6 -31 -2 -96.5t-6 -100.5q2 -53 10 -78q10 -43 39 -70q-8 -18 -22 -18q-4 0 -13 2h-14q-12 0 -21.5 -9t-50.5 -13q-31 -4 -38 -27q-18 0 -54.5 -18.5t-58.5 -18.5q-10 0 -23 2q-8 2 -19 -10 t-15 -12q-6 0 -13 10q-45 -12 -84 12q-27 -10 -61 -6q-61 6 -60 6q-10 -8 -20 -8t-21 8q-98 4 -286 -8q-8 16 -23 16q-8 0 -26.5 -8t-26.5 -8q-4 -6 -8 -6t-13.5 7t-13.5 7q-16 12 -41 4q-33 -12 -37 -12q-14 0 -26 14q-18 -8 -56 -5t-55 -9q-18 12 -18 35q0 10 6 35.5 t6 40.5q0 14 -6 26q2 23 -5 66t-3 59q10 18 6 47q-4 35 -2 47q-10 6 4 33q4 125 -8 381q8 20 8 51v49q0 14 2 291q2 176 -33 287q-2 4 -15.5 14t-11.5 21q8 12 34 15t32 7z" />
<glyph unicode="H" horiz-adv-x="1812" d="M102 895l25 23q2 154 4 466q-8 43 -12 60q-12 35 -31 57q6 12 23 12q29 0 26 0q25 14 52.5 31t56.5 12q14 2 32.5 21.5t30.5 21.5q-2 -12 -16 -147q4 -12 2 -43t2 -43q6 -131 0 -393q-23 -18 -8 -68q12 -29 41 -31h53q10 25 38 6.5t40 8.5q10 2 18 -11.5t17 -13.5 q14 0 37.5 15.5t33.5 15.5q14 0 27 -18q47 -8 61 10q10 -8 35 -11.5t35 -11.5q8 -2 21.5 8.5t19.5 10.5t10 -6q14 0 39 7t35 7q6 0 14 -2q8 8 19 8q10 0 25.5 -9t23.5 -9q10 0 22 16q12 4 40 -4t38 -8q20 0 35 22q12 61 12 45q0 14 -12 27q8 25 8 55q0 12 -6 82q-6 51 2 84 q-8 37 0 86q8 6 8 14q0 4 -7 16.5t-5 20.5t2 17q0 12 -9 36.5t-9 36.5q0 8 4 19q-2 10 -18.5 25.5t-16.5 23.5q0 10 20 20q14 -6 27 -6q18 0 47 23.5t47 23.5q8 0 19 -4q0 2 12 17q10 8 18 8q4 0 9 -2l36 31q-4 -18 -3 -62.5t-9 -66.5q8 -37 5 -115t7 -119q-16 -66 -6 -100 q2 -264 -10 -793q14 -14 5 -43t5 -43q-4 -16 -4 -35q0 -55 47 -145q-41 -16 -123 -49q-29 8 -63 -15q-27 -18 -51 -36q8 8 8 28.5t4 28.5q8 190 -6 272q14 16 5 55.5t9 57.5q-16 72 -4 168q-14 10 -14 24q0 6 10 33q6 20 0 33q-2 10 -2 20q0 14 7 43t7 43q0 31 -30 52 q-14 2 -38 -4.5t-30 -6.5q-14 -14 -42 -7t-42 -5q-14 27 -37 8q-12 -18 -26 -18q-10 0 -29 10t-29 10q-12 0 -24 -14q-4 -2 -60 0q-39 0 -57 -14q-6 2 -24.5 10t-28.5 8q-8 0 -19 -4q-6 -18 -23.5 -9t-25.5 -5q20 0 -82 6q-47 2 -76 -8q-53 -8 -63 -37q0 -6 4 -180 q2 -33 -8 -86q8 -45 8 -99q0 -23 -2 -63.5t-2 -61.5q0 -76 26 -133q2 -29 25 -55q-10 -10 -47 -16.5t-49 -22.5q-39 -14 -78 -27q-45 -18 -64 -51q31 51 31 148q0 27 -3 79t-3 76q2 86 0 258q-4 203 -4 260q-12 16 -29 64q-16 39 -39 57q12 -10 43 -12z" />
<glyph unicode="I" horiz-adv-x="843" d="M305 1608q0 -12 -8 -46t-8 -53q0 -20 8 -39q-12 -14 -4 -39.5t-4 -41.5q12 -14 12 -35q0 -10 -10 -49q-8 -31 0 -48q-20 -66 6 -106q-6 -92 -6 -320q0 -8 -8 -276q-4 -160 8 -270q2 -8 2 -19q0 -14 -5 -41.5t-5 -40.5q0 -33 22 -53q6 -20 8 -27q8 -16 23 -20 q-16 -27 -67.5 -39t-67.5 -33q-29 8 -95 -43q16 100 17 269v276q-4 260 6 782q-4 45 -16 127q-8 25 -19.5 52.5t-34.5 35.5q82 -3 246 97z" />
<glyph unicode="J" horiz-adv-x="837" d="M-186 -86q18 0 46.5 -9t41.5 -9q25 0 43 22q12 -23 38.5 -8.5t41.5 -7.5q47 4 59 6q27 10 39 39q4 14 0 37q-4 27 -4 34q0 18 8 33q-16 16 -16 43q0 14 6 44t6 44q0 12 -4 23q6 8 6 18t-6 33t-6 33q0 8 2 14q-10 6 -11 14q0 4 8.5 17.5t6.5 23.5q-8 25 -8 54q0 12 2 34.5 t2 34.5q0 29 -11 56q20 27 10 84t5 79q-8 16 -8 37q0 16 7 49t5 50q6 20 6 45q0 23 -7 69.5t-7 69.5l4 76q0 16 4 108q2 68 -12 111q12 14 12 39q0 23 -15.5 67.5t-15.5 61.5q0 41 64 45q18 2 55 20.5t55 20.5q14 14 45 33l-22 -68q10 -690 -4 -1004q10 -49 6 -131 q-4 -100 -2 -131q4 -23 4 -51q0 -23 -4 -74t-4 -77q0 -102 53 -160q-12 -20 -57 -24.5t-60 -24.5q-8 6 -18 6q-14 0 -39 -18.5t-41 -20.5q-14 -18 -35 -19q-10 0 -30.5 6.5t-30.5 6.5q-23 0 -37 -19l-23 17l-4 -4q-12 18 -41 28q-41 18 -45 21q-27 -6 -80 22q-4 10 3.5 17.5 z" />
<glyph unicode="K" horiz-adv-x="1445" d="M152 1526q16 18 51 27.5t51 25.5q12 0 31.5 16.5t29.5 18.5q-20 -43 -14 -156q-2 -41 -6 -84q-4 -49 4 -86q-8 -39 -2 -147q4 -94 -16 -146q6 -27 13 -56.5t30 -41.5q41 14 84 70q51 63 77 80q18 33 70.5 80t69.5 75q72 51 100 76q57 47 82 92q10 16 47 49t45 58 q57 29 90 98q37 -45 94 -66q-39 -8 -74.5 -41.5t-68.5 -66.5q-39 -51 -127 -127q-96 -84 -135 -129q-8 -8 -55 -39q-35 -20 -43 -53q10 -49 38 -54q0 -47 42 -120.5t47 -114.5q14 -27 77 -162q47 -100 95 -158q18 -76 57 -129q14 -39 57 -110q8 -20 17 -41q10 -27 28 -39 q16 -45 74 -135q25 -45 86 -131q0 -16 16 -35q20 -25 23 -35q37 -57 72 -80q-4 6 -41 10q-10 0 -17 5q-70 76 -139 153q-78 92 -119 170q-33 25 -69.5 93.5t-77.5 95.5q-29 39 -92 155q-53 98 -101 146q-27 20 -57.5 73.5t-52.5 75.5q0 10 -10.5 24.5t-12.5 18.5 q-14 10 -24.5 33.5t-20.5 46.5q-29 39 -39 49q-27 29 -55 31q-96 -47 -92 -144q8 -37 3 -114.5t7 -118.5q-14 -8 -12 -25q4 -20 2 -24q8 -10 0 -43q-6 -31 12 -41q4 -10 -4 -26.5t-8 -22.5q0 -10 12 -19q-8 -37 -8 -75q0 -100 53 -168q-166 -43 -231 -97q-8 10 -9 23 q0 10 6.5 28.5t6.5 26.5t-4 17q-4 113 0 337q-6 20 6 39q-6 18 -2 61.5t-8 65.5q4 207 4 639q8 20 2 74q-4 47 8 72q-10 16 -14 65q-4 43 -31 62l-17 28q10 -4 41 2q23 9 48 15z" />
<glyph unicode="L" horiz-adv-x="1165" d="M168 1516q12 25 52 27.5t50 31.5q16 -2 31.5 14.5t28.5 30.5q-31 -53 -35 -131q-2 -68 -4 -135l8 -27q-8 -350 -4 -481q-8 -14 -2 -41q6 -37 6 -43q0 -16 -8 -29q2 -27 0 -74q-6 -55 -6 -73q0 -37 10 -68l-10 -8l6 -180q8 -14 4 -41q-8 -39 -8 -43q0 -16 10 -29 q-2 -20 7 -49t9 -43q8 -18 49 -21q16 0 29 -12q12 0 28.5 12.5t24.5 12.5q10 0 21 -13q16 12 43 5q37 -10 41 -11q18 0 29 15q10 -8 30.5 -4t29.5 -4.5t24 -6.5q20 14 90 -2q10 8 34.5 4t34.5 9q4 0 39 -7q27 -4 45 0q10 -25 4 -34q-41 -12 -86 -24.5t-73 -35.5 q-20 -27 -45 -14q-8 25 -66 10l-14 -12q-12 33 -52 10q-4 2 -10 -5t-10 -7q4 0 -12 12q-12 -4 -41 4q-29 10 -49 -2q-33 18 -70 -2q-16 -2 -42 3t-36 5q-18 0 -35 -8q-10 12 -53 10q-4 -12 -18 -8q-14 6 -21 0q-12 4 -33.5 -8t-36.5 -10q16 6 19.5 22.5t7.5 32.5v31l-4 1257 q-10 18 -8 49q2 39 0 47q-12 20 -35 60q14 12 39 18z" />
<glyph unicode="M" horiz-adv-x="2267" d="M178 1524q14 6 82 24q51 12 74 33q6 -2 35 2q23 4 32 -10q14 6 56 0q35 -4 57 12q16 2 43 -4t37 -6q25 0 43 16q16 4 43 -9t33 -13q14 0 24 16q6 0 15.5 -6t15.5 -6q8 12 27 12q8 -23 28 -22q8 0 47 12q14 18 37 18q12 0 35 -6t35 -6q10 0 18 4q16 -6 37 -6q18 0 57 9 t58 9q20 0 37 -6q90 0 137 -10q12 0 36.5 6t37.5 6q18 0 30 -8q8 4 19 4q8 0 24.5 -4t24.5 -4q18 0 31 12q33 -20 49 -8q6 8 26 8q4 -8 17 -8h18q20 6 56 19q6 -14 2 -48q-4 -35 -2 -47q4 -23 -11 -67q10 -25 7 -78t10 -80q-10 -45 -10 -108q0 -25 2 -78.5t2 -79.5 q0 -78 -15 -139q14 -57 15 -193q-6 -18 -7 -47q0 -6 7 -80q4 -49 -4 -80q-8 -96 10 -129q-6 -20 -21 -53q20 -47 4 -92q12 -39 23 -76q14 -43 45 -66q-6 8 -14 9q-6 0 -21.5 -12.5t-25.5 -12.5t-19 8q-10 -16 -30.5 -19t-41.5 -7q-35 -14 -102 -58q10 111 6 316 q-4 215 2 313q6 88 -8 102q10 33 4 177q0 33 4 149q4 92 4 148q0 176 -30 303q-43 27 -52 26q-8 0 -16 -4l-8 -10q-82 10 -113 -4v-4q-33 14 -84 14q-96 -2 -88 -2q-8 -2 -16 -2q-12 0 -37 7t-35 7t-16 -2q-33 -25 -33 -67v-25q2 -16 2 -24q0 -20 -6 -37q10 -16 9 -48t5 -44 q-6 -29 -14 -78q12 -31 7 -99.5t7 -101.5q-18 -18 -18 -43q0 -2 12 -59q10 -37 -8 -64l8 -29q4 -18 -8 -28q-2 -162 6 -488q12 -20 10 -72.5t19.5 -79t27.5 -55.5q-8 4 -18 5q-16 0 -53 -15.5t-58 -13.5q-39 -20 -112 -64q-4 41 12 76q0 256 -4 774q6 12 6 21q0 6 -6 20 q2 27 -2 232q-2 141 16 231q-23 20 -24 88q-2 61 -33 78q-31 2 -87.5 -6t-78.5 -8q-14 0 -27 2q-10 14 -26 14q-8 0 -27.5 -6t-28.5 -6q-12 0 -20 6q-10 -12 -29 -6q-31 6 -30 6q-8 0 -50 2q-29 4 -45 -14q-18 -29 -18 -74q0 -43 14 -82q0 -2 -6 -43q-6 -25 6 -39v-174 q-14 -14 -5 -50t-9 -48v-205q12 -14 8 -29q-4 -12 -8 -26q4 -55 -8 -148q10 -25 14 -98q-18 -45 -10 -68q16 -57 0 -139q12 -51 22 -104q14 -63 49 -97q-76 10 -106 -26q-12 4 -25 4q-29 0 -68.5 -33t-60.5 -35l23 29q8 279 4 698q-4 350 -8 701q-6 10 -10 45q-4 29 -21 41 q12 12 43 21.5t47 23.5z" />
<glyph unicode="N" horiz-adv-x="1832" d="M156 1513q41 16 127 41q27 33 79 27q66 -8 87 0q14 -8 42.5 -2t38.5 -2q8 6 29 1t33 9q10 -12 20 -12q8 0 22.5 8t20.5 8q8 0 13 -4q141 -14 190 6q2 -8 20.5 -8t24.5 -4q10 14 29 14q12 0 33.5 -9t25.5 -9q33 16 101 12q74 -6 102 0q18 -6 35 21q-2 -20 -8 -262 q8 -12 3 -44t3 -47q-16 -74 -6 -143q-4 -8 0 -27q4 -25 4 -30q0 -18 -15 -29q6 -33 7 -135q0 -86 12 -137q-31 -119 -2 -285q-8 -29 -10 -59q-2 -20 0 -58v-65q2 -49 16 -154l51 -67q-4 -8 -19.5 -5t-21.5 -4q-131 -35 -203 -82q-4 12 -4 27q0 18 11.5 58t11.5 61 q0 29 -19 49q12 117 -4 174q10 14 11 33q0 8 -3.5 25.5t-3.5 23.5q0 18 11 31q-6 18 -7 43q0 20 6.5 61t6.5 62q0 33 -10 59q8 33 8 76q0 23 -3 68.5t-3 70.5q0 53 10 94q-14 14 -4 50t-8 53q-6 35 12 63q0 49 -9.5 136t-9.5 135q-2 23 -27.5 50t-47.5 27q-10 0 -28.5 -8 t-31.5 -8q-10 0 -20 6q-8 -12 -21 -12q-6 0 -18 3t-19 3q-12 0 -20 -10q-16 -2 -39 4q-29 6 -39 6q-18 0 -35 -10q-12 14 -42.5 8t-41.5 2q-20 -6 -43 -6q-14 0 -44.5 4t-45.5 4q-33 0 -59 -12q-18 2 -46 9t-44 7q-12 -14 -27.5 -29.5t-15.5 -29.5q0 -8 6 -19l10 -30v-584 q-18 -29 -4 -94q0 -152 4 -432q-14 -45 -14 -56q0 -20 14 -37q-8 -55 57 -135q-2 0 -15 2t-19 2q-12 -2 -19 -10q-49 -2 -178 -72v-2h-6q-4 20 8 43q-4 20 -4 41q0 18 5 52t5 51q0 23 -6 41q14 10 8 26l-10 25q0 10 12 16q-6 18 -10 37q-6 25 0 39q-4 8 -4 16t8 25.5t8 28.5 q0 10 -8 20q-14 10 -14 23q0 8 11 26.5t11 28.5q0 14 -14 25q8 18 7 52t5 48q0 12 -4 37.5t-4 38.5q0 25 12 39q-10 12 -10 28q0 6 3 21.5t3 21.5q0 23 -18 37q23 18 10.5 60.5t7.5 62.5q0 2 -6 336q-18 20 -16 69.5t-19 69.5q-2 4 -13 10.5t-9 14.5q29 7 80 32z" />
<glyph unicode="O" horiz-adv-x="1882" d="M1319 88q-37 8 -93.5 -27.5t-86.5 -31.5q-20 -31 -101 -39q-23 20 -77 7t-76 15q-8 -2 -23.5 -9t-23.5 -7q-14 0 -25 16q-12 0 -25 -8l-20 -14q-59 33 -133 8q-8 6 -45 4t-49 18q-6 -14 -19 -14q-4 0 -15 5t-15 5q-10 0 -19 -14q-20 8 -43 8q-12 0 -53 -6q-33 -6 -55 -2 q-10 12 -29 8l-33 -8q-16 -4 -43 4q-33 10 -43 10q-20 0 -35 -18h-8q-2 8 -2 16t3 25.5t3 28.5q0 12 -4 24q10 20 10 45q0 18 -9 54t-9 55q0 25 10 47q4 14 4 33q0 16 -4 50t-4 52q0 39 14 68q0 6 -9 22.5t-9 24.5q0 12 14 20q8 25 -2 60q-12 43 -12 53q0 23 18 41 q-14 12 -14 31q0 10 5 31.5t5 33.5q0 14 -6 27q2 29 6 516q0 27 -18.5 70.5t-22.5 64.5q12 2 27.5 5t21.5 17q80 12 136 54q27 29 87 18.5t87 3.5q61 0 184 -8q4 -2 8 -2t14.5 6t14.5 6q6 0 12 -6l10 10l21 -24q14 -14 27 -8q16 25 43.5 19.5t44.5 2.5q8 2 26.5 -6t26.5 -8 q10 0 18 4q78 18 135 -8q14 -2 39 8t35 10q8 0 17 -4q6 8 16 8q4 0 18 -4q10 -4 17 0q14 4 47 4t47 6q6 -182 0 -548q-8 -8 -8 -19q0 -8 7 -23.5t7 -23.5q0 -14 -16 -25q10 -29 10 -65q0 -16 -3 -52t-3 -57q0 -18 4 -32.5t4 -30.5q0 -18 -9 -52t-9 -44q0 -8 6 -36t6 -42 q0 -29 -19 -45q25 -57 11 -101q-25 -66 12 -125l4 -90q8 -51 37 -82v-14zM1116 635q-18 16 -10 51t-4 49q10 31 10 70q0 16 -3 51t-3 53q0 41 10 74q-12 16 -5 47t-5 45q0 6 4 172q4 102 -12 170q-8 18 -16.5 39t-28.5 21q-51 4 -107 4q-57 0 -115 -4q-18 20 -47 10 q-45 -14 -47 -14q-18 0 -35 18q-10 -20 -22 -21q-8 0 -25.5 12.5t-25.5 12.5t-17 -10l-4 6q-37 -12 -82 -12q-23 0 -70.5 4t-72.5 4t-42 -2t-24 -19q-10 -25 -12 -26q27 -51 6 -140q16 -20 17 -47q0 -16 -8.5 -49t-8.5 -49q0 -43 11 -131q-12 -158 -9 -416q8 -430 9 -438 q12 -31 18 -41q14 -20 33 -33q18 20 67 19.5t66 13.5q8 -16 33 -14q47 0 43 0q12 -6 26 -6q10 0 33 5t35 5q27 0 43 -23q12 -4 31.5 7.5t21.5 11.5q41 4 121 -9q47 -14 59 9q-2 2 45 2q31 0 41 -21q18 2 40 4t28 25q-2 37 -2 78q0 43 4 128t4 130q0 37 -2 71q-8 12 -8 31 q0 12 6 38t8 34z" />
<glyph unicode="P" horiz-adv-x="1443" d="M1116 1540q-12 -8 -7 -26.5t-3 -28.5q-12 -16 -16.5 -57.5t-16.5 -57.5q-4 -14 -2 -45q-20 -27 -37.5 -90.5t-38.5 -91.5q-20 -49 -82 -131q-10 -25 -51 -48.5t-49 -48.5q-68 -49 -219 -137q-16 -18 -60.5 -30.5t-62.5 -28.5q-96 6 -168 -27l-14 -14q2 -43 2 -94 q0 -47 -3 -141.5t-3 -139.5q0 -109 14 -186l41 -60q-4 -2 -47 -12q-31 -6 -41 -29q-16 0 -48 -16t-52 -14q-6 -2 -21.5 -18.5t-24.5 -14.5q33 51 19 141q-4 178 4 643q-12 14 -6 41q4 33 2 41q8 127 4 520q-10 16 -14 80q-2 47 -39 62q4 12 22.5 7t26.5 3q31 25 104.5 47.5 t104.5 50.5q18 -12 53 -6q43 6 53 2q12 -16 25 -16q8 0 24.5 7t24.5 7q14 0 27 -20q20 -4 41 20q6 0 34 -4q20 -4 33 6q14 -14 44 -4t44 -8q6 2 17 12q12 -14 28 -6q25 12 27 12q10 0 20 -14q113 4 172 8q12 -23 27 -22q8 0 33.5 15t40.5 11q2 -2 9 -19.5t5 -29.5zM868 1458 q-6 29 -22 29q-10 0 -29.5 -10.5t-28.5 -10.5q-10 0 -14 11q-6 6 -18.5 -2.5t-18.5 -6.5q-8 -6 -16 -6q-12 0 -35 23q-35 4 -39 -17q-10 -10 -18 -10q-6 0 -20.5 11.5t-26.5 7.5q-12 -10 -31 -11q-8 0 -24.5 2t-22.5 2q-16 0 -27 -8q-23 25 -65 25q-74 -2 -72 -2 q-49 -16 -49 -78q0 -16 5 -54t3 -55q-10 -12 -10 -28q0 -12 6 -34t6 -34t-6 -22q-6 -193 -6 -369q12 -25 33 -25q12 0 34.5 8.5t32.5 6.5q14 20 39 22h45q20 4 31 23q37 14 110 47q61 59 125 121q68 76 84 147q10 45 33 131q-4 12 -4 25q0 18 16.5 52t16.5 50q-1 21 -17 39z " />
<glyph unicode="Q" horiz-adv-x="1830" d="M1317 59q-49 -14 -150 -28q-49 -33 -96 -39q-8 -23 -20 -23q-6 0 -20.5 8.5t-22.5 8.5q-10 0 -19 -11q-16 8 -35 9q-12 0 -38.5 -5.5t-38.5 -5.5q-16 0 -31 4q-20 25 -39 25q-16 0 -34.5 -19.5t-18.5 -35.5q0 -10 6 -19q8 -23 10 -96q4 -61 21 -92q4 -18 8 -35 q6 -23 20 -29q-18 -2 -61 -22.5t-66 -22.5q-6 -2 -78 -55q12 41 15 107q0 88 2 108q4 29 -8 86q12 80 12 70q0 29 -21.5 43t-58.5 6q-51 -10 -57 -10q-25 0 -41 16l-310 -4q-2 -4 -32 -21q4 57 -4 89q29 20 4 59q10 94 -4 133q2 35 12 100q-2 14 0 39q6 33 6 41q0 25 -14 39 q14 18 4 63.5t8 65.5q-18 45 -18 80t18 57q6 10 -5 27.5t-11 22.5q0 10 12 18q-6 12 -6 27q0 12 6 36.5t6 36.5q0 25 -18 41q18 45 18 117q0 29 -4 87t-4 87t2 53q-14 117 -41 193q47 31 84 31q20 20 74 32q47 12 67 41q6 2 12 2q10 0 24.5 -6t21.5 -6q8 0 16 4t20 4 q16 0 52 -7t55 -7q12 0 24 2q20 -2 60 6q16 4 44 -8t38 -12q14 0 26 14q27 -16 107 -8q25 -10 57 -10q23 0 65 6t64 6q27 0 49 -6q31 2 111 -4q63 -4 104 8q14 -6 13 -17q-2 -10 -6 -20v-125q-20 -37 -11 -57l15 -25q-6 -20 0 -84q4 -53 -19 -80q23 -20 7.5 -63t11.5 -64 q-18 -74 -19 -108q0 -39 15 -70q0 -12 -6.5 -38.5t-6.5 -41.5q0 -23 13 -35q-12 -25 -15 -49q-2 -16 1 -49t3 -49q8 -18 9 -41q0 -20 -6.5 -59t-6.5 -58q0 -27 8 -49q-8 -20 -8 -45q0 -12 2 -35.5t2 -34.5q0 -25 -8 -45q12 -43 27 -86q18 -53 45 -84zM1085 770q-25 18 -8 59 t-6 60q12 31 7 99.5t3 96.5q-4 6 2 31q4 18 -8 29q10 25 7 73t3 70q-18 12 -18 33q0 6 2 19.5t2 19.5q0 20 -12 33q4 6 4 12t-8 17.5t-6 19.5q-39 23 -60 10q-6 8 -16 8q-6 0 -21.5 -6t-23.5 -2q-12 8 -45 2t-49 10q-86 -10 -134 6q-139 -4 -301 5v4q-6 -2 -59 -2 q-35 2 -47 -25q4 -174 4 -373t-4 -368l10 -45q-12 -16 -12 -39q0 -10 3 -29.5t3 -28.5q0 -18 -8 -32q6 -37 8 -88q2 -33 0 -91v-86q-2 -4 -2 -10q0 -8 8 -12q-10 -12 -10 -27q0 -10 6 -28.5t6 -30.5q0 -8 -2 -17q2 -45 53 -63q16 -6 36 10.5t26 16.5q8 0 16 -9q8 10 19 11 q2 0 24 -11q14 -6 27 4q20 -12 41 -12q33 0 84 39t80 41q20 -2 43 21q31 31 39 34q6 -6 6 -12t-11.5 -18.5t-7.5 -24.5q-8 -63 8 -82q6 2 18.5 -3t16.5 -5q10 0 17 14q4 0 18 2t23 2q10 -2 19 -8t17 -6q12 0 32 11.5t28 13.5q2 -2 18.5 -13.5t26.5 -11.5q2 2 27 6 q16 2 18 19q-2 70 2 166q4 127 4 157q0 82 -2 164q0 94 16 170z" />
<glyph unicode="R" horiz-adv-x="1708" d="M1585 -264q-8 18 -29 18h-34q-84 86 -244 277q-61 51 -146 168.5t-145 169.5q-6 6 -20 51q-10 31 -39 37q-18 41 -80 112.5t-82 118.5q-43 57 -131 152q-16 0 -40 -15.5t-34 -17.5q-18 -25 -108 -51q-16 -25 -69.5 -34t-72.5 -34q-2 -403 6 -520q20 -59 23 -64 q16 -35 43 -45q-12 10 -33 9q-31 -6 -37 -5q-8 -10 -33.5 -19t-35.5 -19q-10 4 -19 4q-16 0 -39.5 -17.5t-38.5 -19.5q-2 -4 -45 -37q27 33 29 88v98l-8 13q-4 35 0 96q4 78 4 100q0 41 -6 74q6 12 6 27q0 10 -6 30.5t-6 30.5t4 18q14 23 8 54q-10 51 -10 55q0 20 14 39 q-16 14 -16 35q0 10 6 31.5t6 31.5t-1 18.5t-7 31t-6 34.5q0 20 14 33q4 25 -14 41q12 18 12 45q0 10 -3 31.5t-3 31.5q0 14 4 27q0 12 -5 34.5t-5 33.5q0 23 14 39q6 12 6 26t-10 46t-10 48q0 12 7 22.5t7 24.5q0 8 -4 24.5t-6 27.5q-10 39 -51 104q43 4 206 72q10 2 41 8 q25 8 39 8q27 0 47 -20q10 2 32 10t34 8q16 0 31 -16q10 -2 21 4l22 12q14 -6 30 -6q18 0 50 9t47 9q20 0 39 -14q4 0 28 8q18 6 29 6q25 0 31 -24q14 10 30 12q10 2 27 0q23 -2 31 -2q8 4 18 4q12 0 33.5 -5t34.5 -5q18 0 34 12q10 4 19 4q12 0 34.5 -12t35.5 -12 q14 0 28 12q10 -6 25 -6q12 0 43 8t47 6q12 -18 12 -39q0 -23 -16 -61q-18 -45 -21 -62q-4 -4 -41 -47q-27 -31 -28 -55q-53 -33 -74 -125q-53 -25 -61 -76q-23 -16 -70 -69q-35 -43 -74 -56q-29 -20 -29 -47q0 -12 7 -22q45 -66 112.5 -213.5t116.5 -212.5q18 -61 86 -152 q72 -98 92 -149q35 -63 123 -185q8 -37 47 -86q47 -63 58 -82q14 -25 53 -59q47 -41 59 -55zM950 1487q-6 -2 -16 -2q-6 0 -22.5 2t-24.5 2q-25 0 -35 -19q-39 16 -160 17q-35 18 -47 2q-4 2 -8 2q-6 0 -18.5 -5t-18.5 -5q-8 0 -14 8q-74 -8 -246 8q-33 -37 -25 -119 q8 -94 -4 -127q12 -20 13 -41q0 -14 -8.5 -37.5t-8.5 -37.5t8.5 -28.5t1.5 -41.5q-8 -39 -8 -45q0 -18 10 -33q-14 -61 0 -192q14 -16 33 -17q18 0 51 21.5t46 25.5q90 43 264 211q33 6 58.5 48t51.5 49q29 49 86 149q6 25 37 70q25 66 25 86q-1 31 -21 49z" />
<glyph unicode="S" horiz-adv-x="1622" d="M463 1591q-4 0 65 2q35 0 60 -14q8 12 20 12q8 0 25.5 -9t25.5 -9q14 0 25 14q18 2 49 -3t43 -5q23 0 43 12q12 -10 29 -10q8 0 24.5 3t24.5 3q27 0 41 -22q23 12 50.5 16t51.5 6q8 -10 21 -10q4 0 15 3t18 3q12 0 20 -14q-27 -10 -86 -37q-8 -16 -22 -12q-18 4 -25 2 q-10 -16 -33.5 -25.5t-32.5 -15.5q-14 16 -41 16q-10 0 -33.5 -5t-33.5 -5t-16 2q-8 10 -19 10q-2 0 -27 -8q-14 -6 -24 4q-8 2 -16 2q-12 0 -33 -5t-29 -5q-16 0 -29 8q-25 -10 -26 -10q-10 10 -37 10q-37 -2 -41 0q-8 -4 -21 -4q-8 0 -28.5 4t-30.5 4q-20 0 -33 -14 q-12 8 -53 2t-53 12q-6 4 -15 4q-20 0 -51 -30q-31 -20 -12 -54q10 -8 10 -20q0 -8 -7 -25.5t-7 -27.5q0 -6 4 -13q-4 -12 4 -35.5t8 -33.5q0 -16 -12 -29q14 -14 6 -37q-12 -35 -12 -39q0 -14 14 -26q-4 -14 -10 -29q-2 -16 10 -31q10 -55 21 -110q14 -66 53 -93q6 2 45 4 q25 0 39 15q27 -8 100 -2q63 6 94 -13q20 23 53 6.5t54 8.5q20 -6 67.5 -3t71.5 -7q25 8 77 3t79 7q14 -14 40.5 -4t35.5 -21q-2 -29 14 -71q16 -35 33 -70q-6 -76 0 -227q-16 -16 -5 -59.5t-16 -61.5q2 -106 8 -150q12 -84 52 -141q-16 -10 -74 -16q-47 -6 -68 -29 q-35 -12 -102 -33q-6 -16 -21 -16q-4 0 -17 4t-19 4q-10 0 -17 -6q-154 -2 -448 4q-6 -10 -15 -10q-4 0 -18 6q-12 2 -21 0q-8 -2 -18 -2q-8 0 -28.5 3t-32.5 3q-20 0 -35 -10l-23 14h-147l-25 -6q-16 -4 -26 2l-11 14q8 2 95 27q59 16 90 43q104 12 135 -4q18 16 53 10 t47 2t25 8q10 0 31.5 -9t31.5 -9q18 0 31 20q33 -10 152 -6q41 0 114 -4q12 18 27 18q10 0 32.5 -12t34.5 -12t23 6q23 14 22 35q0 6 -3 19.5t-3 19.5q0 14 11 22q-10 16 -11 39q0 2 11 62q6 39 -9 61q14 102 15 90q0 29 -15 49q12 10 13 25q0 6 -4 29q-4 16 0 26l10 99 l-10 12q16 109 -37 155q-6 0 -47 -6q-31 -4 -50 4q-25 -16 -55 -16q-29 4 -57 6q-10 2 -27.5 -6t-25.5 -8q-10 0 -19 10q-10 -8 -33.5 -2t-36.5 -8q-35 23 -55 10q-6 -10 -14 -10q-2 0 -9.5 3t-11.5 3q-8 0 -12 -10q-16 10 -37 2q-31 -12 -35 -12q-14 0 -24 14 q-20 6 -33 -12v-7q-8 -2 -18.5 8.5t-9.5 10.5t-52 2q-33 0 -45 -21q-16 4 -35 9q-18 2 -30 -13q-31 20 -48 66q-14 39 -26 78q-12 68 4 98q-10 8 -10 18q0 6 7 20.5t7 20.5q0 8 -4 13q6 59 6 100t-6 94q12 18 12 35q0 14 -12 41t-12 43q0 12 4 25q-33 27 -33 55q6 -4 12 -4 t19.5 10t19.5 10q4 0 8 -2q16 14 74 23q47 8 66 39q6 -4 14 -4q12 0 34.5 13t35.5 13q14 0 28 -14q6 -2 17.5 8t21.5 6q10 -12 25 -10l28 4q8 16 29 6t31 4z" />
<glyph unicode="T" horiz-adv-x="1423" d="M362 1581q37 4 107 -8q10 -4 27.5 7t21.5 11q10 0 19 -12q2 0 55 8q31 6 47 -6q14 10 37 4q35 -8 41 -8q16 0 28 10q-4 0 125 -8q63 6 185 -6q14 16 30 16q10 0 33 -10t35 -10q16 0 31 16q2 -8 4 -22q-12 -18 -45 -19.5t-47 -19.5q0 4 -13 4q-31 -33 -98 -37 q-82 -4 -104 -16q-10 -2 -34 9t-36 11q-20 0 -31 -27q-12 -2 -28.5 9.5t-22.5 11.5q-10 0 -18 -8l-29 -29l4 -776q-6 -45 -8 -41l14 -23q-6 -154 2 -454q14 -25 35 -76q-20 -14 -74 -21q-45 -6 -63 -28q-63 -10 -103 -64q33 45 33 125q0 16 -4 82q-4 51 0 80q0 387 -2 377 q6 88 -2 129q6 6 6 16q0 8 -5 22.5t-5 22.5q0 10 8 21q-2 47 -6 129q-6 131 6 393q-18 16 -21 61.5t-34 61.5q-6 6 -17 6q-10 0 -29.5 -13.5t-27.5 -13.5q-14 0 -27 23q-8 6 -18 6q-14 0 -36.5 -13.5t-33.5 -13.5q-14 0 -26 19q-10 2 -94 -2q-55 -4 -97 8q14 8 39 31 q8 -6 17 -6q14 0 42.5 20.5t45.5 18.5q31 27 78 26q-23 0 83 -4z" />
<glyph unicode="U" horiz-adv-x="1914" d="M289 1608q4 -8 4 -19q0 -12 -9.5 -38.5t-9.5 -41.5q0 -14 9 -26q-14 -14 -15 -33q0 -12 9.5 -38t9.5 -38q0 -16 -13 -31q16 -25 -2 -47q8 -61 5 -185t6 -185q-10 -80 -5 -260.5t-4 -251.5q-2 -12 3.5 -32t5.5 -26q0 -16 -13 -28q12 -68 2 -101q0 -2 21 -88q10 -51 59 -57 q18 2 51 11t52 9q14 0 30 -4q57 -8 82 6q18 -25 45 -18q10 18 31 18q6 0 23.5 -4t25.5 -4q14 0 25 10q8 0 21.5 -11t21.5 -11q6 0 14 5t25 24q10 -12 24 -13q-2 0 49 13l5 6q14 -27 32 -27q8 0 26.5 8.5t29.5 8.5q8 0 14 -3q14 8 80 3q47 -6 55 41q0 240 -6 628 q-6 475 -6 615q-16 37 -43 114q47 18 141 66q31 6 82 43q2 -37 -10 -66q0 -262 6 -313l-8 -10q8 -51 4 -135q-4 -94 0 -129q-10 -10 -10 -21q0 4 16 -39q-8 -20 -8 -45q0 -14 3 -38.5t3 -37.5q0 -31 -14 -55q12 -23 12 -68v-71q-18 -39 12 -92q-4 -31 -22 -88q8 -29 8 -74 q0 -12 -2 -37v-37q0 -111 67 -162q-8 10 -18 11q-10 0 -30.5 -15.5t-33.5 -9.5q-23 -18 -75 -28.5t-74 -32.5q-59 -25 -152 -25q-33 0 -101.5 4t-102.5 4q-41 0 -72 -4q-6 -2 -47 0q-31 2 -41 -12q-29 10 -78 8q-57 -4 -78 0q-215 4 -301 -6q-18 6 -16 26q4 29 2 33 q4 315 -4 928q8 12 4 38.5t4 43.5q-8 57 -14 119q8 45 2 131q-2 8 3 25.5t5 25.5q0 18 -15 27q4 70 -30 124q35 -6 81 24t69.5 35t62.5 36z" />
<glyph unicode="V" horiz-adv-x="1443" d="M92 1528q10 -61 10 -68q10 -37 31 -59q-2 -25 18.5 -73t20.5 -75q10 -18 16.5 -52t16.5 -52q4 -45 28 -105q33 -80 39 -100q23 -70 60 -213q12 -14 16 -49t10 -47q18 -74 40 -120t42 -122q31 -121 31 -125q8 -59 78 -80q10 8 29 23q25 51 24 96q2 14 23 53q16 31 12 58 q12 14 31 49q4 29 21.5 76t21.5 71q51 133 129 400q18 49 43 151q27 92 86 275q-2 18 12 53t14 51q2 25 25 31q33 12 39 16q43 -18 55 -4q-2 -12 -41 -78q-8 -51 -31 -116q-37 -106 -36 -113q-23 -70 -29 -86q-16 -49 -41 -78q-45 -203 -170 -504q-4 -41 -35 -106 q-35 -78 -43 -107q-39 -137 -92 -252q-25 -6 -58.5 -45t-54.5 -47q-16 -31 -53 -68.5t-43 -60.5l-18 -10q18 12 16 37q-2 20 -6 41q-2 31 -27 82q4 23 -15.5 67.5t-14.5 73.5q-41 86 -101 266q4 16 -9 38t-13 32q0 6 2 10q-12 25 -23 68q-12 53 -20 69q-68 170 -107 340 q-12 8 -13 30t-5 30q-23 23 -31 82t-27 80q-25 90 -36 127q-25 68 -54 118q-4 2 -43 17q31 0 88.5 37.5t92.5 40.5l32 30q12 -12 16.5 -51t20.5 -53z" />
<glyph unicode="W" horiz-adv-x="2277" d="M297 1405q8 -47 5 -141.5t5 -139.5l-8 -10q12 -131 6 -379q-6 -260 2 -379q-8 -41 6 -59q6 -57 17 -168q41 -59 76 -51q16 20 54 20t52 11q23 -8 53 -9q16 0 70 4q45 6 70 2q-10 0 61 -4q37 0 59 17q31 18 13.5 57t9.5 60q-20 51 -14 223q-10 10 -5 30q8 27 9 31 q0 12 -11 23q12 16 13 41q4 41 4 45q-16 14 -17 37q0 12 6.5 36.5t6.5 38.5q0 16 -10.5 34t-0.5 44q12 37 13 41q0 16 -17 29q-4 16 3.5 39.5t7.5 29.5q0 12 -11 25q14 18 4 57t7 60q-14 27 -9 80q6 66 2 84q6 31 -9 87t-13 85l-37 57q68 49 152 55q33 20 92 45 q0 -16 -8.5 -71.5t-8.5 -83.5q0 -39 13 -64q-23 -213 -6 -491q10 -4 10 -11q0 -4 -7.5 -14t-5.5 -16q0 -33 3 -135q2 -90 2 -142q-2 -78 -9 -141q6 -82 13.5 -167t33.5 -148q8 -16 64 -29q31 4 92 31q33 -10 37 -9q10 12 27 9q31 -8 30 -9q12 -2 27 -2q20 0 65.5 7.5 t67.5 7.5q29 0 49 -9q43 18 43 60q0 12 -6 34.5t-6 35.5q0 14 8 26l-6 676q-10 10 -4 27q8 23 8 26q0 10 -10 19q16 203 -8 383q-8 72 -39 112q47 23 139 49q16 10 45 24.5t45 27.5q4 -33 -14 -66q2 -31 2 -70q0 -29 -3 -90t-3 -90q0 -57 10 -96q-14 -92 -2 -176 q0 -53 -6 -170q23 -41 2 -84q0 -16 10 -23q-4 -90 -10 -280q8 -16 3 -58.5t3 -58.5q-10 -10 -2 -32.5t-6 -35.5q18 -18 22 -88q2 -61 37 -82q-76 -18 -209 -73q-39 -23 -106 -23q-53 0 -94 15q-8 -16 -25 -17q-27 0 -25 2q-43 2 -84 4q-47 0 -75 -20q-37 18 -117 15t-115 14 q-25 -2 -49.5 -5.5t-42.5 -19.5q-10 23 -55 6q-6 -8 -13 -8q-6 0 -16 8t-14 8q-16 -14 -51 -5t-52 -5q-117 16 -211 -4q-8 10 -18 10q-2 0 -29 -8q-16 -6 -26 6q-33 0 -90 -14q-4 8 -13 8q-4 0 -12 -3t-12 -3q-8 0 -13 10q-45 2 -67 -14q14 10 14 41q0 12 -3 39.5t-3 40.5 q0 27 8 43q4 16 -2 45q-8 37 -8 47q0 12 4 20q14 35 -6 74q0 1057 0 254v242q0 256 0 247q0 12 -5 40t-5 44q0 29 14 47q4 14 4 29q0 20 -8 57t-8 54q0 14 4 28q-10 35 -43 103q45 23 63 28q45 18 80 21q33 16 92 68q-4 -64 -16 -197z" />
<glyph unicode="X" horiz-adv-x="1454" d="M242 1427q4 -20 36.5 -53t26.5 -63q33 -39 64 -103q47 -96 53 -108q18 -12 16 -33q47 -61 64 -141q27 -43 69 -23q45 33 91 117q49 92 81 123q31 53 62 108q37 66 78 99q-4 6 -4 12q0 8 14 20.5t16 16.5q12 33 52 93t53 87q16 -14 67 -4q4 12 28 17t30 18 q-20 -14 -48 -54t-47 -53q-2 -29 -42.5 -74t-45.5 -73q-31 -33 -79 -105.5t-78 -107.5q-12 -14 -33 -59.5t-42.5 -64t-57.5 -85.5q-31 -57 -66 -78q-16 -51 23 -76q53 -115 170 -295q2 -31 36.5 -72.5t36.5 -72.5q33 -41 90 -117q10 -51 105 -141q14 -2 37 -16 q-6 -2 -113 -37q-68 -20 -102 -58q-18 6 -32.5 40t-23.5 44q-47 51 -63 117q-31 43 -90 172q-51 106 -105 162q-31 55 -84 174q-8 14 -30 14q-37 0 -35 -2q-18 -14 -34.5 -57t-39.5 -57q-8 -37 -41 -84q-29 -39 -55 -78q0 -16 -14.5 -30.5t-18.5 -23.5q-6 -49 -70.5 -120.5 t-70.5 -118.5q-55 -72 -70 -121q-119 4 -156 -29q74 63 146 168q61 92 123 185q51 68 140 208t140 205q25 39 -2 90q-18 39 -59 95q-57 78 -66 92q-2 51 -69 133q-14 43 -74.5 123t-75.5 129q-33 41 -65 82q-41 45 -90 39q41 -6 82 30q10 -6 20 -6q16 0 48 19.5t48 21.5 q18 10 41 43q31 -49 62 -96q35 -58 43 -107z" />
<glyph unicode="Y" horiz-adv-x="1466" d="M190 1487q39 -57 84 -160q29 -20 49.5 -77.5t53.5 -78.5q2 -29 28.5 -73.5t30.5 -67.5q74 -68 94 -186q31 -47 86 -27q29 43 56 86q33 51 43 92q33 20 33 39q31 47 92 178l16 11q39 47 117 184q66 115 125 174q16 -8 30 -8q16 0 48 15.5t51 17.5q-49 -39 -105 -121 q-72 -109 -90 -131q-51 -78 -166 -226q0 -18 -25.5 -46.5t-25.5 -47.5q-33 -31 -71.5 -108.5t-75.5 -108.5q2 -25 -28 -52.5t-24 -51.5q-31 -31 -14 -78q12 -4 8 -19q-6 -18 -4 -22q-6 -2 -10 -29q10 -8 10 -16q0 -6 -5 -19.5t-5 -19.5q-6 -115 0 -354q12 -25 24.5 -51.5 t32.5 -38.5q-16 -10 -60 -9.5t-67 -25.5q-14 2 -29.5 -14.5t-31.5 -12.5l-62 -47q31 37 31 115q-2 104 2 125q-4 63 2 168q6 127 6 163q0 88 -14 156q-20 109 -135 272q-127 184 -156 267q-20 27 -100 161q-59 100 -123 146h-29q27 4 78 29q8 -6 19 -7q18 0 47.5 28t46.5 28 q8 0 14 -2l37 39q18 -23 31.5 -79t29.5 -79z" />
<glyph unicode="Z" horiz-adv-x="1363" d="M-14 1563q31 -4 90 12q10 -10 24 -10q8 0 26.5 5t29.5 5q23 0 63 -2q172 12 334 6q12 8 35 0q29 -10 37 -10q14 0 24 16q27 -14 68 -14q35 2 69 2q10 8 23 8q10 0 30.5 -11t28.5 -11t17 6q8 0 23.5 11t23.5 11q25 0 24 -59q0 -37 -28 -92q-37 -68 -43 -90 q-25 -25 -56 -91q-18 -51 -77 -147q-37 -74 -211 -391q4 -8 4 -15q0 -14 -22.5 -32.5t-22.5 -30.5q0 -6 4 -12q-16 -39 -78 -119q2 -27 -33 -61.5t-33 -63.5q-66 -96 -77 -152q-4 -10 -29 -49q-18 -31 -18 -51t16 -37q8 -12 57 -26q14 16 49 16q43 -2 54 2q25 -14 51 -12 q27 4 53 8q16 8 39 2q33 -8 37 -8q14 0 24 10q29 -4 56 -10q33 -6 55 4q4 10 8 10t13.5 -8t15.5 -6q8 -4 18 0q16 4 19 4q8 0 14 -10q33 -4 80 4q57 10 76 10q33 0 61 -14q-4 -12 -23.5 -24.5t-37.5 -22.5q-10 4 -21 4q-25 0 -62.5 -26t-56.5 -26q-20 0 -40 21 q-12 6 -31 -6.5t-25 -12.5q-10 0 -20 15q-10 2 -28.5 -3t-22.5 -5q-14 0 -27 14q-20 4 -53 -6t-43 -10q-20 0 -41 18q-12 2 -26.5 -6t-20.5 -8q-10 0 -23 14q-23 2 -57 -4q-41 -8 -56 -8q-23 0 -41 8q-31 0 -188 2q-109 0 -176 -12l-23 -19q-2 2 13 15q43 41 86 122 q47 96 69 127q16 47 69.5 131t70.5 134q33 68 110 194q8 41 49 107q45 74 56 104q29 41 86 129q-4 31 28.5 74t32.5 67q23 55 88 160q31 94 31 127q0 16 -4 29q-27 47 -82 37q-4 -29 -29 -23q-31 10 -41 -2q-82 10 -116 -8q-41 16 -56 14q-25 -10 -65 -12q-49 0 -66 -6 q-8 0 -80 -2q-49 0 -80 -15q-80 14 -100 -2q-25 66 -61 113q12 0 34.5 -12.5t32.5 -12.5q11 1 21 7z" />
<glyph unicode="a" d="M1354 100q-27 -31 -82 -22q-70 -20 -109 -53q-29 -31 -57 -62q-4 2 -4 8q0 8 12 36t12 40q0 8 -4 12q16 20 8 58.5t5 56.5q-4 18 -5 43q0 25 5 45q0 2 -5 115q0 10 3 22q0 12 -7 70q-4 43 9 68q-14 33 -9 98q8 68 0 98q0 8 3.5 30.5t3.5 35.5q0 47 -37 65q-16 2 -46 -13 t-44 -15t-27 10l-18 -8q-12 -2 -25 -2q-16 0 -45 3t-43 3q-35 0 -53 -19q-10 2 -21.5 2t-13.5 13q-33 2 -92 -9v5q-16 -8 -49 -2t-52 -9l-22 8q-14 4 -23 -8q-2 0 -94 -6q-53 -4 -88 6q-18 -2 -28.5 -20.5t-18.5 -34.5q-6 -35 2 -80q10 -55 10 -72q0 -29 -10 -55 q8 -12 8 -26t-8 -29q16 -18 12 -51q-4 -47 -2 -56q2 -20 2 -41q0 -23 -5 -63.5t-5 -61.5q0 -53 29 -96q-2 -14 14 -29.5t18 -25.5q-4 6 -10 6t-30.5 -11t-38.5 -7q-27 -23 -62 -27q-29 -18 -59 -37q-35 -25 -52 -51q27 47 27 127q0 25 -3 76t-3 73q4 4 1 19.5t7 23.5 q2 55 -8 170q29 23 2 31l-2 86q6 18 2 62q-4 49 0 69q4 23 4 43q0 76 -72 176q16 2 31 2q23 4 29 21q8 35 3 110.5t5 112.5q-10 14 -7 49t-1 45q18 100 -25 211l-18 31q53 10 141 49q96 41 139 51l9 -8q90 2 270 -6q12 -2 29.5 6t23.5 8q12 0 21 -14l145 6l8 8 q18 -18 64.5 -9t62.5 -5q10 -4 34 1t30 5q23 0 37 -22q14 -2 34.5 12t32.5 14q8 0 17 -4l8 8q16 -14 69 -4l9 8q6 0 16 -4l10 9q-8 -18 -2 -70q6 -43 -10 -70q-4 -12 -4 -26q0 -18 8 -66.5t4 -77.5q12 -20 12 -49q0 -16 -5 -49t-3 -45q10 -29 3 -82t5 -80q-8 -281 11 -373 q-18 -25 -11 -112q2 -6 -2 -45q-2 -27 13 -43l-11 -15l2 -10v-117q0 -66 21 -112q-4 -4 -4 -8q0 -6 8 -18.5t8 -15t23 -18.5zM1126 1380q-16 16 -19 59.5t-26 61.5q-16 4 -34 8q-18 2 -31 -16q-8 16 -21 16q-18 0 -39 -24q-4 2 -8 16q-8 8 -16 8q-10 0 -29 -20q-10 10 -8 12 h-35q-18 6 -53 -8q-10 -6 -19 -6q-12 0 -35.5 13t-39.5 13q-6 0 -15 -2q-55 -20 -110 0q-12 -20 -31 -20q-10 0 -32.5 10t-35.5 10q-10 -10 -26 -10q-6 0 -18.5 2t-20.5 2q-18 0 -33 -12q-4 12 -20.5 16t-22.5 11q-29 -8 -55 -41v-17q-8 -10 -4 -18q4 -14 4 -21 q12 -74 8 -331q6 -16 6 -39q0 -16 -5 -51t-5 -52q0 -35 16 -61q10 -6 23 -6q12 0 36.5 15t41.5 13q14 -18 32 -18q10 0 32 7t32 7t18 -4q14 6 52 1t57 7q14 -14 39 -12q6 4 14 4q6 0 31 -6q18 -6 31 -2q41 14 143 4q8 12 16 12q4 0 16.5 -8t20.5 -8q6 0 13 4q10 12 22 12 q6 0 24.5 -8t30.5 -4q10 14 25 14q6 0 17.5 -3t17.5 -3q16 0 24 23v78q-4 16 2 57q6 35 -6 55q-2 88 8 260z" />
<glyph unicode="b" horiz-adv-x="1853" d="M1339 96q-10 -8 -24 -8q-8 0 -20.5 2t-18.5 2q-27 0 -33 -29q-37 0 -94 -30.5t-84 -30.5q-14 0 -39 5t-35 5q-25 0 -43 -18q-29 10 -82 10t-75 4q-6 -2 -15 -2q-8 0 -25.5 3t-25.5 3q-20 0 -33 -18q-10 2 -27.5 17.5t-29.5 15.5q-8 0 -17 -7q-12 -14 -32 -14 q-8 0 -24.5 3t-24.5 3q-23 0 -35 -18q-14 -2 -33.5 4t-26.5 6q-12 0 -22 -10q-10 10 -43 9t-45 13q-29 -14 -82 -14q-63 0 -84 -4q-37 -12 -39 14q-4 72 8 207q-8 35 -8 74q0 16 6 96q4 57 -2 98q8 10 8 25q0 4 -8 37q-4 23 4 35q0 35 -14 104q-2 10 4 25.5t6 19.5 q0 10 -10 19q6 10 6 22q0 20 -21 53q-25 41 -28 56q-14 12 -35 39q33 -18 45 -19q12 0 25 10q20 12 18 33q0 39 0 37q-4 10 -8 18q-4 10 4 17q-8 49 0 229q6 141 -41 223q-4 6 -16 11l57 22q10 12 33.5 12.5t32.5 4.5q25 6 71 41q41 31 72 30q20 0 41 -10q12 -12 53 6 q4 0 51 -4q31 -2 45 12q25 -10 79 -9t79 -9q6 2 19.5 10t19.5 8q8 0 14 -8q27 4 105 2q66 -2 102 10q2 -2 17 -10q8 -8 16 -8q6 0 10 6q23 10 64 -6q10 -4 22 -4q14 0 41 8t43 8q10 0 21 -4q4 4 10 4t19.5 -6t19.5 -6q12 0 20 14l23 4q-8 -39 -6 -108q0 -78 -2 -109 q-2 -20 8 -65q-6 -31 -4 -84v-92q6 -18 6 -39q0 -35 -29 -93.5t-31 -90.5q16 -39 39 -123q18 -31 21 -88q4 -66 10 -89q-4 -59 -4 -165q-8 -4 0 -43v-162q10 -97 61 -152zM1116 930q-4 66 -2 176q4 125 2 168l-8 20q2 8 2 17q0 12 -9 38.5t-9 39.5q0 16 10 30q-6 90 -82 90 q-20 0 -64.5 -7t-64.5 -7q-25 0 -43 8q-14 0 -37 -4t-31 -4q-23 0 -37 16q-82 -27 -217 -12q-12 -12 -20 -12t-22.5 11t-26.5 9q-16 -18 -39 -18q-10 0 -40 8t-46 6q-37 -20 -41 -88q-2 -55 -2 -110q-2 -16 8 -41t10 -37q0 -10 -4 -19q-27 -94 8 -139l-16 -29q2 -8 2 -18 q0 -12 -4 -38t-4 -40q0 -33 22 -51q106 4 113.5 5t13.5 1q8 0 23.5 -4t21.5 -4q10 0 19 4q6 14 14 14q6 0 17.5 -9t19.5 -9t14 4q8 14 17 14q2 0 26 -10q16 -8 27 6q168 -23 250 -6q8 10 16 10t22.5 -8t22.5 -8q6 0 15 2q12 18 30 18q10 0 37 -11t43 -9t43 37zM1120 764 q-8 12 -35 41q-41 6 -63 -29q-10 18 -27 19q-8 0 -25.5 -5.5t-25.5 -7.5q-10 23 -22 23q-8 0 -26.5 -14.5t-29.5 -14.5q-10 0 -18 15q-14 -2 -35.5 3t-30.5 5q-20 0 -32 -17q-6 -2 -48 17q-27 -4 -55 -4q-29 0 -57 4q-8 2 -17.5 -5.5t-13.5 -7.5q-6 0 -10 9q-8 2 -41 -13 q-8 18 -21 19q-6 0 -20 -6.5t-23 -6.5q-10 0 -18 7q-14 -12 -29 -13q-10 0 -30.5 10.5t-28.5 12.5q-23 -2 -30 -23.5t-11 -42.5q18 -66 18 -229l-6 -18q-6 -12 6 -17q-10 -168 4 -317q23 -43 50 -43q6 0 12 2q12 -12 25 -13q6 0 28 9q16 6 31 2q8 8 24 2q25 -8 29 -8 q10 0 19 8q61 8 165 -13q12 12 41 7t43 4q8 -4 41 2q29 4 39 -8q2 0 41 8q23 4 37 -8q8 -2 19 6q41 12 57 -6q-2 0 18 8q10 4 17 -8q27 -8 61 30q0 211 4 625z" />
<glyph unicode="c" horiz-adv-x="1368" d="M186 1520q41 39 138 69q2 -2 12 -14t18 -12q6 0 13 6l16 20q16 -4 57 -4q35 2 58 -12q16 6 43 -8q14 0 33.5 6t27.5 6q16 0 31 -12q63 8 61 8q8 -8 19 -8q6 0 21.5 7t25.5 5q14 4 36.5 -6t30.5 -10q12 0 25 16q8 -2 30.5 -10t32.5 -8q12 0 21 6q16 -23 43 -6q37 20 41 20 q16 0 29 -27q20 8 61 25q0 -2 6 -9t4 -14q-14 -25 -47 -22.5t-47 -11.5q-18 4 -39 -11q-29 -20 -35 -22q-100 0 -301 2q-4 10 -16 10h-19q-25 -14 -102 4q-2 -2 -51 -22q-8 23 -23 22q-6 0 -23.5 -9t-27.5 -9q-6 0 -12 4q-10 -4 -15 -4q-6 0 -14 4q-6 12 -20 8 q-20 -6 -27 -4q-18 -10 -21.5 -26.5t-5.5 -32.5q-6 -53 -4 -136q4 -98 4 -133q12 -12 13 -28q0 -10 -8.5 -33t-8.5 -35q0 -8 4 -16q16 -27 15 -62q-2 -31 -6 -61q-8 -10 -9 -23q0 -4 9 -33q6 -23 -4 -36q-16 -43 14 -74q-6 -23 -2 -90q4 -57 -12 -90q16 -23 16 -56 q0 -18 -7 -55t-7 -55q0 -23 8 -39q-12 -14 -13 -27q0 -12 9.5 -33.5t9.5 -33.5t-6 -23q4 -35 20 -106q-8 -37 27 -54q8 -6 16 -6q10 0 26.5 10.5t22.5 10.5q12 0 23 -15q25 14 77 5t74 6q10 -12 29 -9q29 8 29 9q8 -14 22 -15q4 0 14.5 2t16.5 2q14 0 21 -12q10 8 32 25 q45 -35 60 -35q14 0 24.5 15.5t24.5 15.5q10 0 43 -21q-8 0 119 -2q76 0 116 14q10 -27 11 -30q-49 -25 -158 -52q-12 -14 -66 -26q-18 18 -53 18q-14 0 -44 -5t-44 -5q-6 -4 -14 -4q-10 0 -31.5 9t-34.5 9q-14 0 -28 -10q-6 -4 -13 -4q-10 0 -30.5 10.5t-30.5 10.5 q-12 0 -23 -9q-12 -16 -35.5 -10t-33.5 -2q-18 8 -60.5 2t-60.5 10q-16 -12 -47 -12q-37 0 -47 -4q-10 23 -27 22q-8 0 -27.5 -8t-31.5 -8q-6 0 -15 2q6 2 -41 2q-23 0 -32 -24q4 66 20 184q-14 16 -11 49t-5 47q10 82 8 213q0 236 0 207q-8 20 -4 49q4 47 4 53 q2 201 -4 598q-6 10 -17 58q-6 33 -30 47q20 -2 51 16.5t49 18.5q8 0 16 -4z" />
<glyph unicode="d" horiz-adv-x="1832" d="M1260 1542q4 -23 -11 -63q-14 -47 -14 -66q0 -25 12 -43q-16 -25 6 -61v-277l4 -936q-10 -10 -39.5 -14t-37.5 -21q-49 -6 -158 -55q-18 8 -41 8q-20 0 -61 -9t-64 -9q-27 0 -47.5 13.5t-44.5 0.5q-31 -18 -35 -18q-14 0 -27 24q-8 -12 -22 -12q-6 0 -14 2h-15 q-16 0 -24 -12q-12 12 -33 8q-16 -4 -35 -8q-35 6 -76 6q-35 0 -104.5 -7t-104.5 -7q-31 0 -57 4q-4 -14 -12 -15q-6 0 -16.5 7.5t-16.5 7.5q-16 0 -49 -15q-10 29 -4 68q8 53 8 61q0 23 -8 43q12 8 12 23q0 6 -4 27q-2 14 0 22q-12 4 -12 12q0 4 8 14.5t8 14.5 q-16 31 -16 70q0 37 16 82q-12 14 -7 44.5t-1 45.5q8 18 8 41q0 8 -8 61q-6 37 4 62q-8 121 -4 297l8 286q-10 10 -9 35t-3 33q0 2 -13 98q-8 57 -38 86q20 16 71 31.5t74 36.5q18 0 54 22.5t52 22.5q18 0 37 -23q20 8 47 4q39 -8 43 -8q6 10 13 10q4 0 12 -6t12 -6 q6 0 13 6q10 -23 41.5 -17.5t40.5 -0.5q6 14 21 5t24 3q20 -18 34 -16l5 4q10 -8 22 -8q6 0 16.5 2t16.5 2q12 0 22 -9q18 8 41 9q14 0 47 -6.5t50 -6.5q12 0 24 4q23 -14 66 -14q10 0 34 2h37q45 0 70 -16q6 0 17.5 4t17.5 4q10 0 14 -12q6 -4 12 -4q8 0 19.5 10t15.5 10 q6 0 10 -6zM1081 176q-10 16 -10 39q0 8 8 61q6 35 -2 56q4 45 -10 131q-2 12 -2 26q0 18 6 56.5t6 56.5q0 27 -10 47q14 16 14 39q0 6 -12 55q-8 33 8 52q2 82 -14 135q16 12 15 44t3 42q-14 35 -12 80q4 72 4 82q-8 10 -8 24q0 10 8 31.5t8 32.5q0 12 -8 24q6 10 6 23 q0 14 -10 39.5t-12 38t-2 45.5q2 25 -15 39q-53 20 -71 4q-8 10 -19 10q-4 0 -11 -2t-11 -2q-10 0 -19 8q-12 -16 -39.5 -6t-40.5 -4q-8 20 -28.5 10t-30.5 4q-12 -18 -45 -6t-49 -8q-10 18 -31 18q-6 0 -31 -4q-18 -2 -28 0q-14 -4 -43 -1t-47 -3q-14 18 -33 18 q-10 0 -37 -8t-43 -6l-8 14q-12 4 -27 5q-25 0 -41 -11q-47 -39 -37 -94q-12 -33 15 -80q-14 -14 -15 -33q0 -6 15 -49q0 -63 -9 -194q10 -16 7.5 -57.5t1.5 -59.5q-2 -14 -2 -31q0 -18 5 -53t5 -51q0 -37 -17 -68q16 -35 17 -90q0 -20 -3 -63t-3 -62q0 -20 2 -35 q-8 -53 0 -67q-2 -14 -2 -29q0 -14 3 -43t3 -43q0 -37 -17 -65q10 -18 17.5 -72.5t28.5 -77.5l36 -8q20 -4 33 8q10 -10 21 -10q8 0 27.5 10t29.5 10t18 -6q10 -25 33 -24q10 0 32.5 8t33.5 8q12 -8 38.5 -5t37 -5t20.5 -8q23 0 43 26q0 -6 9 -11t9 -11q57 -4 195 -4 q12 12 45 0q23 2 76 18q26 39 22 92z" />
<glyph unicode="e" horiz-adv-x="1406" d="M57 920q29 -23 45 0q20 31 19 86q0 72 4 88q-2 27 -2 57q0 29 2 85t2 85q0 117 -41 188q6 12 19.5 7t19.5 4q14 0 36.5 17t33.5 17q8 0 16 -6q18 -2 44 21.5t44 21.5q12 8 33 23q25 -29 47 -29l27 23q6 -12 16 -13q6 0 17.5 5.5t15.5 5.5q10 0 16 -13q39 2 109 -12 q10 16 32.5 16t42.5 2q29 -35 58 0q0 -14 16 -14q23 2 25 2q8 25 39 0q43 6 147 2q96 -2 150 8q16 -29 -11 -36q-12 -2 -42.5 -19.5t-49.5 -17.5q-10 0 -18 2q-27 -23 -58 -27q-6 8 -22 8q-4 -12 -17 -8l-18 8q-23 2 -61 -2q-45 -6 -60 -6q-33 0 -57 12q-55 -18 -88 -18 q-14 23 -43 6.5t-43 9.5q-12 2 -31 -10q-12 6 -61 0q-39 -8 -54 25q-61 -18 -80 -54q-10 -55 -8 -61q16 -35 11 -98q-4 -74 2 -101q14 -63 4 -110q10 -14 10 -33q0 -14 -9.5 -44t-9.5 -46q0 -10 3 -21q-4 -10 -5 -18q0 -14 13.5 -25.5t27.5 -21.5q4 -10 15 -8l16 4 q10 14 8 14q10 2 21.5 -5t15.5 -7q6 0 12 8l19 21q12 -10 45 -11.5t47 -15.5q29 0 76 18q37 -4 108 -20q10 6 35 18q-10 -6 -10 -20q0 -8 3 -22.5t3 -18.5q0 -8 -6 -8t-23 12q-25 -2 -53.5 -2t-46.5 -14q-14 8 -33 8q-4 0 -43 -6q-29 -4 -45 4q-8 -16 -22 -19q-23 -4 -27 -6 q-10 6 -40 2t-44 8q-8 4 -14 4q-12 0 -43 -24q-25 -29 4 -76q0 23 0 -151q2 -92 -25 -154q16 -29 15 -78q0 -55 7 -74.5t7 -44.5q0 -8 -2 -24v-23q0 -41 27 -61q10 -18 31.5 -8t31.5 -7q47 16 76 2l4 -6q31 33 47 15l18 -13q156 16 228 2q16 4 43 19q8 -6 41 -6l4 4 q10 -8 32.5 -10t32.5 -15q12 0 32 12.5t28 12.5q12 0 22 -15q18 -8 48 5.5t36 13.5q25 0 25 -37q0 -14 -29 -20.5t-35 -16.5q-31 -4 -73 -26q-49 -27 -70 -31q-20 14 -57 2q-10 12 -35 12t-37 12q-74 -23 -78 -22q-10 0 -20 4q0 12 -17 12q-25 -2 -28 -2q-10 -10 -41 0 q-29 8 -41 -14q-4 0 -20.5 13.5t-26.5 13.5q-4 0 -11 -5l-10 -12q-8 12 -18 12q-6 0 -21.5 -8t-25.5 -6l-19 -14q-4 12 -16 18q-18 10 -19 10q-10 0 -29.5 -10t-29.5 -10t-19 6q-18 -8 -57 -2q-10 27 -39 8q-41 -14 -39 -14q-10 0 -18 12q4 82 4 178q0 74 -4 218.5t-4 220.5 q0 96 4 178q-12 14 -27 61q-12 40 -39 54z" />
<glyph unicode="f" horiz-adv-x="1363" d="M109 893l26 37l-4 375q-14 23 -14 59q-2 47 -6 63l-27 58q16 20 69.5 30.5t69.5 34.5q18 0 46 18.5t42 22.5q6 -12 23 -12q6 0 25.5 4t27.5 2q4 -8 14 -8q23 0 17 0q6 10 14 10q2 0 21 -8q10 -4 20 4q20 -12 68 0q72 -10 123 8q10 -16 30 -16q4 0 15 2h14q18 0 31 -10 q16 27 41 6q20 -2 53 7t45 9q18 0 37 -10q57 0 162 -2q8 -6 16 -13.5t4 -19.5l-10 -8q0 4 4 8t0 10q-4 4 -27 17q-10 -37 -65 -51q-63 -14 -80 -35q-111 -8 -221 2q-14 -16 -35 -14q-29 6 -36 4t-17.5 9t-18.5 11q-4 0 -10 -6q-12 -10 -35 -12h-37q-20 14 -28 12 q-10 -8 -23 -29q-18 25 -57 25q-8 0 -27.5 -2t-30.5 -2q-27 0 -43 12q-59 -14 -59 -70q0 -14 8 -55q4 -33 2 -49q6 -6 2 -14q-4 -6 -8 -13q-4 -41 8 -137q12 -104 11 -153q2 0 0 -78q-2 -51 26 -70q43 14 129 13t127 12q31 -14 62 0q35 -4 100 -19l12 15q2 -6 -3 -23.5 t-5 -26.5q0 -16 14 -24q-47 31 -96 14q-45 -16 -106 -8q-8 4 -17 4q-10 0 -27.5 -11t-25.5 -11q-12 0 -23 14q-18 -14 -40 -14q-10 0 -30 3t-30 3q-14 0 -27 -2q-51 -31 -43 -107q8 -98 0 -121q-8 -47 -8 -106q0 -43 8 -162q8 -102 5 -160q27 -49 63 -88q-2 -2 -45 -2 q-33 0 -41 -31q-18 6 -46 -16t-48 -20l-45 -41l22 47l-6 755q-12 16 -21.5 55.5t-23.5 57.5q2 12 -10 21q-18 12 -23 16q2 4 9 4q4 0 14 -5t16 -5q7 0 13 6z" />
<glyph unicode="g" horiz-adv-x="1789" d="M129 1503q41 12 115 60q8 -4 16 -4q14 0 38 16t36 16q16 0 31 -28q8 2 32.5 15t36.5 13q14 0 27 -10q2 0 57 8q31 4 53 -4q8 16 35 0q92 0 182 6q29 -20 86.5 -10t79.5 -4q35 14 104.5 4t108.5 10q27 -10 33 0l76 -6v-45q-49 6 -162 -43q-12 -25 -72 -16q-10 18 -22 18 q-10 0 -27.5 -11t-25.5 -11q-6 0 -13 4q-10 2 -28 -8q-23 35 -58 18q-31 -29 -93 -11.5t-95 -6.5q-6 16 -35 24q-12 -23 -27 -22q-10 0 -29.5 14t-31.5 14q-10 0 -20 -10q-12 4 -19 -4l-12 -16q-12 23 -41 22l-51 -2q-12 -14 -31 -18q-18 37 -70 18q-35 -16 -30 -86 q18 -23 10 -88q6 -131 -6 -178l12 -19q2 -20 -4 -57t-6 -53q0 -27 10 -47q-8 -14 -8 -46t-8 -47q10 -16 12 -32q2 -10 0 -31q-2 -25 -2 -37q-2 0 -6 -24q12 -10 4 -32t4 -32q-8 -27 -8 -78q0 -57 -4 -78q2 -2 9 -14t3 -20q-20 -35 -12 -50q6 -10 6 -22q0 -8 -6.5 -29.5 t-6.5 -32.5q0 -16 11 -28q-6 -10 -6 -23q0 -12 7 -35.5t7 -35.5q0 -8 -2 -17q2 -33 6 -65q6 -43 37 -56q12 0 32.5 -5t30.5 -5q16 0 31 14q25 -10 29 -10q6 10 18 9t19 3q16 -4 32 -4q14 0 43 5.5t45 5.5q20 0 39 -7q16 -16 60 -2l26 21q72 -29 86 -29q27 0 50 21l53 6 q18 -27 49 -27q8 0 39 4q25 2 39 0q2 4 37 9q16 2 20 16q16 47 16 70q0 29 -16 49q-4 8 2 26q4 14 -8 27q10 31 9 102.5t13 106.5q-12 82 -16 135q2 6 2 14t-7 29t-7 31t6 18q-18 41 -23 47q-16 25 -43 27q-20 -8 -43 -8q-27 0 -72.5 12t-70.5 12t-45 -8q-4 10 -12 10 q-6 0 -11 -4l-2 -6q-12 14 -30 14q-6 0 -18.5 -3t-18.5 -3q-18 0 -29 15q-14 4 -39 0q-35 -2 -41 -2q-33 0 -49 20q10 4 10 14q0 27 0 21q104 8 136 -10q14 -2 38 14h154q33 -25 88 -4q35 -20 55 -10q4 6 15 6v-6q63 -12 100 18q10 -14 31 -18l16 18l88 -4q0 -16 3 -47 t3 -43q0 -41 -22 -72q12 -37 12 -180q8 -16 4 -39q-10 -33 -10 -39q0 -14 10 -24q-6 -31 -2 -96.5t-6 -100.5q2 -53 10 -78q10 -43 39 -70q-8 -18 -22 -18q-4 0 -13 2h-14q-12 0 -21.5 -9t-50.5 -13q-31 -4 -38 -27q-18 0 -54.5 -18.5t-58.5 -18.5q-10 0 -23 2q-8 2 -19 -10 t-15 -12q-6 0 -13 10q-45 -12 -84 12q-27 -10 -61 -6q-61 6 -60 6q-10 -8 -20 -8t-21 8q-98 4 -286 -8q-8 16 -23 16q-8 0 -26.5 -8t-26.5 -8q-4 -6 -8 -6t-13.5 7t-13.5 7q-16 12 -41 4q-33 -12 -37 -12q-14 0 -26 14q-18 -8 -56 -5t-55 -9q-18 12 -18 35q0 10 6 35.5 t6 40.5q0 14 -6 26q2 23 -5 66t-3 59q10 18 6 47q-4 35 -2 47q-10 6 4 33q4 125 -8 381q8 20 8 51v49q0 14 2 291q2 176 -33 287q-2 4 -15.5 14t-11.5 21q8 12 34 15t32 7z" />
<glyph unicode="h" horiz-adv-x="1812" d="M102 895l25 23q2 154 4 466q-8 43 -12 60q-12 35 -31 57q6 12 23 12q29 0 26 0q25 14 52.5 31t56.5 12q14 2 32.5 21.5t30.5 21.5q-2 -12 -16 -147q4 -12 2 -43t2 -43q6 -131 0 -393q-23 -18 -8 -68q12 -29 41 -31h53q10 25 38 6.5t40 8.5q10 2 18 -11.5t17 -13.5 q14 0 37.5 15.5t33.5 15.5q14 0 27 -18q47 -8 61 10q10 -8 35 -11.5t35 -11.5q8 -2 21.5 8.5t19.5 10.5t10 -6q14 0 39 7t35 7q6 0 14 -2q8 8 19 8q10 0 25.5 -9t23.5 -9q10 0 22 16q12 4 40 -4t38 -8q20 0 35 22q12 61 12 45q0 14 -12 27q8 25 8 55q0 12 -6 82q-6 51 2 84 q-8 37 0 86q8 6 8 14q0 4 -7 16.5t-5 20.5t2 17q0 12 -9 36.5t-9 36.5q0 8 4 19q-2 10 -18.5 25.5t-16.5 23.5q0 10 20 20q14 -6 27 -6q18 0 47 23.5t47 23.5q8 0 19 -4q0 2 12 17q10 8 18 8q4 0 9 -2l36 31q-4 -18 -3 -62.5t-9 -66.5q8 -37 5 -115t7 -119q-16 -66 -6 -100 q2 -264 -10 -793q14 -14 5 -43t5 -43q-4 -16 -4 -35q0 -55 47 -145q-41 -16 -123 -49q-29 8 -63 -15q-27 -18 -51 -36q8 8 8 28.5t4 28.5q8 190 -6 272q14 16 5 55.5t9 57.5q-16 72 -4 168q-14 10 -14 24q0 6 10 33q6 20 0 33q-2 10 -2 20q0 14 7 43t7 43q0 31 -30 52 q-14 2 -38 -4.5t-30 -6.5q-14 -14 -42 -7t-42 -5q-14 27 -37 8q-12 -18 -26 -18q-10 0 -29 10t-29 10q-12 0 -24 -14q-4 -2 -60 0q-39 0 -57 -14q-6 2 -24.5 10t-28.5 8q-8 0 -19 -4q-6 -18 -23.5 -9t-25.5 -5q20 0 -82 6q-47 2 -76 -8q-53 -8 -63 -37q0 -6 4 -180 q2 -33 -8 -86q8 -45 8 -99q0 -23 -2 -63.5t-2 -61.5q0 -76 26 -133q2 -29 25 -55q-10 -10 -47 -16.5t-49 -22.5q-39 -14 -78 -27q-45 -18 -64 -51q31 51 31 148q0 27 -3 79t-3 76q2 86 0 258q-4 203 -4 260q-12 16 -29 64q-16 39 -39 57q12 -10 43 -12z" />
<glyph unicode="i" horiz-adv-x="843" d="M305 1608q0 -12 -8 -46t-8 -53q0 -20 8 -39q-12 -14 -4 -39.5t-4 -41.5q12 -14 12 -35q0 -10 -10 -49q-8 -31 0 -48q-20 -66 6 -106q-6 -92 -6 -320q0 -8 -8 -276q-4 -160 8 -270q2 -8 2 -19q0 -14 -5 -41.5t-5 -40.5q0 -33 22 -53q6 -20 8 -27q8 -16 23 -20 q-16 -27 -67.5 -39t-67.5 -33q-29 8 -95 -43q16 100 17 269v276q-4 260 6 782q-4 45 -16 127q-8 25 -19.5 52.5t-34.5 35.5q82 -3 246 97z" />
<glyph unicode="j" horiz-adv-x="837" d="M-186 -86q18 0 46.5 -9t41.5 -9q25 0 43 22q12 -23 38.5 -8.5t41.5 -7.5q47 4 59 6q27 10 39 39q4 14 0 37q-4 27 -4 34q0 18 8 33q-16 16 -16 43q0 14 6 44t6 44q0 12 -4 23q6 8 6 18t-6 33t-6 33q0 8 2 14q-10 6 -11 14q0 4 8.5 17.5t6.5 23.5q-8 25 -8 54q0 12 2 34.5 t2 34.5q0 29 -11 56q20 27 10 84t5 79q-8 16 -8 37q0 16 7 49t5 50q6 20 6 45q0 23 -7 69.5t-7 69.5l4 76q0 16 4 108q2 68 -12 111q12 14 12 39q0 23 -15.5 67.5t-15.5 61.5q0 41 64 45q18 2 55 20.5t55 20.5q14 14 45 33l-22 -68q10 -690 -4 -1004q10 -49 6 -131 q-4 -100 -2 -131q4 -23 4 -51q0 -23 -4 -74t-4 -77q0 -102 53 -160q-12 -20 -57 -24.5t-60 -24.5q-8 6 -18 6q-14 0 -39 -18.5t-41 -20.5q-14 -18 -35 -19q-10 0 -30.5 6.5t-30.5 6.5q-23 0 -37 -19l-23 17l-4 -4q-12 18 -41 28q-41 18 -45 21q-27 -6 -80 22q-4 10 3.5 17.5 z" />
<glyph unicode="k" horiz-adv-x="1445" d="M152 1526q16 18 51 27.5t51 25.5q12 0 31.5 16.5t29.5 18.5q-20 -43 -14 -156q-2 -41 -6 -84q-4 -49 4 -86q-8 -39 -2 -147q4 -94 -16 -146q6 -27 13 -56.5t30 -41.5q41 14 84 70q51 63 77 80q18 33 70.5 80t69.5 75q72 51 100 76q57 47 82 92q10 16 47 49t45 58 q57 29 90 98q37 -45 94 -66q-39 -8 -74.5 -41.5t-68.5 -66.5q-39 -51 -127 -127q-96 -84 -135 -129q-8 -8 -55 -39q-35 -20 -43 -53q10 -49 38 -54q0 -47 42 -120.5t47 -114.5q14 -27 77 -162q47 -100 95 -158q18 -76 57 -129q14 -39 57 -110q8 -20 17 -41q10 -27 28 -39 q16 -45 74 -135q25 -45 86 -131q0 -16 16 -35q20 -25 23 -35q37 -57 72 -80q-4 6 -41 10q-10 0 -17 5q-70 76 -139 153q-78 92 -119 170q-33 25 -69.5 93.5t-77.5 95.5q-29 39 -92 155q-53 98 -101 146q-27 20 -57.5 73.5t-52.5 75.5q0 10 -10.5 24.5t-12.5 18.5 q-14 10 -24.5 33.5t-20.5 46.5q-29 39 -39 49q-27 29 -55 31q-96 -47 -92 -144q8 -37 3 -114.5t7 -118.5q-14 -8 -12 -25q4 -20 2 -24q8 -10 0 -43q-6 -31 12 -41q4 -10 -4 -26.5t-8 -22.5q0 -10 12 -19q-8 -37 -8 -75q0 -100 53 -168q-166 -43 -231 -97q-8 10 -9 23 q0 10 6.5 28.5t6.5 26.5t-4 17q-4 113 0 337q-6 20 6 39q-6 18 -2 61.5t-8 65.5q4 207 4 639q8 20 2 74q-4 47 8 72q-10 16 -14 65q-4 43 -31 62l-17 28q10 -4 41 2q23 9 48 15z" />
<glyph unicode="l" horiz-adv-x="1165" d="M168 1516q12 25 52 27.5t50 31.5q16 -2 31.5 14.5t28.5 30.5q-31 -53 -35 -131q-2 -68 -4 -135l8 -27q-8 -350 -4 -481q-8 -14 -2 -41q6 -37 6 -43q0 -16 -8 -29q2 -27 0 -74q-6 -55 -6 -73q0 -37 10 -68l-10 -8l6 -180q8 -14 4 -41q-8 -39 -8 -43q0 -16 10 -29 q-2 -20 7 -49t9 -43q8 -18 49 -21q16 0 29 -12q12 0 28.5 12.5t24.5 12.5q10 0 21 -13q16 12 43 5q37 -10 41 -11q18 0 29 15q10 -8 30.5 -4t29.5 -4.5t24 -6.5q20 14 90 -2q10 8 34.5 4t34.5 9q4 0 39 -7q27 -4 45 0q10 -25 4 -34q-41 -12 -86 -24.5t-73 -35.5 q-20 -27 -45 -14q-8 25 -66 10l-14 -12q-12 33 -52 10q-4 2 -10 -5t-10 -7q4 0 -12 12q-12 -4 -41 4q-29 10 -49 -2q-33 18 -70 -2q-16 -2 -42 3t-36 5q-18 0 -35 -8q-10 12 -53 10q-4 -12 -18 -8q-14 6 -21 0q-12 4 -33.5 -8t-36.5 -10q16 6 19.5 22.5t7.5 32.5v31l-4 1257 q-10 18 -8 49q2 39 0 47q-12 20 -35 60q14 12 39 18z" />
<glyph unicode="m" horiz-adv-x="2267" d="M178 1524q14 6 82 24q51 12 74 33q6 -2 35 2q23 4 32 -10q14 6 56 0q35 -4 57 12q16 2 43 -4t37 -6q25 0 43 16q16 4 43 -9t33 -13q14 0 24 16q6 0 15.5 -6t15.5 -6q8 12 27 12q8 -23 28 -22q8 0 47 12q14 18 37 18q12 0 35 -6t35 -6q10 0 18 4q16 -6 37 -6q18 0 57 9 t58 9q20 0 37 -6q90 0 137 -10q12 0 36.5 6t37.5 6q18 0 30 -8q8 4 19 4q8 0 24.5 -4t24.5 -4q18 0 31 12q33 -20 49 -8q6 8 26 8q4 -8 17 -8h18q20 6 56 19q6 -14 2 -48q-4 -35 -2 -47q4 -23 -11 -67q10 -25 7 -78t10 -80q-10 -45 -10 -108q0 -25 2 -78.5t2 -79.5 q0 -78 -15 -139q14 -57 15 -193q-6 -18 -7 -47q0 -6 7 -80q4 -49 -4 -80q-8 -96 10 -129q-6 -20 -21 -53q20 -47 4 -92q12 -39 23 -76q14 -43 45 -66q-6 8 -14 9q-6 0 -21.5 -12.5t-25.5 -12.5t-19 8q-10 -16 -30.5 -19t-41.5 -7q-35 -14 -102 -58q10 111 6 316 q-4 215 2 313q6 88 -8 102q10 33 4 177q0 33 4 149q4 92 4 148q0 176 -30 303q-43 27 -52 26q-8 0 -16 -4l-8 -10q-82 10 -113 -4v-4q-33 14 -84 14q-96 -2 -88 -2q-8 -2 -16 -2q-12 0 -37 7t-35 7t-16 -2q-33 -25 -33 -67v-25q2 -16 2 -24q0 -20 -6 -37q10 -16 9 -48t5 -44 q-6 -29 -14 -78q12 -31 7 -99.5t7 -101.5q-18 -18 -18 -43q0 -2 12 -59q10 -37 -8 -64l8 -29q4 -18 -8 -28q-2 -162 6 -488q12 -20 10 -72.5t19.5 -79t27.5 -55.5q-8 4 -18 5q-16 0 -53 -15.5t-58 -13.5q-39 -20 -112 -64q-4 41 12 76q0 256 -4 774q6 12 6 21q0 6 -6 20 q2 27 -2 232q-2 141 16 231q-23 20 -24 88q-2 61 -33 78q-31 2 -87.5 -6t-78.5 -8q-14 0 -27 2q-10 14 -26 14q-8 0 -27.5 -6t-28.5 -6q-12 0 -20 6q-10 -12 -29 -6q-31 6 -30 6q-8 0 -50 2q-29 4 -45 -14q-18 -29 -18 -74q0 -43 14 -82q0 -2 -6 -43q-6 -25 6 -39v-174 q-14 -14 -5 -50t-9 -48v-205q12 -14 8 -29q-4 -12 -8 -26q4 -55 -8 -148q10 -25 14 -98q-18 -45 -10 -68q16 -57 0 -139q12 -51 22 -104q14 -63 49 -97q-76 10 -106 -26q-12 4 -25 4q-29 0 -68.5 -33t-60.5 -35l23 29q8 279 4 698q-4 350 -8 701q-6 10 -10 45q-4 29 -21 41 q12 12 43 21.5t47 23.5z" />
<glyph unicode="n" horiz-adv-x="1832" d="M156 1513q41 16 127 41q27 33 79 27q66 -8 87 0q14 -8 42.5 -2t38.5 -2q8 6 29 1t33 9q10 -12 20 -12q8 0 22.5 8t20.5 8q8 0 13 -4q141 -14 190 6q2 -8 20.5 -8t24.5 -4q10 14 29 14q12 0 33.5 -9t25.5 -9q33 16 101 12q74 -6 102 0q18 -6 35 21q-2 -20 -8 -262 q8 -12 3 -44t3 -47q-16 -74 -6 -143q-4 -8 0 -27q4 -25 4 -30q0 -18 -15 -29q6 -33 7 -135q0 -86 12 -137q-31 -119 -2 -285q-8 -29 -10 -59q-2 -20 0 -58v-65q2 -49 16 -154l51 -67q-4 -8 -19.5 -5t-21.5 -4q-131 -35 -203 -82q-4 12 -4 27q0 18 11.5 58t11.5 61 q0 29 -19 49q12 117 -4 174q10 14 11 33q0 8 -3.5 25.5t-3.5 23.5q0 18 11 31q-6 18 -7 43q0 20 6.5 61t6.5 62q0 33 -10 59q8 33 8 76q0 23 -3 68.5t-3 70.5q0 53 10 94q-14 14 -4 50t-8 53q-6 35 12 63q0 49 -9.5 136t-9.5 135q-2 23 -27.5 50t-47.5 27q-10 0 -28.5 -8 t-31.5 -8q-10 0 -20 6q-8 -12 -21 -12q-6 0 -18 3t-19 3q-12 0 -20 -10q-16 -2 -39 4q-29 6 -39 6q-18 0 -35 -10q-12 14 -42.5 8t-41.5 2q-20 -6 -43 -6q-14 0 -44.5 4t-45.5 4q-33 0 -59 -12q-18 2 -46 9t-44 7q-12 -14 -27.5 -29.5t-15.5 -29.5q0 -8 6 -19l10 -30v-584 q-18 -29 -4 -94q0 -152 4 -432q-14 -45 -14 -56q0 -20 14 -37q-8 -55 57 -135q-2 0 -15 2t-19 2q-12 -2 -19 -10q-49 -2 -178 -72v-2h-6q-4 20 8 43q-4 20 -4 41q0 18 5 52t5 51q0 23 -6 41q14 10 8 26l-10 25q0 10 12 16q-6 18 -10 37q-6 25 0 39q-4 8 -4 16t8 25.5t8 28.5 q0 10 -8 20q-14 10 -14 23q0 8 11 26.5t11 28.5q0 14 -14 25q8 18 7 52t5 48q0 12 -4 37.5t-4 38.5q0 25 12 39q-10 12 -10 28q0 6 3 21.5t3 21.5q0 23 -18 37q23 18 10.5 60.5t7.5 62.5q0 2 -6 336q-18 20 -16 69.5t-19 69.5q-2 4 -13 10.5t-9 14.5q29 7 80 32z" />
<glyph unicode="o" horiz-adv-x="1882" d="M1319 88q-37 8 -93.5 -27.5t-86.5 -31.5q-20 -31 -101 -39q-23 20 -77 7t-76 15q-8 -2 -23.5 -9t-23.5 -7q-14 0 -25 16q-12 0 -25 -8l-20 -14q-59 33 -133 8q-8 6 -45 4t-49 18q-6 -14 -19 -14q-4 0 -15 5t-15 5q-10 0 -19 -14q-20 8 -43 8q-12 0 -53 -6q-33 -6 -55 -2 q-10 12 -29 8l-33 -8q-16 -4 -43 4q-33 10 -43 10q-20 0 -35 -18h-8q-2 8 -2 16t3 25.5t3 28.5q0 12 -4 24q10 20 10 45q0 18 -9 54t-9 55q0 25 10 47q4 14 4 33q0 16 -4 50t-4 52q0 39 14 68q0 6 -9 22.5t-9 24.5q0 12 14 20q8 25 -2 60q-12 43 -12 53q0 23 18 41 q-14 12 -14 31q0 10 5 31.5t5 33.5q0 14 -6 27q2 29 6 516q0 27 -18.5 70.5t-22.5 64.5q12 2 27.5 5t21.5 17q80 12 136 54q27 29 87 18.5t87 3.5q61 0 184 -8q4 -2 8 -2t14.5 6t14.5 6q6 0 12 -6l10 10l21 -24q14 -14 27 -8q16 25 43.5 19.5t44.5 2.5q8 2 26.5 -6t26.5 -8 q10 0 18 4q78 18 135 -8q14 -2 39 8t35 10q8 0 17 -4q6 8 16 8q4 0 18 -4q10 -4 17 0q14 4 47 4t47 6q6 -182 0 -548q-8 -8 -8 -19q0 -8 7 -23.5t7 -23.5q0 -14 -16 -25q10 -29 10 -65q0 -16 -3 -52t-3 -57q0 -18 4 -32.5t4 -30.5q0 -18 -9 -52t-9 -44q0 -8 6 -36t6 -42 q0 -29 -19 -45q25 -57 11 -101q-25 -66 12 -125l4 -90q8 -51 37 -82v-14zM1116 635q-18 16 -10 51t-4 49q10 31 10 70q0 16 -3 51t-3 53q0 41 10 74q-12 16 -5 47t-5 45q0 6 4 172q4 102 -12 170q-8 18 -16.5 39t-28.5 21q-51 4 -107 4q-57 0 -115 -4q-18 20 -47 10 q-45 -14 -47 -14q-18 0 -35 18q-10 -20 -22 -21q-8 0 -25.5 12.5t-25.5 12.5t-17 -10l-4 6q-37 -12 -82 -12q-23 0 -70.5 4t-72.5 4t-42 -2t-24 -19q-10 -25 -12 -26q27 -51 6 -140q16 -20 17 -47q0 -16 -8.5 -49t-8.5 -49q0 -43 11 -131q-12 -158 -9 -416q8 -430 9 -438 q12 -31 18 -41q14 -20 33 -33q18 20 67 19.5t66 13.5q8 -16 33 -14q47 0 43 0q12 -6 26 -6q10 0 33 5t35 5q27 0 43 -23q12 -4 31.5 7.5t21.5 11.5q41 4 121 -9q47 -14 59 9q-2 2 45 2q31 0 41 -21q18 2 40 4t28 25q-2 37 -2 78q0 43 4 128t4 130q0 37 -2 71q-8 12 -8 31 q0 12 6 38t8 34z" />
<glyph unicode="p" horiz-adv-x="1443" d="M1116 1540q-12 -8 -7 -26.5t-3 -28.5q-12 -16 -16.5 -57.5t-16.5 -57.5q-4 -14 -2 -45q-20 -27 -37.5 -90.5t-38.5 -91.5q-20 -49 -82 -131q-10 -25 -51 -48.5t-49 -48.5q-68 -49 -219 -137q-16 -18 -60.5 -30.5t-62.5 -28.5q-96 6 -168 -27l-14 -14q2 -43 2 -94 q0 -47 -3 -141.5t-3 -139.5q0 -109 14 -186l41 -60q-4 -2 -47 -12q-31 -6 -41 -29q-16 0 -48 -16t-52 -14q-6 -2 -21.5 -18.5t-24.5 -14.5q33 51 19 141q-4 178 4 643q-12 14 -6 41q4 33 2 41q8 127 4 520q-10 16 -14 80q-2 47 -39 62q4 12 22.5 7t26.5 3q31 25 104.5 47.5 t104.5 50.5q18 -12 53 -6q43 6 53 2q12 -16 25 -16q8 0 24.5 7t24.5 7q14 0 27 -20q20 -4 41 20q6 0 34 -4q20 -4 33 6q14 -14 44 -4t44 -8q6 2 17 12q12 -14 28 -6q25 12 27 12q10 0 20 -14q113 4 172 8q12 -23 27 -22q8 0 33.5 15t40.5 11q2 -2 9 -19.5t5 -29.5zM868 1458 q-6 29 -22 29q-10 0 -29.5 -10.5t-28.5 -10.5q-10 0 -14 11q-6 6 -18.5 -2.5t-18.5 -6.5q-8 -6 -16 -6q-12 0 -35 23q-35 4 -39 -17q-10 -10 -18 -10q-6 0 -20.5 11.5t-26.5 7.5q-12 -10 -31 -11q-8 0 -24.5 2t-22.5 2q-16 0 -27 -8q-23 25 -65 25q-74 -2 -72 -2 q-49 -16 -49 -78q0 -16 5 -54t3 -55q-10 -12 -10 -28q0 -12 6 -34t6 -34t-6 -22q-6 -193 -6 -369q12 -25 33 -25q12 0 34.5 8.5t32.5 6.5q14 20 39 22h45q20 4 31 23q37 14 110 47q61 59 125 121q68 76 84 147q10 45 33 131q-4 12 -4 25q0 18 16.5 52t16.5 50q-1 21 -17 39z " />
<glyph unicode="q" horiz-adv-x="1830" d="M1317 59q-49 -14 -150 -28q-49 -33 -96 -39q-8 -23 -20 -23q-6 0 -20.5 8.5t-22.5 8.5q-10 0 -19 -11q-16 8 -35 9q-12 0 -38.5 -5.5t-38.5 -5.5q-16 0 -31 4q-20 25 -39 25q-16 0 -34.5 -19.5t-18.5 -35.5q0 -10 6 -19q8 -23 10 -96q4 -61 21 -92q4 -18 8 -35 q6 -23 20 -29q-18 -2 -61 -22.5t-66 -22.5q-6 -2 -78 -55q12 41 15 107q0 88 2 108q4 29 -8 86q12 80 12 70q0 29 -21.5 43t-58.5 6q-51 -10 -57 -10q-25 0 -41 16l-310 -4q-2 -4 -32 -21q4 57 -4 89q29 20 4 59q10 94 -4 133q2 35 12 100q-2 14 0 39q6 33 6 41q0 25 -14 39 q14 18 4 63.5t8 65.5q-18 45 -18 80t18 57q6 10 -5 27.5t-11 22.5q0 10 12 18q-6 12 -6 27q0 12 6 36.5t6 36.5q0 25 -18 41q18 45 18 117q0 29 -4 87t-4 87t2 53q-14 117 -41 193q47 31 84 31q20 20 74 32q47 12 67 41q6 2 12 2q10 0 24.5 -6t21.5 -6q8 0 16 4t20 4 q16 0 52 -7t55 -7q12 0 24 2q20 -2 60 6q16 4 44 -8t38 -12q14 0 26 14q27 -16 107 -8q25 -10 57 -10q23 0 65 6t64 6q27 0 49 -6q31 2 111 -4q63 -4 104 8q14 -6 13 -17q-2 -10 -6 -20v-125q-20 -37 -11 -57l15 -25q-6 -20 0 -84q4 -53 -19 -80q23 -20 7.5 -63t11.5 -64 q-18 -74 -19 -108q0 -39 15 -70q0 -12 -6.5 -38.5t-6.5 -41.5q0 -23 13 -35q-12 -25 -15 -49q-2 -16 1 -49t3 -49q8 -18 9 -41q0 -20 -6.5 -59t-6.5 -58q0 -27 8 -49q-8 -20 -8 -45q0 -12 2 -35.5t2 -34.5q0 -25 -8 -45q12 -43 27 -86q18 -53 45 -84zM1085 770q-25 18 -8 59 t-6 60q12 31 7 99.5t3 96.5q-4 6 2 31q4 18 -8 29q10 25 7 73t3 70q-18 12 -18 33q0 6 2 19.5t2 19.5q0 20 -12 33q4 6 4 12t-8 17.5t-6 19.5q-39 23 -60 10q-6 8 -16 8q-6 0 -21.5 -6t-23.5 -2q-12 8 -45 2t-49 10q-86 -10 -134 6q-139 -4 -301 5v4q-6 -2 -59 -2 q-35 2 -47 -25q4 -174 4 -373t-4 -368l10 -45q-12 -16 -12 -39q0 -10 3 -29.5t3 -28.5q0 -18 -8 -32q6 -37 8 -88q2 -33 0 -91v-86q-2 -4 -2 -10q0 -8 8 -12q-10 -12 -10 -27q0 -10 6 -28.5t6 -30.5q0 -8 -2 -17q2 -45 53 -63q16 -6 36 10.5t26 16.5q8 0 16 -9q8 10 19 11 q2 0 24 -11q14 -6 27 4q20 -12 41 -12q33 0 84 39t80 41q20 -2 43 21q31 31 39 34q6 -6 6 -12t-11.5 -18.5t-7.5 -24.5q-8 -63 8 -82q6 2 18.5 -3t16.5 -5q10 0 17 14q4 0 18 2t23 2q10 -2 19 -8t17 -6q12 0 32 11.5t28 13.5q2 -2 18.5 -13.5t26.5 -11.5q2 2 27 6 q16 2 18 19q-2 70 2 166q4 127 4 157q0 82 -2 164q0 94 16 170z" />
<glyph unicode="r" horiz-adv-x="1708" d="M1585 -264q-8 18 -29 18h-34q-84 86 -244 277q-61 51 -146 168.5t-145 169.5q-6 6 -20 51q-10 31 -39 37q-18 41 -80 112.5t-82 118.5q-43 57 -131 152q-16 0 -40 -15.5t-34 -17.5q-18 -25 -108 -51q-16 -25 -69.5 -34t-72.5 -34q-2 -403 6 -520q20 -59 23 -64 q16 -35 43 -45q-12 10 -33 9q-31 -6 -37 -5q-8 -10 -33.5 -19t-35.5 -19q-10 4 -19 4q-16 0 -39.5 -17.5t-38.5 -19.5q-2 -4 -45 -37q27 33 29 88v98l-8 13q-4 35 0 96q4 78 4 100q0 41 -6 74q6 12 6 27q0 10 -6 30.5t-6 30.5t4 18q14 23 8 54q-10 51 -10 55q0 20 14 39 q-16 14 -16 35q0 10 6 31.5t6 31.5t-1 18.5t-7 31t-6 34.5q0 20 14 33q4 25 -14 41q12 18 12 45q0 10 -3 31.5t-3 31.5q0 14 4 27q0 12 -5 34.5t-5 33.5q0 23 14 39q6 12 6 26t-10 46t-10 48q0 12 7 22.5t7 24.5q0 8 -4 24.5t-6 27.5q-10 39 -51 104q43 4 206 72q10 2 41 8 q25 8 39 8q27 0 47 -20q10 2 32 10t34 8q16 0 31 -16q10 -2 21 4l22 12q14 -6 30 -6q18 0 50 9t47 9q20 0 39 -14q4 0 28 8q18 6 29 6q25 0 31 -24q14 10 30 12q10 2 27 0q23 -2 31 -2q8 4 18 4q12 0 33.5 -5t34.5 -5q18 0 34 12q10 4 19 4q12 0 34.5 -12t35.5 -12 q14 0 28 12q10 -6 25 -6q12 0 43 8t47 6q12 -18 12 -39q0 -23 -16 -61q-18 -45 -21 -62q-4 -4 -41 -47q-27 -31 -28 -55q-53 -33 -74 -125q-53 -25 -61 -76q-23 -16 -70 -69q-35 -43 -74 -56q-29 -20 -29 -47q0 -12 7 -22q45 -66 112.5 -213.5t116.5 -212.5q18 -61 86 -152 q72 -98 92 -149q35 -63 123 -185q8 -37 47 -86q47 -63 58 -82q14 -25 53 -59q47 -41 59 -55zM950 1487q-6 -2 -16 -2q-6 0 -22.5 2t-24.5 2q-25 0 -35 -19q-39 16 -160 17q-35 18 -47 2q-4 2 -8 2q-6 0 -18.5 -5t-18.5 -5q-8 0 -14 8q-74 -8 -246 8q-33 -37 -25 -119 q8 -94 -4 -127q12 -20 13 -41q0 -14 -8.5 -37.5t-8.5 -37.5t8.5 -28.5t1.5 -41.5q-8 -39 -8 -45q0 -18 10 -33q-14 -61 0 -192q14 -16 33 -17q18 0 51 21.5t46 25.5q90 43 264 211q33 6 58.5 48t51.5 49q29 49 86 149q6 25 37 70q25 66 25 86q-1 31 -21 49z" />
<glyph unicode="s" horiz-adv-x="1622" d="M463 1591q-4 0 65 2q35 0 60 -14q8 12 20 12q8 0 25.5 -9t25.5 -9q14 0 25 14q18 2 49 -3t43 -5q23 0 43 12q12 -10 29 -10q8 0 24.5 3t24.5 3q27 0 41 -22q23 12 50.5 16t51.5 6q8 -10 21 -10q4 0 15 3t18 3q12 0 20 -14q-27 -10 -86 -37q-8 -16 -22 -12q-18 4 -25 2 q-10 -16 -33.5 -25.5t-32.5 -15.5q-14 16 -41 16q-10 0 -33.5 -5t-33.5 -5t-16 2q-8 10 -19 10q-2 0 -27 -8q-14 -6 -24 4q-8 2 -16 2q-12 0 -33 -5t-29 -5q-16 0 -29 8q-25 -10 -26 -10q-10 10 -37 10q-37 -2 -41 0q-8 -4 -21 -4q-8 0 -28.5 4t-30.5 4q-20 0 -33 -14 q-12 8 -53 2t-53 12q-6 4 -15 4q-20 0 -51 -30q-31 -20 -12 -54q10 -8 10 -20q0 -8 -7 -25.5t-7 -27.5q0 -6 4 -13q-4 -12 4 -35.5t8 -33.5q0 -16 -12 -29q14 -14 6 -37q-12 -35 -12 -39q0 -14 14 -26q-4 -14 -10 -29q-2 -16 10 -31q10 -55 21 -110q14 -66 53 -93q6 2 45 4 q25 0 39 15q27 -8 100 -2q63 6 94 -13q20 23 53 6.5t54 8.5q20 -6 67.5 -3t71.5 -7q25 8 77 3t79 7q14 -14 40.5 -4t35.5 -21q-2 -29 14 -71q16 -35 33 -70q-6 -76 0 -227q-16 -16 -5 -59.5t-16 -61.5q2 -106 8 -150q12 -84 52 -141q-16 -10 -74 -16q-47 -6 -68 -29 q-35 -12 -102 -33q-6 -16 -21 -16q-4 0 -17 4t-19 4q-10 0 -17 -6q-154 -2 -448 4q-6 -10 -15 -10q-4 0 -18 6q-12 2 -21 0q-8 -2 -18 -2q-8 0 -28.5 3t-32.5 3q-20 0 -35 -10l-23 14h-147l-25 -6q-16 -4 -26 2l-11 14q8 2 95 27q59 16 90 43q104 12 135 -4q18 16 53 10 t47 2t25 8q10 0 31.5 -9t31.5 -9q18 0 31 20q33 -10 152 -6q41 0 114 -4q12 18 27 18q10 0 32.5 -12t34.5 -12t23 6q23 14 22 35q0 6 -3 19.5t-3 19.5q0 14 11 22q-10 16 -11 39q0 2 11 62q6 39 -9 61q14 102 15 90q0 29 -15 49q12 10 13 25q0 6 -4 29q-4 16 0 26l10 99 l-10 12q16 109 -37 155q-6 0 -47 -6q-31 -4 -50 4q-25 -16 -55 -16q-29 4 -57 6q-10 2 -27.5 -6t-25.5 -8q-10 0 -19 10q-10 -8 -33.5 -2t-36.5 -8q-35 23 -55 10q-6 -10 -14 -10q-2 0 -9.5 3t-11.5 3q-8 0 -12 -10q-16 10 -37 2q-31 -12 -35 -12q-14 0 -24 14 q-20 6 -33 -12v-7q-8 -2 -18.5 8.5t-9.5 10.5t-52 2q-33 0 -45 -21q-16 4 -35 9q-18 2 -30 -13q-31 20 -48 66q-14 39 -26 78q-12 68 4 98q-10 8 -10 18q0 6 7 20.5t7 20.5q0 8 -4 13q6 59 6 100t-6 94q12 18 12 35q0 14 -12 41t-12 43q0 12 4 25q-33 27 -33 55q6 -4 12 -4 t19.5 10t19.5 10q4 0 8 -2q16 14 74 23q47 8 66 39q6 -4 14 -4q12 0 34.5 13t35.5 13q14 0 28 -14q6 -2 17.5 8t21.5 6q10 -12 25 -10l28 4q8 16 29 6t31 4z" />
<glyph unicode="t" horiz-adv-x="1423" d="M362 1581q37 4 107 -8q10 -4 27.5 7t21.5 11q10 0 19 -12q2 0 55 8q31 6 47 -6q14 10 37 4q35 -8 41 -8q16 0 28 10q-4 0 125 -8q63 6 185 -6q14 16 30 16q10 0 33 -10t35 -10q16 0 31 16q2 -8 4 -22q-12 -18 -45 -19.5t-47 -19.5q0 4 -13 4q-31 -33 -98 -37 q-82 -4 -104 -16q-10 -2 -34 9t-36 11q-20 0 -31 -27q-12 -2 -28.5 9.5t-22.5 11.5q-10 0 -18 -8l-29 -29l4 -776q-6 -45 -8 -41l14 -23q-6 -154 2 -454q14 -25 35 -76q-20 -14 -74 -21q-45 -6 -63 -28q-63 -10 -103 -64q33 45 33 125q0 16 -4 82q-4 51 0 80q0 387 -2 377 q6 88 -2 129q6 6 6 16q0 8 -5 22.5t-5 22.5q0 10 8 21q-2 47 -6 129q-6 131 6 393q-18 16 -21 61.5t-34 61.5q-6 6 -17 6q-10 0 -29.5 -13.5t-27.5 -13.5q-14 0 -27 23q-8 6 -18 6q-14 0 -36.5 -13.5t-33.5 -13.5q-14 0 -26 19q-10 2 -94 -2q-55 -4 -97 8q14 8 39 31 q8 -6 17 -6q14 0 42.5 20.5t45.5 18.5q31 27 78 26q-23 0 83 -4z" />
<glyph unicode="u" horiz-adv-x="1914" d="M289 1608q4 -8 4 -19q0 -12 -9.5 -38.5t-9.5 -41.5q0 -14 9 -26q-14 -14 -15 -33q0 -12 9.5 -38t9.5 -38q0 -16 -13 -31q16 -25 -2 -47q8 -61 5 -185t6 -185q-10 -80 -5 -260.5t-4 -251.5q-2 -12 3.5 -32t5.5 -26q0 -16 -13 -28q12 -68 2 -101q0 -2 21 -88q10 -51 59 -57 q18 2 51 11t52 9q14 0 30 -4q57 -8 82 6q18 -25 45 -18q10 18 31 18q6 0 23.5 -4t25.5 -4q14 0 25 10q8 0 21.5 -11t21.5 -11q6 0 14 5t25 24q10 -12 24 -13q-2 0 49 13l5 6q14 -27 32 -27q8 0 26.5 8.5t29.5 8.5q8 0 14 -3q14 8 80 3q47 -6 55 41q0 240 -6 628 q-6 475 -6 615q-16 37 -43 114q47 18 141 66q31 6 82 43q2 -37 -10 -66q0 -262 6 -313l-8 -10q8 -51 4 -135q-4 -94 0 -129q-10 -10 -10 -21q0 4 16 -39q-8 -20 -8 -45q0 -14 3 -38.5t3 -37.5q0 -31 -14 -55q12 -23 12 -68v-71q-18 -39 12 -92q-4 -31 -22 -88q8 -29 8 -74 q0 -12 -2 -37v-37q0 -111 67 -162q-8 10 -18 11q-10 0 -30.5 -15.5t-33.5 -9.5q-23 -18 -75 -28.5t-74 -32.5q-59 -25 -152 -25q-33 0 -101.5 4t-102.5 4q-41 0 -72 -4q-6 -2 -47 0q-31 2 -41 -12q-29 10 -78 8q-57 -4 -78 0q-215 4 -301 -6q-18 6 -16 26q4 29 2 33 q4 315 -4 928q8 12 4 38.5t4 43.5q-8 57 -14 119q8 45 2 131q-2 8 3 25.5t5 25.5q0 18 -15 27q4 70 -30 124q35 -6 81 24t69.5 35t62.5 36z" />
<glyph unicode="v" horiz-adv-x="1443" d="M92 1528q10 -61 10 -68q10 -37 31 -59q-2 -25 18.5 -73t20.5 -75q10 -18 16.5 -52t16.5 -52q4 -45 28 -105q33 -80 39 -100q23 -70 60 -213q12 -14 16 -49t10 -47q18 -74 40 -120t42 -122q31 -121 31 -125q8 -59 78 -80q10 8 29 23q25 51 24 96q2 14 23 53q16 31 12 58 q12 14 31 49q4 29 21.5 76t21.5 71q51 133 129 400q18 49 43 151q27 92 86 275q-2 18 12 53t14 51q2 25 25 31q33 12 39 16q43 -18 55 -4q-2 -12 -41 -78q-8 -51 -31 -116q-37 -106 -36 -113q-23 -70 -29 -86q-16 -49 -41 -78q-45 -203 -170 -504q-4 -41 -35 -106 q-35 -78 -43 -107q-39 -137 -92 -252q-25 -6 -58.5 -45t-54.5 -47q-16 -31 -53 -68.5t-43 -60.5l-18 -10q18 12 16 37q-2 20 -6 41q-2 31 -27 82q4 23 -15.5 67.5t-14.5 73.5q-41 86 -101 266q4 16 -9 38t-13 32q0 6 2 10q-12 25 -23 68q-12 53 -20 69q-68 170 -107 340 q-12 8 -13 30t-5 30q-23 23 -31 82t-27 80q-25 90 -36 127q-25 68 -54 118q-4 2 -43 17q31 0 88.5 37.5t92.5 40.5l32 30q12 -12 16.5 -51t20.5 -53z" />
<glyph unicode="w" horiz-adv-x="2277" d="M297 1405q8 -47 5 -141.5t5 -139.5l-8 -10q12 -131 6 -379q-6 -260 2 -379q-8 -41 6 -59q6 -57 17 -168q41 -59 76 -51q16 20 54 20t52 11q23 -8 53 -9q16 0 70 4q45 6 70 2q-10 0 61 -4q37 0 59 17q31 18 13.5 57t9.5 60q-20 51 -14 223q-10 10 -5 30q8 27 9 31 q0 12 -11 23q12 16 13 41q4 41 4 45q-16 14 -17 37q0 12 6.5 36.5t6.5 38.5q0 16 -10.5 34t-0.5 44q12 37 13 41q0 16 -17 29q-4 16 3.5 39.5t7.5 29.5q0 12 -11 25q14 18 4 57t7 60q-14 27 -9 80q6 66 2 84q6 31 -9 87t-13 85l-37 57q68 49 152 55q33 20 92 45 q0 -16 -8.5 -71.5t-8.5 -83.5q0 -39 13 -64q-23 -213 -6 -491q10 -4 10 -11q0 -4 -7.5 -14t-5.5 -16q0 -33 3 -135q2 -90 2 -142q-2 -78 -9 -141q6 -82 13.5 -167t33.5 -148q8 -16 64 -29q31 4 92 31q33 -10 37 -9q10 12 27 9q31 -8 30 -9q12 -2 27 -2q20 0 65.5 7.5 t67.5 7.5q29 0 49 -9q43 18 43 60q0 12 -6 34.5t-6 35.5q0 14 8 26l-6 676q-10 10 -4 27q8 23 8 26q0 10 -10 19q16 203 -8 383q-8 72 -39 112q47 23 139 49q16 10 45 24.5t45 27.5q4 -33 -14 -66q2 -31 2 -70q0 -29 -3 -90t-3 -90q0 -57 10 -96q-14 -92 -2 -176 q0 -53 -6 -170q23 -41 2 -84q0 -16 10 -23q-4 -90 -10 -280q8 -16 3 -58.5t3 -58.5q-10 -10 -2 -32.5t-6 -35.5q18 -18 22 -88q2 -61 37 -82q-76 -18 -209 -73q-39 -23 -106 -23q-53 0 -94 15q-8 -16 -25 -17q-27 0 -25 2q-43 2 -84 4q-47 0 -75 -20q-37 18 -117 15t-115 14 q-25 -2 -49.5 -5.5t-42.5 -19.5q-10 23 -55 6q-6 -8 -13 -8q-6 0 -16 8t-14 8q-16 -14 -51 -5t-52 -5q-117 16 -211 -4q-8 10 -18 10q-2 0 -29 -8q-16 -6 -26 6q-33 0 -90 -14q-4 8 -13 8q-4 0 -12 -3t-12 -3q-8 0 -13 10q-45 2 -67 -14q14 10 14 41q0 12 -3 39.5t-3 40.5 q0 27 8 43q4 16 -2 45q-8 37 -8 47q0 12 4 20q14 35 -6 74q0 1057 0 254v242q0 256 0 247q0 12 -5 40t-5 44q0 29 14 47q4 14 4 29q0 20 -8 57t-8 54q0 14 4 28q-10 35 -43 103q45 23 63 28q45 18 80 21q33 16 92 68q-4 -64 -16 -197z" />
<glyph unicode="x" horiz-adv-x="1454" d="M242 1427q4 -20 36.5 -53t26.5 -63q33 -39 64 -103q47 -96 53 -108q18 -12 16 -33q47 -61 64 -141q27 -43 69 -23q45 33 91 117q49 92 81 123q31 53 62 108q37 66 78 99q-4 6 -4 12q0 8 14 20.5t16 16.5q12 33 52 93t53 87q16 -14 67 -4q4 12 28 17t30 18 q-20 -14 -48 -54t-47 -53q-2 -29 -42.5 -74t-45.5 -73q-31 -33 -79 -105.5t-78 -107.5q-12 -14 -33 -59.5t-42.5 -64t-57.5 -85.5q-31 -57 -66 -78q-16 -51 23 -76q53 -115 170 -295q2 -31 36.5 -72.5t36.5 -72.5q33 -41 90 -117q10 -51 105 -141q14 -2 37 -16 q-6 -2 -113 -37q-68 -20 -102 -58q-18 6 -32.5 40t-23.5 44q-47 51 -63 117q-31 43 -90 172q-51 106 -105 162q-31 55 -84 174q-8 14 -30 14q-37 0 -35 -2q-18 -14 -34.5 -57t-39.5 -57q-8 -37 -41 -84q-29 -39 -55 -78q0 -16 -14.5 -30.5t-18.5 -23.5q-6 -49 -70.5 -120.5 t-70.5 -118.5q-55 -72 -70 -121q-119 4 -156 -29q74 63 146 168q61 92 123 185q51 68 140 208t140 205q25 39 -2 90q-18 39 -59 95q-57 78 -66 92q-2 51 -69 133q-14 43 -74.5 123t-75.5 129q-33 41 -65 82q-41 45 -90 39q41 -6 82 30q10 -6 20 -6q16 0 48 19.5t48 21.5 q18 10 41 43q31 -49 62 -96q35 -58 43 -107z" />
<glyph unicode="y" horiz-adv-x="1466" d="M190 1487q39 -57 84 -160q29 -20 49.5 -77.5t53.5 -78.5q2 -29 28.5 -73.5t30.5 -67.5q74 -68 94 -186q31 -47 86 -27q29 43 56 86q33 51 43 92q33 20 33 39q31 47 92 178l16 11q39 47 117 184q66 115 125 174q16 -8 30 -8q16 0 48 15.5t51 17.5q-49 -39 -105 -121 q-72 -109 -90 -131q-51 -78 -166 -226q0 -18 -25.5 -46.5t-25.5 -47.5q-33 -31 -71.5 -108.5t-75.5 -108.5q2 -25 -28 -52.5t-24 -51.5q-31 -31 -14 -78q12 -4 8 -19q-6 -18 -4 -22q-6 -2 -10 -29q10 -8 10 -16q0 -6 -5 -19.5t-5 -19.5q-6 -115 0 -354q12 -25 24.5 -51.5 t32.5 -38.5q-16 -10 -60 -9.5t-67 -25.5q-14 2 -29.5 -14.5t-31.5 -12.5l-62 -47q31 37 31 115q-2 104 2 125q-4 63 2 168q6 127 6 163q0 88 -14 156q-20 109 -135 272q-127 184 -156 267q-20 27 -100 161q-59 100 -123 146h-29q27 4 78 29q8 -6 19 -7q18 0 47.5 28t46.5 28 q8 0 14 -2l37 39q18 -23 31.5 -79t29.5 -79z" />
<glyph unicode="z" horiz-adv-x="1363" d="M-14 1563q31 -4 90 12q10 -10 24 -10q8 0 26.5 5t29.5 5q23 0 63 -2q172 12 334 6q12 8 35 0q29 -10 37 -10q14 0 24 16q27 -14 68 -14q35 2 69 2q10 8 23 8q10 0 30.5 -11t28.5 -11t17 6q8 0 23.5 11t23.5 11q25 0 24 -59q0 -37 -28 -92q-37 -68 -43 -90 q-25 -25 -56 -91q-18 -51 -77 -147q-37 -74 -211 -391q4 -8 4 -15q0 -14 -22.5 -32.5t-22.5 -30.5q0 -6 4 -12q-16 -39 -78 -119q2 -27 -33 -61.5t-33 -63.5q-66 -96 -77 -152q-4 -10 -29 -49q-18 -31 -18 -51t16 -37q8 -12 57 -26q14 16 49 16q43 -2 54 2q25 -14 51 -12 q27 4 53 8q16 8 39 2q33 -8 37 -8q14 0 24 10q29 -4 56 -10q33 -6 55 4q4 10 8 10t13.5 -8t15.5 -6q8 -4 18 0q16 4 19 4q8 0 14 -10q33 -4 80 4q57 10 76 10q33 0 61 -14q-4 -12 -23.5 -24.5t-37.5 -22.5q-10 4 -21 4q-25 0 -62.5 -26t-56.5 -26q-20 0 -40 21 q-12 6 -31 -6.5t-25 -12.5q-10 0 -20 15q-10 2 -28.5 -3t-22.5 -5q-14 0 -27 14q-20 4 -53 -6t-43 -10q-20 0 -41 18q-12 2 -26.5 -6t-20.5 -8q-10 0 -23 14q-23 2 -57 -4q-41 -8 -56 -8q-23 0 -41 8q-31 0 -188 2q-109 0 -176 -12l-23 -19q-2 2 13 15q43 41 86 122 q47 96 69 127q16 47 69.5 131t70.5 134q33 68 110 194q8 41 49 107q45 74 56 104q29 41 86 129q-4 31 28.5 74t32.5 67q23 55 88 160q31 94 31 127q0 16 -4 29q-27 47 -82 37q-4 -29 -29 -23q-31 10 -41 -2q-82 10 -116 -8q-41 16 -56 14q-25 -10 -65 -12q-49 0 -66 -6 q-8 0 -80 -2q-49 0 -80 -15q-80 14 -100 -2q-25 66 -61 113q12 0 34.5 -12.5t32.5 -12.5q11 1 21 7z" />
<glyph unicode="&#xc4;" d="M1307 1823q-12 -18 -52 -76q-10 25 -12 25q-29 -29 -80 -29q-10 0 -35 2h-32q-35 0 -56 -10q-10 0 -33.5 10t-35.5 10q-20 0 -31 -26q-6 0 -9 27.5t-7 29.5q4 20 16 47q12 0 90 -4q63 6 184 -6q14 16 27 16q6 0 15.5 -5t17.5 -5q12 0 29 16q0 -8 4 -22zM524 1788 q-2 4 -11 -21.5t-21 -19.5q-6 4 -17 4q-10 0 -29.5 -13.5t-27.5 -13.5q-14 0 -25 25q-10 4 -20 4q-14 0 -37 -12t-33 -12q-14 0 -27 18q-39 -10 -71 -10q-43 0 -84 12q4 8 0 16q-2 10 4 17q6 -4 12 -4t12.5 22.5t22.5 20.5q41 12 190 6q4 0 68 6q49 6 68 -4q26 -10 26 -41z M1354 100q-27 -31 -82 -22q-70 -20 -109 -53q-29 -31 -57 -62q-4 2 -4 8q0 8 12 36t12 40q0 8 -4 12q16 20 8 58.5t5 56.5q-4 18 -5 43q0 25 5 45q0 2 -5 115q0 10 3 22q0 12 -7 70q-4 43 9 68q-14 33 -9 98q8 68 0 98q0 8 3.5 30.5t3.5 35.5q0 47 -37 65q-16 2 -46 -13 t-44 -15t-27 10l-18 -8q-12 -2 -25 -2q-16 0 -45 3t-43 3q-35 0 -53 -19q-10 2 -21.5 2t-13.5 13q-33 2 -92 -9v5q-16 -8 -49 -2t-52 -9l-22 8q-14 4 -23 -8q-2 0 -94 -6q-53 -4 -88 6q-18 -2 -28.5 -20.5t-18.5 -34.5q-6 -35 2 -80q10 -55 10 -72q0 -29 -10 -55 q8 -12 8 -26t-8 -29q16 -18 12 -51q-4 -47 -2 -56q2 -20 2 -41q0 -23 -5 -63.5t-5 -61.5q0 -53 29 -96q-2 -14 14 -29.5t18 -25.5q-4 6 -10 6t-30.5 -11t-38.5 -7q-27 -23 -62 -27q-29 -18 -59 -37q-35 -25 -52 -51q27 47 27 127q0 25 -3 76t-3 73q4 4 1 19.5t7 23.5 q2 55 -8 170q29 23 2 31l-2 86q6 18 2 62q-4 49 0 69q4 23 4 43q0 76 -72 176q16 2 31 2q23 4 29 21q8 35 3 110.5t5 112.5q-10 14 -7 49t-1 45q18 100 -25 211l-18 31q53 10 141 49q96 41 139 51l9 -8q90 2 270 -6q12 -2 29.5 6t23.5 8q12 0 21 -14l145 6l8 8 q18 -18 64.5 -9t62.5 -5q10 -4 34 1t30 5q23 0 37 -22q14 -2 35.5 12t31.5 14q8 0 17 -4l8 8q16 -14 69 -4l9 8q6 0 16 -4l10 9q-8 -18 -2 -70q6 -43 -10 -70q-4 -12 -4 -26q0 -18 8 -66.5t4 -77.5q12 -20 12 -49q0 -16 -5 -49t-3 -45q10 -29 3 -82t5 -80q-8 -281 11 -373 q-18 -25 -11 -112q2 -6 -2 -45q-2 -27 13 -43l-11 -15l2 -10v-117q0 -66 21 -112q-4 -4 -4 -8q0 -6 8 -18.5t8 -15t23 -18.5zM1126 1380q-16 16 -19 59.5t-26 61.5q-16 4 -34 8q-18 2 -31 -16q-8 16 -21 16q-18 0 -39 -24q-4 2 -8 16q-8 8 -16 8q-10 0 -29 -20q-10 10 -8 12 h-35q-18 6 -53 -8q-10 -6 -19 -6q-12 0 -35.5 13t-39.5 13q-6 0 -15 -2q-55 -20 -110 0q-12 -20 -31 -20q-10 0 -32.5 10t-35.5 10q-10 -10 -26 -10q-6 0 -18.5 2t-20.5 2q-18 0 -33 -12q-4 12 -20.5 16t-22.5 11q-29 -8 -55 -41v-17q-8 -10 -4 -18q4 -14 4 -21 q12 -74 8 -331q6 -16 6 -39q0 -16 -5 -51t-5 -52q0 -35 16 -61q10 -6 23 -6q12 0 36.5 15t41.5 13q14 -18 32 -18q10 0 32 7t32 7t18 -4q14 6 52 1t57 7q14 -14 39 -12q6 4 14 4q6 0 31 -6q18 -6 31 -2q41 14 143 4q8 12 16 12q4 0 16.5 -8t20.5 -8q6 0 13 4q10 12 22 12 q6 0 24.5 -8t30.5 -4q10 14 25 14q6 0 17.5 -3t17.5 -3q16 0 24 23v78q-4 16 2 57q6 35 -6 55q-2 88 8 260z" />
<glyph unicode="&#xd6;" d="M1307 1823q-12 -18 -52 -76q-10 25 -12 25q-29 -29 -80 -29q-10 0 -35 2h-32q-35 0 -56 -10q-10 0 -33.5 10t-35.5 10q-20 0 -31 -26q-6 0 -9 27.5t-7 29.5q4 20 16 47q12 0 90 -4q63 6 184 -6q14 16 27 16q6 0 15.5 -5t17.5 -5q12 0 29 16q0 -8 4 -22zM524 1788 q-2 4 -11 -21.5t-21 -19.5q-6 4 -17 4q-10 0 -29.5 -13.5t-27.5 -13.5q-14 0 -25 25q-10 4 -20 4q-14 0 -37 -12t-33 -12q-14 0 -27 18q-39 -10 -71 -10q-43 0 -84 12q4 8 0 16q-2 10 4 17q6 -4 12 -4t12.5 22.5t22.5 20.5q41 12 190 6q4 0 68 6q49 6 68 -4q26 -10 26 -41z M1319 88q-37 8 -93.5 -27.5t-86.5 -31.5q-20 -31 -101 -39q-23 20 -77 7t-76 15q-8 -2 -23.5 -9t-23.5 -7q-14 0 -25 16q-12 0 -25 -8l-20 -14q-59 33 -133 8q-8 6 -45 4t-49 18q-6 -14 -19 -14q-4 0 -15 5t-15 5q-10 0 -19 -14q-20 8 -43 8q-12 0 -53 -6q-33 -6 -55 -2 q-10 12 -29 8l-33 -8q-16 -4 -43 4q-33 10 -43 10q-20 0 -35 -18h-8q-2 8 -2 16t3 25.5t3 28.5q0 12 -4 24q10 20 10 45q0 18 -9 54t-9 55q0 25 10 47q4 14 4 33q0 16 -4 50t-4 52q0 39 14 68q0 6 -9 22.5t-9 24.5q0 12 14 20q8 25 -2 60q-12 43 -12 53q0 23 18 41 q-14 12 -14 31q0 10 5 31.5t5 33.5q0 14 -6 27q2 29 6 516q0 27 -18.5 70.5t-22.5 64.5q12 2 27.5 5t21.5 17q80 12 136 54q27 29 87 18.5t87 3.5q61 0 184 -8q4 -2 8 -2t14.5 6t14.5 6q6 0 12 -6l10 10l21 -24q14 -14 27 -8q16 25 43.5 19.5t44.5 2.5q8 2 26.5 -6t26.5 -8 q10 0 18 4q78 18 135 -8q14 -2 39 8t35 10q8 0 17 -4q6 8 16 8q4 0 18 -4q10 -4 17 0q14 4 47 4t47 6q6 -182 0 -548q-8 -8 -8 -19q0 -8 7 -23.5t7 -23.5q0 -14 -16 -25q10 -29 10 -65q0 -16 -3 -52t-3 -57q0 -18 4 -32.5t4 -30.5q0 -18 -9 -52t-9 -44q0 -8 6 -36t6 -42 q0 -29 -19 -45q25 -57 11 -101q-25 -66 12 -125l4 -90q8 -51 37 -82v-14zM1116 635q-18 16 -10 51t-4 49q10 31 10 70q0 16 -3 51t-3 53q0 41 10 74q-12 16 -5 47t-5 45q0 6 4 172q4 102 -12 170q-8 18 -16.5 39t-28.5 21q-51 4 -107 4q-57 0 -115 -4q-18 20 -47 10 q-45 -14 -47 -14q-18 0 -35 18q-10 -20 -22 -21q-8 0 -25.5 12.5t-25.5 12.5t-17 -10l-4 6q-37 -12 -82 -12q-23 0 -70.5 4t-72.5 4t-42 -2t-24 -19q-10 -25 -12 -26q27 -51 6 -140q16 -20 17 -47q0 -16 -8.5 -49t-8.5 -49q0 -43 11 -131q-12 -158 -9 -416q8 -430 9 -438 q12 -31 18 -41q14 -20 33 -33q18 20 67 19.5t66 13.5q8 -16 33 -14q47 0 43 0q12 -6 26 -6q10 0 33 5t35 5q27 0 43 -23q12 -4 31.5 7.5t21.5 11.5q41 4 121 -9q47 -14 59 9q-2 2 45 2q31 0 41 -21q18 2 40 4t28 25q-2 37 -2 78q0 43 4 128t4 130q0 37 -2 71q-8 12 -8 31 q0 12 6 38t8 34z" />
<glyph unicode="&#xdc;" d="M1327 1823q-12 -18 -51 -76q-10 25 -12 25q-29 -29 -80 -29q-10 0 -35 2h-33q-35 0 -55 -10q-10 0 -33.5 10t-36.5 10q-20 0 -30 -26q-6 0 -9.5 27.5t-7.5 29.5q4 20 17 47q12 0 90 -4q63 6 184 -6q14 16 27 16q6 0 15 -5t17 -5q12 0 29 16q0 -8 4 -22zM504 1788 q-2 4 -11.5 -21.5t-21.5 -19.5q-6 4 -16 4t-29.5 -13.5t-28.5 -13.5q-14 0 -24 25q-10 4 -21 4q-14 0 -36.5 -12t-32.5 -12q-14 0 -27 18q-39 -10 -72 -10q-43 0 -84 12q4 8 0 16q-2 10 4 17q6 -4 13 -4q6 0 12 22.5t23 20.5q41 12 190 6q4 0 68 6q49 6 67 -4q27 -10 27 -41 zM289 1608q4 -8 4 -19q0 -12 -9.5 -38.5t-9.5 -41.5q0 -14 9 -26q-14 -14 -15 -33q0 -12 9.5 -38t9.5 -38q0 -16 -13 -31q16 -25 -2 -47q8 -61 5 -185t6 -185q-10 -80 -5 -260.5t-4 -251.5q-2 -12 3.5 -32t5.5 -26q0 -16 -13 -28q12 -68 2 -101q0 -2 21 -88q10 -51 59 -57 q18 2 51 11t52 9q14 0 30 -4q57 -8 82 6q18 -25 45 -18q10 18 31 18q6 0 23.5 -4t25.5 -4q14 0 25 10q8 0 21.5 -11t21.5 -11q6 0 14 5t25 24q10 -12 24 -13q-2 0 49 13l5 6q14 -27 32 -27q8 0 26.5 8.5t29.5 8.5q8 0 14 -3q14 8 80 3q47 -6 55 41q0 240 -6 628 q-6 475 -6 615q-16 37 -43 114q47 18 141 66q31 6 82 43q2 -37 -10 -66q0 -262 6 -313l-8 -10q8 -51 4 -135q-4 -94 0 -129q-10 -10 -10 -21q0 4 16 -39q-8 -20 -8 -45q0 -14 3 -38.5t3 -37.5q0 -31 -14 -55q12 -23 12 -68v-71q-18 -39 12 -92q-4 -31 -22 -88q8 -29 8 -74 q0 -12 -2 -37v-37q0 -111 67 -162q-8 10 -18 11q-10 0 -30.5 -15.5t-33.5 -9.5q-23 -18 -75 -28.5t-74 -32.5q-59 -25 -152 -25q-33 0 -101.5 4t-102.5 4q-41 0 -72 -4q-6 -2 -47 0q-31 2 -41 -12q-29 10 -78 8q-57 -4 -78 0q-215 4 -301 -6q-18 6 -16 26q4 29 2 33 q4 315 -4 928q8 12 4 38.5t4 43.5q-8 57 -14 119q8 45 2 131q-2 8 3 25.5t5 25.5q0 18 -15 27q4 70 -30 124q35 -6 81 24t69.5 35t62.5 36z" />
<glyph unicode="&#xe4;" d="M1307 1823q-12 -18 -52 -76q-10 25 -12 25q-29 -29 -80 -29q-10 0 -35 2h-32q-35 0 -56 -10q-10 0 -33.5 10t-35.5 10q-20 0 -31 -26q-6 0 -9 27.5t-7 29.5q4 20 16 47q12 0 90 -4q63 6 184 -6q14 16 27 16q6 0 15.5 -5t17.5 -5q12 0 29 16q0 -8 4 -22zM524 1788 q-2 4 -11 -21.5t-21 -19.5q-6 4 -17 4q-10 0 -29.5 -13.5t-27.5 -13.5q-14 0 -25 25q-10 4 -20 4q-14 0 -37 -12t-33 -12q-14 0 -27 18q-39 -10 -71 -10q-43 0 -84 12q4 8 0 16q-2 10 4 17q6 -4 12 -4t12.5 22.5t22.5 20.5q41 12 190 6q4 0 68 6q49 6 68 -4q26 -10 26 -41z M1354 100q-27 -31 -82 -22q-70 -20 -109 -53q-29 -31 -57 -62q-4 2 -4 8q0 8 12 36t12 40q0 8 -4 12q16 20 8 58.5t5 56.5q-4 18 -5 43q0 25 5 45q0 2 -5 115q0 10 3 22q0 12 -7 70q-4 43 9 68q-14 33 -9 98q8 68 0 98q0 8 3.5 30.5t3.5 35.5q0 47 -37 65q-16 2 -46 -13 t-44 -15t-27 10l-18 -8q-12 -2 -25 -2q-16 0 -45 3t-43 3q-35 0 -53 -19q-10 2 -21.5 2t-13.5 13q-33 2 -92 -9v5q-16 -8 -49 -2t-52 -9l-22 8q-14 4 -23 -8q-2 0 -94 -6q-53 -4 -88 6q-18 -2 -28.5 -20.5t-18.5 -34.5q-6 -35 2 -80q10 -55 10 -72q0 -29 -10 -55 q8 -12 8 -26t-8 -29q16 -18 12 -51q-4 -47 -2 -56q2 -20 2 -41q0 -23 -5 -63.5t-5 -61.5q0 -53 29 -96q-2 -14 14 -29.5t18 -25.5q-4 6 -10 6t-30.5 -11t-38.5 -7q-27 -23 -62 -27q-29 -18 -59 -37q-35 -25 -52 -51q27 47 27 127q0 25 -3 76t-3 73q4 4 1 19.5t7 23.5 q2 55 -8 170q29 23 2 31l-2 86q6 18 2 62q-4 49 0 69q4 23 4 43q0 76 -72 176q16 2 31 2q23 4 29 21q8 35 3 110.5t5 112.5q-10 14 -7 49t-1 45q18 100 -25 211l-18 31q53 10 141 49q96 41 139 51l9 -8q90 2 270 -6q12 -2 29.5 6t23.5 8q12 0 21 -14l145 6l8 8 q18 -18 64.5 -9t62.5 -5q10 -4 34 1t30 5q23 0 37 -22q14 -2 35.5 12t31.5 14q8 0 17 -4l8 8q16 -14 69 -4l9 8q6 0 16 -4l10 9q-8 -18 -2 -70q6 -43 -10 -70q-4 -12 -4 -26q0 -18 8 -66.5t4 -77.5q12 -20 12 -49q0 -16 -5 -49t-3 -45q10 -29 3 -82t5 -80q-8 -281 11 -373 q-18 -25 -11 -112q2 -6 -2 -45q-2 -27 13 -43l-11 -15l2 -10v-117q0 -66 21 -112q-4 -4 -4 -8q0 -6 8 -18.5t8 -15t23 -18.5zM1126 1380q-16 16 -19 59.5t-26 61.5q-16 4 -34 8q-18 2 -31 -16q-8 16 -21 16q-18 0 -39 -24q-4 2 -8 16q-8 8 -16 8q-10 0 -29 -20q-10 10 -8 12 h-35q-18 6 -53 -8q-10 -6 -19 -6q-12 0 -35.5 13t-39.5 13q-6 0 -15 -2q-55 -20 -110 0q-12 -20 -31 -20q-10 0 -32.5 10t-35.5 10q-10 -10 -26 -10q-6 0 -18.5 2t-20.5 2q-18 0 -33 -12q-4 12 -20.5 16t-22.5 11q-29 -8 -55 -41v-17q-8 -10 -4 -18q4 -14 4 -21 q12 -74 8 -331q6 -16 6 -39q0 -16 -5 -51t-5 -52q0 -35 16 -61q10 -6 23 -6q12 0 36.5 15t41.5 13q14 -18 32 -18q10 0 32 7t32 7t18 -4q14 6 52 1t57 7q14 -14 39 -12q6 4 14 4q6 0 31 -6q18 -6 31 -2q41 14 143 4q8 12 16 12q4 0 16.5 -8t20.5 -8q6 0 13 4q10 12 22 12 q6 0 24.5 -8t30.5 -4q10 14 25 14q6 0 17.5 -3t17.5 -3q16 0 24 23v78q-4 16 2 57q6 35 -6 55q-2 88 8 260z" />
<glyph unicode="&#xf6;" d="M1307 1823q-12 -18 -52 -76q-10 25 -12 25q-29 -29 -80 -29q-10 0 -35 2h-32q-35 0 -56 -10q-10 0 -33.5 10t-35.5 10q-20 0 -31 -26q-6 0 -9 27.5t-7 29.5q4 20 16 47q12 0 90 -4q63 6 184 -6q14 16 27 16q6 0 15.5 -5t17.5 -5q12 0 29 16q0 -8 4 -22zM524 1788 q-2 4 -11 -21.5t-21 -19.5q-6 4 -17 4q-10 0 -29.5 -13.5t-27.5 -13.5q-14 0 -25 25q-10 4 -20 4q-14 0 -37 -12t-33 -12q-14 0 -27 18q-39 -10 -71 -10q-43 0 -84 12q4 8 0 16q-2 10 4 17q6 -4 12 -4t12.5 22.5t22.5 20.5q41 12 190 6q4 0 68 6q49 6 68 -4q26 -10 26 -41z M1319 88q-37 8 -93.5 -27.5t-86.5 -31.5q-20 -31 -101 -39q-23 20 -77 7t-76 15q-8 -2 -23.5 -9t-23.5 -7q-14 0 -25 16q-12 0 -25 -8l-20 -14q-59 33 -133 8q-8 6 -45 4t-49 18q-6 -14 -19 -14q-4 0 -15 5t-15 5q-10 0 -19 -14q-20 8 -43 8q-12 0 -53 -6q-33 -6 -55 -2 q-10 12 -29 8l-33 -8q-16 -4 -43 4q-33 10 -43 10q-20 0 -35 -18h-8q-2 8 -2 16t3 25.5t3 28.5q0 12 -4 24q10 20 10 45q0 18 -9 54t-9 55q0 25 10 47q4 14 4 33q0 16 -4 50t-4 52q0 39 14 68q0 6 -9 22.5t-9 24.5q0 12 14 20q8 25 -2 60q-12 43 -12 53q0 23 18 41 q-14 12 -14 31q0 10 5 31.5t5 33.5q0 14 -6 27q2 29 6 516q0 27 -18.5 70.5t-22.5 64.5q12 2 27.5 5t21.5 17q80 12 136 54q27 29 87 18.5t87 3.5q61 0 184 -8q4 -2 8 -2t14.5 6t14.5 6q6 0 12 -6l10 10l21 -24q14 -14 27 -8q16 25 43.5 19.5t44.5 2.5q8 2 26.5 -6t26.5 -8 q10 0 18 4q78 18 135 -8q14 -2 39 8t35 10q8 0 17 -4q6 8 16 8q4 0 18 -4q10 -4 17 0q14 4 47 4t47 6q6 -182 0 -548q-8 -8 -8 -19q0 -8 7 -23.5t7 -23.5q0 -14 -16 -25q10 -29 10 -65q0 -16 -3 -52t-3 -57q0 -18 4 -32.5t4 -30.5q0 -18 -9 -52t-9 -44q0 -8 6 -36t6 -42 q0 -29 -19 -45q25 -57 11 -101q-25 -66 12 -125l4 -90q8 -51 37 -82v-14zM1116 635q-18 16 -10 51t-4 49q10 31 10 70q0 16 -3 51t-3 53q0 41 10 74q-12 16 -5 47t-5 45q0 6 4 172q4 102 -12 170q-8 18 -16.5 39t-28.5 21q-51 4 -107 4q-57 0 -115 -4q-18 20 -47 10 q-45 -14 -47 -14q-18 0 -35 18q-10 -20 -22 -21q-8 0 -25.5 12.5t-25.5 12.5t-17 -10l-4 6q-37 -12 -82 -12q-23 0 -70.5 4t-72.5 4t-42 -2t-24 -19q-10 -25 -12 -26q27 -51 6 -140q16 -20 17 -47q0 -16 -8.5 -49t-8.5 -49q0 -43 11 -131q-12 -158 -9 -416q8 -430 9 -438 q12 -31 18 -41q14 -20 33 -33q18 20 67 19.5t66 13.5q8 -16 33 -14q47 0 43 0q12 -6 26 -6q10 0 33 5t35 5q27 0 43 -23q12 -4 31.5 7.5t21.5 11.5q41 4 121 -9q47 -14 59 9q-2 2 45 2q31 0 41 -21q18 2 40 4t28 25q-2 37 -2 78q0 43 4 128t4 130q0 37 -2 71q-8 12 -8 31 q0 12 6 38t8 34z" />
<glyph unicode="&#xfc;" d="M1327 1823q-12 -18 -51 -76q-10 25 -12 25q-29 -29 -80 -29q-10 0 -35 2h-33q-35 0 -55 -10q-10 0 -33.5 10t-36.5 10q-20 0 -30 -26q-6 0 -9.5 27.5t-7.5 29.5q4 20 17 47q12 0 90 -4q63 6 184 -6q14 16 27 16q6 0 15 -5t17 -5q12 0 29 16q0 -8 4 -22zM504 1788 q-2 4 -11.5 -21.5t-21.5 -19.5q-6 4 -16 4t-29.5 -13.5t-28.5 -13.5q-14 0 -24 25q-10 4 -21 4q-14 0 -36.5 -12t-32.5 -12q-14 0 -27 18q-39 -10 -72 -10q-43 0 -84 12q4 8 0 16q-2 10 4 17q6 -4 13 -4q6 0 12 22.5t23 20.5q41 12 190 6q4 0 68 6q49 6 67 -4q27 -10 27 -41 zM289 1608q4 -8 4 -19q0 -12 -9.5 -38.5t-9.5 -41.5q0 -14 9 -26q-14 -14 -15 -33q0 -12 9.5 -38t9.5 -38q0 -16 -13 -31q16 -25 -2 -47q8 -61 5 -185t6 -185q-10 -80 -5 -260.5t-4 -251.5q-2 -12 3.5 -32t5.5 -26q0 -16 -13 -28q12 -68 2 -101q0 -2 21 -88q10 -51 59 -57 q18 2 51 11t52 9q14 0 30 -4q57 -8 82 6q18 -25 45 -18q10 18 31 18q6 0 23.5 -4t25.5 -4q14 0 25 10q8 0 21.5 -11t21.5 -11q6 0 14 5t25 24q10 -12 24 -13q-2 0 49 13l5 6q14 -27 32 -27q8 0 26.5 8.5t29.5 8.5q8 0 14 -3q14 8 80 3q47 -6 55 41q0 240 -6 628 q-6 475 -6 615q-16 37 -43 114q47 18 141 66q31 6 82 43q2 -37 -10 -66q0 -262 6 -313l-8 -10q8 -51 4 -135q-4 -94 0 -129q-10 -10 -10 -21q0 4 16 -39q-8 -20 -8 -45q0 -14 3 -38.5t3 -37.5q0 -31 -14 -55q12 -23 12 -68v-71q-18 -39 12 -92q-4 -31 -22 -88q8 -29 8 -74 q0 -12 -2 -37v-37q0 -111 67 -162q-8 10 -18 11q-10 0 -30.5 -15.5t-33.5 -9.5q-23 -18 -75 -28.5t-74 -32.5q-59 -25 -152 -25q-33 0 -101.5 4t-102.5 4q-41 0 -72 -4q-6 -2 -47 0q-31 2 -41 -12q-29 10 -78 8q-57 -4 -78 0q-215 4 -301 -6q-18 6 -16 26q4 29 2 33 q4 315 -4 928q8 12 4 38.5t4 43.5q-8 57 -14 119q8 45 2 131q-2 8 3 25.5t5 25.5q0 18 -15 27q4 70 -30 124q35 -6 81 24t69.5 35t62.5 36z" />
<glyph unicode="&#x2000;" horiz-adv-x="922" />
<glyph unicode="&#x2001;" horiz-adv-x="1845" />
<glyph unicode="&#x2002;" horiz-adv-x="922" />
<glyph unicode="&#x2003;" horiz-adv-x="1845" />
<glyph unicode="&#x2004;" horiz-adv-x="615" />
<glyph unicode="&#x2005;" horiz-adv-x="461" />
<glyph unicode="&#x2006;" horiz-adv-x="307" />
<glyph unicode="&#x2007;" horiz-adv-x="307" />
<glyph unicode="&#x2008;" horiz-adv-x="230" />
<glyph unicode="&#x2009;" horiz-adv-x="369" />
<glyph unicode="&#x200a;" horiz-adv-x="102" />
<glyph unicode="&#x202f;" horiz-adv-x="369" />
<glyph unicode="&#x205f;" horiz-adv-x="461" />
<glyph unicode="&#xe000;" horiz-adv-x="1628" d="M0 1628h1628v-1628h-1628v1628z" />
</font>
</defs>
</svg>
